if (_typeface_js && _typeface_js.loadFace) _typeface_js.loadFace({"glyphs":{"\u0000":{"x_min":0,"x_max":0,"ha":0},"":{"x_min":40.28125,"x_max":456.984375,"ha":499,"o":"m 40 872 q 95 1079 40 1007 q 248 1151 151 1151 q 401 1079 345 1151 q 456 872 456 1007 q 401 665 456 737 q 248 593 345 593 q 95 665 151 593 q 40 872 40 737 m 354 872 q 349 946 354 911 q 331 1008 344 982 q 299 1050 319 1035 q 248 1065 279 1065 q 197 1050 218 1065 q 165 1008 177 1035 q 147 946 152 982 q 141 872 141 911 q 147 797 141 832 q 165 736 152 762 q 197 694 177 710 q 248 679 218 679 q 299 694 279 679 q 331 736 319 710 q 349 797 344 762 q 354 872 354 832 "},"₅":{"x_min":55.5625,"x_max":441.703125,"ha":499,"o":"m 441 159 q 386 38 441 86 q 213 -9 330 -9 q 124 0 169 -9 q 55 22 79 9 l 76 105 q 132 86 97 97 q 211 76 168 76 q 313 100 284 76 q 341 157 341 125 q 329 200 341 180 q 289 232 318 219 q 213 253 261 246 q 94 261 166 261 q 110 401 104 330 q 119 537 116 472 l 419 537 l 419 450 l 202 450 q 198 394 200 422 q 191 337 197 366 q 381 285 322 330 q 441 159 441 240 "},"Ҿ":{"x_min":20.828125,"x_max":1082.03125,"ha":1160,"o":"m 401 450 q 496 184 413 270 q 748 97 579 97 q 829 103 793 97 q 895 118 866 109 q 946 137 925 127 q 982 154 968 147 l 1015 43 q 980 24 1004 34 q 922 4 957 13 q 843 -12 887 -5 q 747 -20 798 -19 l 747 -256 l 620 -256 l 620 -11 q 466 44 531 4 q 355 145 400 84 q 287 282 311 205 q 261 448 263 359 q 164 464 208 452 q 88 501 120 476 q 38 566 56 526 q 20 662 20 605 q 23 701 20 682 q 29 730 26 720 l 136 718 q 134 697 134 709 q 133 675 133 686 q 163 597 133 622 q 265 566 194 573 q 313 749 276 670 q 407 879 351 827 q 536 958 463 932 q 693 984 609 984 q 855 954 783 984 q 977 863 927 923 q 1054 712 1027 802 q 1082 502 1082 622 q 1080 475 1082 491 q 1077 450 1079 458 l 401 450 m 940 559 q 923 684 940 627 q 875 782 907 741 q 797 846 844 823 q 690 869 751 869 q 567 841 619 869 q 480 770 515 813 q 427 670 445 726 q 405 559 409 615 l 940 559 "},"ǻ":{"x_min":59.734375,"x_max":622.265625,"ha":725,"o":"m 355 93 q 436 95 401 93 q 495 102 472 97 l 495 318 q 450 329 481 325 q 375 334 419 334 q 313 330 345 334 q 253 313 280 326 q 208 277 226 300 q 190 216 190 254 q 234 120 190 147 q 355 93 279 93 m 344 740 q 475 720 422 740 q 561 663 529 700 q 608 575 594 626 q 622 463 622 525 l 622 12 q 575 4 605 9 q 508 -4 545 0 q 427 -11 470 -8 q 340 -15 383 -15 q 227 -2 279 -15 q 138 36 176 9 q 80 108 101 63 q 59 215 59 152 q 84 318 59 275 q 150 387 108 361 q 247 426 191 413 q 363 438 302 438 q 404 436 383 438 q 443 431 425 434 q 476 425 462 427 q 495 420 490 422 l 495 456 q 488 520 495 488 q 463 575 481 551 q 414 614 445 600 q 333 629 383 629 q 221 620 269 629 q 150 601 173 611 l 134 708 q 218 729 159 719 q 344 740 276 740 m 494 1162 l 274 1079 l 245 1155 l 455 1263 l 494 1162 m 494 926 q 455 832 494 866 q 365 798 416 798 q 274 832 312 798 q 235 926 235 866 q 274 1020 235 986 q 365 1054 312 1054 q 455 1020 416 1054 q 494 926 494 986 m 431 926 q 412 976 431 958 q 365 994 392 994 q 317 976 337 994 q 298 926 298 958 q 317 875 298 894 q 365 857 337 857 q 412 875 392 857 q 431 926 431 894 "},"ȋ":{"x_min":-5.734375,"x_max":364,"ha":351,"o":"m 240 0 l 111 0 l 111 722 l 240 722 l 240 0 m 179 1040 q 252 1027 218 1040 q 311 989 286 1013 q 351 929 337 965 q 363 847 365 893 l 280 847 q 274 880 279 862 q 258 913 269 898 q 227 937 247 927 q 179 947 208 947 q 130 937 149 947 q 99 913 111 927 q 83 880 88 898 q 77 847 79 862 l -5 847 q 6 929 -7 893 q 46 989 20 965 q 106 1027 72 1013 q 179 1040 140 1040 "},"`":{"x_min":65.28125,"x_max":369.46875,"ha":522,"o":"m 138 1077 l 369 877 l 313 805 l 65 982 l 138 1077 "},"ǆ":{"x_min":70.84375,"x_max":1425.4375,"ha":1478,"o":"m 577 569 q 509 606 554 588 q 412 625 465 625 q 317 604 356 625 q 252 549 277 584 q 216 465 227 513 q 205 361 205 416 q 268 165 205 234 q 434 97 330 97 q 522 102 487 97 q 577 112 558 106 l 577 569 m 577 1055 l 707 1077 l 707 20 q 593 -4 662 8 q 433 -16 523 -16 q 283 9 350 -16 q 169 84 216 36 q 96 203 122 133 q 70 361 70 273 q 92 513 70 444 q 155 633 113 583 q 257 711 197 683 q 395 738 318 738 q 506 722 458 738 q 577 690 554 705 l 577 1055 m 1414 625 q 1337 534 1385 593 q 1234 405 1289 476 q 1124 256 1179 334 q 1028 108 1069 179 l 1425 108 l 1425 0 l 874 0 l 874 86 q 955 220 907 147 q 1058 367 1004 294 q 1162 504 1111 440 q 1250 613 1212 569 l 893 613 l 893 722 l 1414 722 l 1414 625 m 955 1012 l 1009 1073 l 1144 951 l 1278 1073 l 1333 1012 l 1144 813 l 955 1012 "},"Ƹ":{"x_min":69.453125,"x_max":752.84375,"ha":788,"o":"m 531 462 l 505 462 q 389 453 443 462 q 296 422 336 444 q 234 363 256 400 q 211 270 211 326 q 277 136 211 176 q 461 95 343 95 q 543 102 504 95 q 613 119 581 109 q 671 140 645 129 q 712 159 697 151 l 752 48 q 709 27 737 40 q 644 4 682 15 q 559 -13 607 -5 q 459 -20 512 -20 q 300 -4 372 -20 q 177 47 227 12 q 97 138 126 83 q 69 268 69 193 q 93 387 69 336 q 159 472 118 438 q 257 526 201 506 q 376 552 313 545 q 295 638 336 594 q 215 727 254 683 q 144 811 176 770 q 91 882 112 851 l 91 962 l 708 962 l 708 850 l 262 850 q 316 783 284 822 q 384 702 348 744 q 459 619 420 661 q 531 543 497 577 l 531 462 "},"ƃ":{"x_min":111.125,"x_max":747.28125,"ha":818,"o":"m 240 962 l 240 684 q 311 716 263 700 q 422 733 359 733 q 560 706 500 733 q 662 629 620 679 q 725 511 704 580 q 747 359 747 443 q 721 202 747 272 q 648 84 695 133 q 534 9 601 34 q 384 -16 468 -16 q 225 -4 294 -16 q 111 20 155 8 l 111 1070 l 668 1070 l 668 962 l 240 962 m 240 112 q 295 102 259 106 q 383 97 330 97 q 550 165 487 97 q 612 359 612 233 q 601 463 612 415 q 565 545 590 511 q 500 600 540 580 q 405 619 461 619 q 308 601 352 619 q 240 563 263 583 l 240 112 "},"ἂ":{"x_min":70.84375,"x_max":812.5625,"ha":842,"o":"m 437 737 q 516 733 476 737 q 590 722 555 729 q 653 709 625 716 q 700 694 682 701 l 700 229 q 706 164 700 188 q 725 125 712 140 q 760 104 738 111 q 812 94 782 98 l 794 -13 q 689 4 732 -13 q 620 56 647 23 q 531 7 586 30 q 402 -15 477 -15 q 259 12 320 -15 q 155 90 197 40 q 92 209 113 140 q 70 359 70 277 q 96 517 70 447 q 170 636 122 587 q 286 711 218 684 q 437 737 354 737 m 412 97 q 513 115 469 97 q 579 151 556 134 q 570 234 570 188 l 570 605 q 522 616 559 609 q 443 622 486 622 q 268 554 331 622 q 205 359 205 486 q 216 256 205 304 q 252 172 227 208 q 317 117 277 137 q 412 97 356 97 m 189 845 q 237 891 217 869 q 273 938 258 912 q 223 1009 223 958 q 245 1063 223 1041 q 301 1084 267 1084 q 358 1062 335 1084 q 382 998 382 1040 q 370 948 382 975 q 338 895 358 922 q 292 844 318 869 q 239 798 267 819 l 189 845 m 515 1087 l 667 851 l 594 798 l 419 1018 l 515 1087 "},"ᾉ":{"x_min":11.109375,"x_max":1271.859375,"ha":1306,"o":"m 762 0 q 718 122 738 62 q 675 245 697 183 l 238 245 l 151 0 l 11 0 q 115 282 66 152 q 210 529 163 412 q 302 752 256 645 q 398 962 348 858 l 522 962 q 618 752 572 858 q 710 529 663 645 q 805 282 757 412 q 909 0 854 152 l 762 0 m 636 356 q 547 591 591 477 q 456 808 504 704 q 364 591 408 704 q 277 356 320 477 l 636 356 m 199 699 q 141 745 169 720 q 94 796 114 770 q 60 849 73 823 q 48 899 48 876 q 73 963 48 941 q 134 985 98 985 q 191 964 169 985 q 214 910 214 942 q 200 868 214 887 q 162 839 185 849 q 199 792 177 813 q 249 746 221 770 l 199 699 m 1253 -13 q 1084 37 1134 -11 q 1034 188 1034 86 l 1034 722 l 1163 722 l 1163 209 q 1169 156 1163 177 q 1187 123 1174 136 q 1220 104 1199 111 q 1271 94 1241 98 l 1253 -13 "},"ў":{"x_min":2.78125,"x_max":665.328125,"ha":690,"o":"m 26 -134 q 65 -147 41 -141 q 113 -154 90 -154 q 233 -120 190 -154 q 311 -9 276 -86 q 147 343 223 156 q 22 722 72 530 l 161 722 q 197 587 176 659 q 245 438 219 515 q 302 286 272 362 q 366 138 333 209 q 458 427 419 284 q 531 722 497 570 l 665 722 q 554 329 615 518 q 422 -22 493 141 q 364 -129 394 -84 q 298 -204 334 -175 q 217 -247 262 -233 q 115 -261 172 -261 q 83 -259 100 -261 q 50 -253 66 -256 q 21 -245 34 -250 q 2 -238 8 -241 l 26 -134 m 363 838 q 221 883 276 838 q 155 1007 166 927 l 253 1033 q 291 961 265 988 q 363 933 317 933 q 435 961 409 933 q 473 1033 462 988 l 570 1007 q 505 883 559 927 q 363 838 451 838 "},"ţ":{"x_min":102.78125,"x_max":533.375,"ha":558,"o":"m 365 -51 q 423 -93 405 -70 q 441 -161 441 -116 q 434 -194 441 -176 q 411 -227 427 -212 q 366 -252 394 -243 q 298 -262 338 -262 q 232 -256 262 -262 q 184 -244 202 -251 l 200 -165 q 235 -175 216 -170 q 277 -179 254 -179 q 327 -147 327 -179 q 312 -121 327 -131 q 269 -100 297 -111 l 259 -95 q 274 -54 265 -77 q 294 -11 283 -31 q 202 18 238 -4 q 143 76 165 40 q 111 163 120 112 q 102 279 102 213 l 102 923 l 231 945 l 231 722 l 505 722 l 505 613 l 231 613 l 231 280 q 240 190 231 226 q 265 135 248 155 q 306 106 281 115 q 365 98 331 98 q 459 111 423 98 q 508 130 494 125 l 533 23 q 475 2 515 15 q 383 -13 436 -11 q 372 -34 377 -25 q 365 -51 368 -43 "},"ȡ":{"x_min":70.84375,"x_max":1016.75,"ha":1010,"o":"m 579 13 q 508 -4 547 2 q 433 -12 469 -12 q 283 13 350 -12 q 169 86 216 38 q 96 204 122 134 q 70 361 70 273 q 92 513 70 444 q 155 633 113 583 q 257 711 197 683 q 395 738 318 738 q 506 722 458 738 q 577 690 554 705 l 577 1055 l 707 1077 l 707 100 q 765 129 734 119 q 832 140 795 140 q 907 124 873 140 q 966 81 941 108 q 1003 18 990 54 q 1016 -56 1016 -18 q 1004 -127 1016 -91 q 968 -191 993 -162 q 904 -238 943 -220 q 811 -256 865 -256 q 682 -224 732 -256 q 607 -134 632 -191 l 501 -261 l 434 -202 l 580 -26 q 579 -6 579 -16 q 579 13 579 2 m 577 569 q 509 606 554 588 q 412 625 465 625 q 317 604 356 625 q 252 549 277 584 q 216 465 227 513 q 205 361 205 416 q 268 168 205 234 q 434 101 330 101 q 522 109 487 101 q 577 122 558 116 l 577 569 m 812 43 q 754 27 777 43 q 707 -12 730 12 l 707 -47 q 734 -127 707 -97 q 811 -158 762 -158 q 885 -128 859 -158 q 911 -56 911 -98 q 886 13 911 -15 q 812 43 861 43 "},"í":{"x_min":83.40625,"x_max":344.53125,"ha":351,"o":"m 240 0 l 111 0 l 111 722 l 240 722 l 240 0 m 344 995 l 148 805 l 83 863 l 261 1077 l 344 995 "},"ң":{"x_min":111.125,"x_max":800.0625,"ha":829,"o":"m 702 106 l 800 106 l 800 -201 l 677 -201 l 677 0 l 573 0 l 573 319 l 240 319 l 240 0 l 111 0 l 111 722 l 240 722 l 240 427 l 573 427 l 573 722 l 702 722 l 702 106 "},"ņ":{"x_min":111.125,"x_max":694.5,"ha":797,"o":"m 111 701 q 229 725 155 712 q 398 737 302 737 q 541 713 484 737 q 632 645 598 688 q 680 540 666 601 q 694 405 694 479 l 694 0 l 565 0 l 565 377 q 556 491 565 444 q 526 568 547 538 q 470 610 505 597 q 384 623 436 623 q 341 622 363 623 q 299 618 319 620 q 263 613 279 616 q 240 609 247 611 l 240 0 l 111 0 l 111 701 m 346 -69 l 469 -69 q 471 -85 471 -76 q 471 -98 471 -94 q 457 -173 471 -143 q 422 -223 444 -204 q 370 -252 400 -243 q 307 -261 340 -261 q 274 -259 289 -261 q 255 -255 259 -258 l 255 -177 q 293 -175 276 -177 q 322 -163 311 -172 q 339 -136 333 -154 q 346 -87 346 -118 l 346 -69 "},"ǜ":{"x_min":102.78125,"x_max":686.171875,"ha":797,"o":"m 686 20 q 568 -2 641 9 q 400 -15 495 -15 q 259 9 316 -15 q 168 77 202 33 q 118 182 133 122 q 102 316 102 243 l 102 722 l 231 722 l 231 344 q 273 155 231 212 q 413 98 315 98 q 456 100 434 98 q 498 103 479 101 q 534 107 518 105 q 556 112 550 109 l 556 722 l 686 722 l 686 20 m 246 815 q 193 836 214 815 q 171 891 171 857 q 193 947 171 926 q 246 968 214 968 q 300 947 278 968 q 321 891 321 926 q 300 836 321 857 q 246 815 278 815 m 541 815 q 487 836 509 815 q 466 891 466 857 q 487 947 466 926 q 541 968 509 968 q 594 947 571 968 q 616 891 616 926 q 594 836 616 857 q 541 815 571 815 m 320 1186 l 453 990 l 391 937 l 237 1113 l 320 1186 "},"ỳ":{"x_min":2.78125,"x_max":665.328125,"ha":690,"o":"m 26 -134 q 65 -147 41 -141 q 113 -154 90 -154 q 233 -120 190 -154 q 311 -9 276 -86 q 147 343 223 156 q 22 722 72 530 l 161 722 q 197 587 176 659 q 245 438 219 515 q 302 286 272 362 q 366 138 333 209 q 458 427 419 284 q 531 722 497 570 l 665 722 q 554 329 615 518 q 422 -22 493 141 q 364 -129 394 -84 q 298 -204 334 -175 q 217 -247 262 -233 q 115 -261 172 -261 q 83 -259 100 -261 q 50 -253 66 -256 q 21 -245 34 -250 q 2 -238 8 -241 l 26 -134 m 279 1077 l 456 863 l 391 805 l 195 995 l 279 1077 "},"Ҫ":{"x_min":80.5625,"x_max":826.453125,"ha":861,"o":"m 458 -15 q 302 34 372 -4 q 184 135 233 72 q 107 285 134 198 q 80 481 80 372 q 117 696 80 602 q 216 854 154 790 q 362 951 279 918 q 540 984 445 984 q 647 976 600 984 q 731 957 695 968 q 788 934 766 945 q 819 918 811 923 l 780 807 q 744 825 768 815 q 691 844 720 834 q 625 860 661 854 q 554 866 590 866 q 416 840 477 866 q 312 763 355 813 q 246 642 269 713 q 223 481 223 570 q 243 325 223 395 q 304 203 263 254 q 404 125 344 152 q 545 97 465 97 q 700 116 638 97 q 791 151 761 136 l 826 40 q 732 3 807 25 q 544 -20 658 -18 q 536 -36 540 -29 q 530 -51 533 -44 q 588 -93 570 -70 q 607 -161 607 -116 q 600 -194 607 -176 q 576 -227 593 -212 q 531 -252 559 -243 q 463 -262 504 -262 q 397 -256 427 -262 q 350 -244 368 -251 l 365 -165 q 400 -175 381 -170 q 443 -179 419 -179 q 493 -147 493 -179 q 477 -121 493 -131 q 434 -100 462 -111 l 425 -95 q 439 -56 430 -79 q 458 -15 448 -34 "},"қ":{"x_min":111.125,"x_max":750.0625,"ha":758,"o":"m 240 412 q 316 486 273 444 q 403 572 359 529 q 484 656 447 616 q 545 722 522 695 l 695 722 q 624 646 665 688 q 539 559 583 604 q 452 471 495 515 q 375 393 409 427 q 443 338 406 370 q 516 268 479 305 q 588 188 552 230 q 654 106 623 147 l 750 106 l 750 -201 l 627 -201 l 627 0 l 576 0 q 504 96 545 47 q 418 191 463 145 q 327 276 373 237 q 240 341 281 315 l 240 0 l 111 0 l 111 722 l 240 722 l 240 412 "},"Ύ":{"x_min":-40.703125,"x_max":997.28125,"ha":1006,"o":"m 523 0 l 523 386 q 343 679 427 534 q 183 962 258 823 l 341 962 q 459 731 394 848 q 594 505 525 613 q 727 731 662 613 q 847 962 793 848 l 997 962 q 837 679 922 823 q 658 388 752 536 l 658 0 l 523 0 m 148 952 l 53 683 l -40 705 l 23 984 l 148 952 "},"":{"x_min":70.5,"x_max":695.5625,"ha":758,"o":"m 70 386 q 109 634 70 526 q 219 815 148 741 q 393 927 291 888 q 623 966 495 965 l 633 858 q 483 840 551 857 q 363 787 416 823 q 274 693 310 751 q 220 551 238 636 q 301 579 256 568 q 395 590 346 590 q 534 565 477 590 q 627 499 591 540 q 679 404 663 458 q 695 293 695 351 q 677 184 695 240 q 622 83 659 129 q 528 8 585 37 q 394 -20 471 -20 q 153 87 235 -20 q 70 386 70 195 m 381 484 q 291 475 333 484 q 208 448 249 466 q 205 417 206 433 q 205 386 205 401 q 213 270 205 325 q 243 175 221 216 q 301 110 264 134 q 392 86 337 86 q 470 105 438 86 q 523 155 502 125 q 553 221 544 186 q 562 290 562 256 q 517 434 562 384 q 381 484 471 484 "},"ѕ":{"x_min":55.5625,"x_max":565.328125,"ha":620,"o":"m 279 93 q 396 113 358 93 q 434 180 434 134 q 397 255 434 227 q 273 318 359 283 q 193 352 231 334 q 127 393 155 369 q 83 450 100 416 q 66 531 66 483 q 137 684 66 627 q 330 740 208 740 q 391 736 361 740 q 448 728 422 733 q 495 718 475 723 q 526 708 515 712 l 502 597 q 437 620 481 608 q 330 632 393 632 q 236 610 276 632 q 195 543 195 588 q 204 501 195 519 q 232 468 213 483 q 279 441 251 454 q 345 415 306 429 q 437 377 397 395 q 506 333 477 358 q 550 272 534 308 q 565 186 565 237 q 491 34 565 86 q 279 -16 416 -16 q 129 0 183 -16 q 55 23 75 15 l 79 134 q 150 109 101 126 q 279 93 198 93 "},"Ш":{"x_min":119.453125,"x_max":1245.9375,"ha":1365,"o":"m 119 0 l 119 962 l 254 962 l 254 115 l 615 115 l 615 962 l 750 962 l 750 115 l 1111 115 l 1111 962 l 1245 962 l 1245 0 l 119 0 "},"Ψ":{"x_min":90.28125,"x_max":1041.75,"ha":1132,"o":"m 632 0 l 500 0 l 500 245 q 309 275 387 245 q 182 357 231 305 q 111 481 133 409 q 90 637 90 554 l 90 962 l 220 962 l 220 655 q 295 431 220 498 q 500 363 369 363 l 500 962 l 632 962 l 632 363 q 836 431 762 363 q 911 655 911 498 l 911 962 l 1041 962 l 1041 637 q 1020 481 1041 554 q 949 357 998 409 q 822 275 900 305 q 632 245 744 245 l 632 0 "},"ӊ":{"x_min":111.125,"x_max":825.21875,"ha":829,"o":"m 702 106 l 825 106 q 816 10 826 58 q 785 -81 805 -37 q 738 -163 765 -125 q 679 -230 711 -201 l 590 -175 q 613 -147 598 -166 q 643 -105 627 -129 q 671 -54 658 -81 q 691 0 684 -27 l 573 0 l 573 319 l 240 319 l 240 0 l 111 0 l 111 722 l 240 722 l 240 427 l 573 427 l 573 722 l 702 722 l 702 106 "},"Ἴ":{"x_min":-56.5,"x_max":575.1875,"ha":695,"o":"m 440 962 l 575 962 l 575 0 l 440 0 l 440 962 m -56 746 q -7 792 -28 770 q 28 839 12 813 q -21 910 -21 859 q 0 964 -21 942 q 56 985 21 985 q 112 963 89 985 q 136 899 136 941 q 124 849 136 876 q 92 796 112 823 q 46 745 72 770 q -6 699 21 720 l -56 746 m 390 919 l 215 699 l 143 752 l 294 988 l 390 919 "},"ŭ":{"x_min":102.78125,"x_max":686.171875,"ha":797,"o":"m 686 20 q 568 -2 641 9 q 400 -15 495 -15 q 259 9 316 -15 q 168 77 202 33 q 118 182 133 122 q 102 316 102 243 l 102 722 l 231 722 l 231 344 q 273 155 231 212 q 413 98 315 98 q 456 100 434 98 q 498 103 479 101 q 534 107 518 105 q 556 112 550 109 l 556 722 l 686 722 l 686 20 m 394 847 q 321 860 355 847 q 261 897 287 873 q 222 958 235 922 q 209 1040 208 994 l 292 1040 q 299 1007 294 1025 q 315 974 304 988 q 345 950 326 959 q 394 940 365 940 q 442 950 423 940 q 473 974 462 959 q 489 1007 484 988 q 495 1040 494 1025 l 579 1040 q 566 958 580 994 q 526 897 552 922 q 467 860 501 873 q 394 847 433 847 "},"―":{"x_min":-2.78125,"x_max":1386.21875,"ha":1383,"o":"m -2 470 l 1386 470 l 1386 361 l -2 361 l -2 470 "},"{":{"x_min":55.5625,"x_max":451.421875,"ha":463,"o":"m 55 465 q 112 477 88 465 q 152 507 136 488 q 175 550 168 526 q 183 600 183 575 l 183 850 q 195 951 183 907 q 238 1025 208 995 q 320 1071 269 1055 q 445 1087 370 1087 l 451 1087 l 451 986 q 338 957 372 986 q 304 848 304 929 l 304 634 q 279 493 304 543 q 211 415 255 443 q 279 337 255 387 q 304 195 304 287 l 304 -18 q 338 -127 304 -98 q 451 -155 372 -155 l 451 -256 l 445 -256 q 320 -241 370 -256 q 238 -195 269 -226 q 195 -120 208 -165 q 183 -19 183 -76 l 183 230 q 175 279 183 255 q 152 322 168 304 q 112 353 136 341 q 55 365 88 365 l 55 465 "},"Ӄ":{"x_min":119.453125,"x_max":816.734375,"ha":876,"o":"m 254 962 l 254 522 q 356 629 300 569 q 468 749 412 688 q 573 866 523 809 q 658 962 623 922 l 816 962 q 729 863 777 916 q 630 754 682 809 q 525 643 579 698 q 423 538 472 587 q 577 508 505 531 q 701 438 648 484 q 784 321 754 393 q 815 148 815 250 q 792 -8 815 65 q 724 -137 769 -81 q 611 -225 679 -193 q 455 -256 544 -256 q 414 -256 436 -256 q 376 -252 393 -255 l 380 -143 q 400 -145 388 -144 q 431 -145 412 -145 q 609 -70 541 -145 q 676 148 676 5 q 641 305 676 248 q 554 391 607 362 q 443 427 502 420 q 334 434 384 434 q 294 434 315 434 q 254 431 273 433 l 254 0 l 119 0 l 119 962 l 254 962 "},"Ĳ":{"x_min":119.453125,"x_max":960.984375,"ha":1067,"o":"m 119 962 l 254 962 l 254 0 l 119 0 l 119 962 m 960 309 q 946 180 960 240 q 895 75 931 120 q 796 4 858 30 q 641 -20 734 -20 q 554 -13 594 -20 q 483 6 515 -5 q 427 31 451 18 q 390 56 404 44 l 442 163 q 518 120 472 143 q 634 97 565 97 q 780 147 734 97 q 826 322 826 198 l 826 962 l 960 962 l 960 309 "},"ǭ":{"x_min":70.84375,"x_max":748.671875,"ha":820,"o":"m 748 361 q 700 152 748 241 q 568 20 651 62 q 465 -54 508 -9 q 435 -93 445 -76 q 425 -129 425 -109 q 480 -169 425 -169 q 506 -167 490 -169 q 537 -159 522 -165 l 547 -244 q 507 -255 531 -251 q 455 -259 483 -259 q 340 -231 377 -259 q 302 -154 302 -202 q 320 -92 302 -122 q 362 -37 338 -62 q 373 -27 366 -33 q 386 -16 380 -20 q 259 16 316 -12 q 159 95 201 45 q 94 211 118 144 q 70 361 70 279 q 95 516 70 445 q 165 636 120 586 q 273 713 211 686 q 409 740 336 740 q 545 713 483 740 q 653 636 608 686 q 723 516 698 586 q 748 361 748 445 m 613 361 q 559 554 613 483 q 409 626 504 626 q 260 554 315 626 q 205 361 205 483 q 260 167 205 238 q 409 95 315 95 q 559 167 504 95 q 613 361 613 238 m 212 987 l 607 987 l 607 887 l 212 887 l 212 987 "},"ἣ":{"x_min":111.125,"x_max":694.5,"ha":797,"o":"m 111 701 q 229 725 155 712 q 398 737 302 737 q 541 713 484 737 q 632 645 598 688 q 680 540 666 601 q 694 405 694 479 l 694 -256 l 565 -256 l 565 377 q 556 491 565 444 q 526 568 547 538 q 470 610 505 597 q 384 623 436 623 q 341 622 363 623 q 299 618 319 620 q 263 613 279 616 q 240 609 247 611 l 240 0 l 111 0 l 111 701 m 285 798 q 231 844 257 819 q 185 895 204 869 q 153 948 165 922 q 142 998 142 975 q 165 1062 142 1040 q 222 1084 189 1084 q 278 1063 257 1084 q 300 1009 300 1041 q 250 938 300 958 q 286 891 265 912 q 335 845 307 869 l 285 798 m 440 1087 l 592 851 l 519 798 l 344 1018 l 440 1087 "},"ᾨ":{"x_min":-57.3125,"x_max":1449.859375,"ha":1483,"o":"m 554 984 q 725 954 643 984 q 869 866 807 925 q 967 719 930 807 q 1004 516 1004 632 q 989 391 1004 451 q 948 280 973 331 q 892 186 923 229 q 828 113 860 144 l 1026 113 l 1026 0 l 655 0 l 655 94 q 737 172 698 129 q 803 266 775 215 q 846 379 830 318 q 862 516 862 441 q 840 663 862 598 q 778 774 818 729 q 680 843 737 819 q 554 866 623 866 q 428 843 485 866 q 330 774 371 819 q 268 663 290 729 q 246 516 246 598 q 262 379 246 441 q 305 266 278 318 q 371 172 333 215 q 453 94 408 129 l 453 0 l 82 0 l 82 113 l 280 113 q 216 186 248 144 q 160 280 185 229 q 119 391 135 331 q 104 516 104 451 q 141 719 104 632 q 239 866 178 807 q 382 954 301 925 q 554 984 464 984 m -57 746 q -7 792 -29 770 q 30 839 14 813 q -8 868 6 849 q -22 910 -22 887 q 0 964 -22 942 q 57 985 23 985 q 119 963 94 985 q 144 899 144 941 q 131 849 144 876 q 98 796 119 823 q 50 745 77 770 q -7 699 23 720 l -57 746 m 1431 -13 q 1262 37 1312 -11 q 1212 188 1212 86 l 1212 722 l 1341 722 l 1341 209 q 1347 156 1341 177 q 1365 123 1352 136 q 1398 104 1377 111 q 1449 94 1419 98 l 1431 -13 "},"Я":{"x_min":50,"x_max":762.5625,"ha":882,"o":"m 493 854 q 392 845 440 854 q 306 816 344 837 q 247 759 269 795 q 225 669 225 723 q 290 527 225 566 q 488 487 356 487 l 627 487 l 627 850 q 591 851 612 850 q 549 853 573 852 q 493 854 525 854 m 504 972 q 566 970 533 972 q 634 966 600 969 q 701 959 668 963 q 762 948 734 955 l 762 0 l 627 0 l 627 376 l 512 376 q 471 377 493 376 q 413 381 450 377 q 359 304 388 348 q 301 209 330 259 q 243 105 272 159 q 191 0 215 51 l 50 0 q 102 112 72 54 q 165 223 133 170 q 228 321 198 276 q 280 395 258 366 q 213 423 248 405 q 150 473 179 441 q 102 553 120 505 q 83 668 83 601 q 112 800 83 743 q 196 895 141 857 q 329 952 251 933 q 504 972 406 972 "},"Ɲ":{"x_min":-38.890625,"x_max":891.734375,"ha":1011,"o":"m 779 0 q 709 115 748 51 q 623 247 669 179 q 528 387 577 316 q 430 524 479 458 q 336 648 381 590 q 251 751 290 707 l 251 0 q 243 -112 251 -63 q 212 -193 234 -161 q 150 -243 190 -226 q 47 -259 109 -259 q 2 -256 27 -259 q -38 -248 -23 -252 l -26 -147 q 3 -152 -15 -151 q 33 -154 22 -154 q 102 -120 84 -154 q 119 -23 119 -86 l 119 962 l 226 962 q 366 800 291 893 q 513 610 440 708 q 650 418 586 512 q 759 250 715 323 l 759 962 l 891 962 l 891 0 l 779 0 "},"ὤ":{"x_min":79.171875,"x_max":1084.8125,"ha":1164,"o":"m 795 -13 q 661 20 719 -13 q 581 115 604 54 q 502 20 559 54 q 368 -13 444 -13 q 252 5 305 -13 q 161 68 200 25 q 100 181 122 112 q 79 350 79 250 q 93 477 79 416 q 129 587 108 537 q 173 675 150 637 q 216 737 197 713 l 331 697 q 302 649 322 682 q 261 571 281 616 q 226 470 241 526 q 211 351 211 413 q 251 168 211 236 q 370 101 291 101 q 456 133 426 101 q 500 209 486 165 q 516 302 513 254 q 518 381 518 350 l 518 583 l 645 583 l 645 381 q 647 302 645 350 q 663 209 650 254 q 707 133 677 165 q 793 101 737 101 q 912 168 872 101 q 952 351 952 236 q 937 470 952 413 q 902 571 922 526 q 861 649 882 616 q 832 697 841 682 l 947 737 q 989 675 965 713 q 1034 587 1013 637 q 1070 477 1055 537 q 1084 350 1084 416 q 1063 180 1084 250 q 1002 68 1041 111 q 911 5 963 25 q 795 -13 858 -13 m 409 845 q 458 891 437 869 q 494 938 478 912 q 444 1009 444 958 q 465 1063 444 1041 q 522 1084 487 1084 q 578 1062 555 1084 q 602 998 602 1040 q 590 948 602 975 q 558 895 578 922 q 512 844 538 869 q 459 798 487 819 l 409 845 m 856 1018 l 681 798 l 609 851 l 760 1087 l 856 1018 "},"Ȓ":{"x_min":119.453125,"x_max":848.671875,"ha":874,"o":"m 590 402 q 646 329 612 375 q 716 229 680 284 q 788 115 752 175 q 848 0 823 55 l 701 0 q 641 106 673 52 q 575 210 608 161 q 509 302 541 259 q 450 377 476 345 q 413 376 431 376 q 375 376 394 376 l 254 376 l 254 0 l 119 0 l 119 948 q 246 967 176 962 q 375 972 316 972 q 684 895 577 972 q 790 668 790 819 q 739 504 790 572 q 590 402 688 436 m 386 854 q 254 850 300 854 l 254 487 l 350 487 q 475 494 419 487 q 568 520 530 501 q 627 575 607 540 q 648 669 648 611 q 627 759 648 723 q 571 816 607 795 q 488 845 536 837 q 386 854 440 854 m 408 1257 q 481 1244 447 1257 q 540 1206 515 1230 q 580 1146 566 1182 q 592 1064 594 1110 l 509 1064 q 503 1097 508 1079 q 487 1130 498 1115 q 456 1154 476 1144 q 408 1164 437 1164 q 359 1154 378 1164 q 328 1130 340 1144 q 312 1097 317 1115 q 306 1064 308 1079 l 223 1064 q 235 1146 222 1110 q 275 1206 249 1182 q 335 1244 301 1230 q 408 1257 369 1257 "},"ɏ":{"x_min":19.453125,"x_max":694.5,"ha":718,"o":"m 23 437 l 127 437 q 37 722 75 584 l 172 722 q 209 586 187 659 q 256 437 230 513 l 480 437 q 517 578 500 508 q 551 722 534 648 l 680 722 q 642 577 661 647 q 602 437 623 508 l 694 437 l 694 343 l 572 343 q 506 152 540 243 q 437 -22 473 61 q 380 -129 409 -84 q 315 -202 351 -173 q 234 -243 279 -230 q 131 -256 190 -256 q 100 -254 116 -256 q 67 -249 83 -252 q 38 -241 51 -245 q 19 -234 25 -237 l 43 -130 q 82 -143 58 -137 q 130 -150 106 -150 q 249 -118 205 -150 q 326 -9 293 -86 q 240 161 281 73 q 163 343 200 250 l 23 343 l 23 437 m 381 127 q 452 343 420 233 l 290 343 q 381 127 333 226 "},"⁸":{"x_min":44.453125,"x_max":452.8125,"ha":499,"o":"m 452 583 q 400 470 452 513 q 247 426 347 426 q 150 441 188 426 q 87 477 111 455 q 54 527 63 500 q 44 579 44 554 q 69 652 44 618 q 127 707 94 686 q 77 763 95 730 q 58 832 58 795 q 71 890 58 862 q 109 938 84 918 q 169 972 134 959 q 247 984 204 984 q 333 970 297 984 q 392 936 369 957 q 425 889 415 915 q 436 838 436 863 q 416 768 436 800 q 363 715 395 737 q 431 659 413 691 q 452 583 450 627 m 141 579 q 147 555 141 568 q 165 532 152 543 q 197 515 177 522 q 247 508 218 508 q 328 529 304 508 q 352 579 352 551 q 313 639 352 618 q 202 677 273 661 q 158 633 175 657 q 141 579 141 609 m 340 840 q 319 880 340 858 q 247 902 298 902 q 175 880 195 902 q 154 837 154 858 q 183 783 154 809 q 277 744 212 757 q 322 786 305 763 q 340 840 340 808 "},"k":{"x_min":111.125,"x_max":705.609375,"ha":725,"o":"m 372 397 q 460 318 413 365 q 552 215 506 270 q 637 104 597 161 q 705 0 677 48 l 554 0 q 486 99 525 48 q 406 196 448 150 q 322 281 365 243 q 240 347 279 320 l 240 0 l 111 0 l 111 1055 l 240 1077 l 240 419 q 313 493 273 452 q 393 575 354 533 q 466 654 431 616 q 526 722 501 693 l 677 722 q 608 645 645 687 q 530 561 570 604 q 449 477 490 519 q 372 397 408 434 "},"Ά":{"x_min":11.109375,"x_max":909.796875,"ha":921,"o":"m 762 0 q 718 122 738 62 q 675 245 697 183 l 238 245 l 151 0 l 11 0 q 115 282 66 152 q 210 529 163 412 q 302 752 256 645 q 398 962 348 858 l 522 962 q 618 752 572 858 q 710 529 663 645 q 805 282 757 412 q 909 0 854 152 l 762 0 m 636 356 q 547 591 591 477 q 456 808 504 704 q 364 591 408 704 q 277 356 320 477 l 636 356 m 281 896 l 85 706 l 20 764 l 198 978 l 281 896 "},"ȇ":{"x_min":70.84375,"x_max":701.4375,"ha":776,"o":"m 70 359 q 98 527 70 455 q 172 645 126 598 q 277 716 218 693 q 400 740 337 740 q 623 649 545 740 q 701 372 701 558 q 701 350 701 363 q 700 326 701 337 l 205 326 q 270 155 213 213 q 448 97 327 97 q 563 109 516 97 q 633 131 609 120 l 651 23 q 568 -2 627 11 q 434 -16 509 -16 q 271 11 340 -16 q 158 90 202 40 q 92 209 113 140 q 70 359 70 277 m 566 430 q 522 574 568 518 q 398 630 477 630 q 320 613 354 630 q 262 568 286 595 q 225 504 238 540 q 208 430 212 468 l 566 430 m 397 1040 q 470 1027 436 1040 q 529 989 504 1013 q 569 929 555 965 q 581 847 583 893 l 498 847 q 492 880 497 862 q 476 913 487 898 q 445 937 465 927 q 397 947 426 947 q 348 937 367 947 q 317 913 329 927 q 301 880 306 898 q 295 847 297 862 l 212 847 q 224 929 211 893 q 264 989 238 965 q 324 1027 290 1013 q 397 1040 358 1040 "},"ί":{"x_min":59.796875,"x_max":363.984375,"ha":379,"o":"m 327 -13 q 158 37 208 -11 q 108 188 108 86 l 108 722 l 237 722 l 237 209 q 243 156 237 177 q 261 123 248 136 q 294 104 273 111 q 345 94 315 98 l 327 -13 m 363 982 l 115 805 l 59 877 l 290 1077 l 363 982 "},"Ù":{"x_min":112.515625,"x_max":843.125,"ha":956,"o":"m 477 -20 q 313 8 383 -20 q 200 88 244 37 q 134 208 155 138 q 112 358 112 277 l 112 962 l 247 962 l 247 373 q 311 163 247 229 q 477 98 375 98 q 571 114 529 98 q 644 163 613 130 q 691 249 675 197 q 708 373 708 301 l 708 962 l 843 962 l 843 358 q 821 208 843 277 q 754 88 800 138 q 641 8 709 37 q 477 -20 572 -20 m 394 1294 l 571 1080 l 506 1022 l 310 1212 l 394 1294 "},"ὓ":{"x_min":102.78125,"x_max":697.28125,"ha":800,"o":"m 400 -15 q 252 11 309 -15 q 161 84 194 38 q 115 187 127 129 q 102 306 102 245 l 102 722 l 231 722 l 231 325 q 274 152 231 202 q 400 101 316 101 q 525 152 483 101 q 568 325 568 202 l 568 722 l 697 722 l 697 306 q 684 187 697 245 q 638 84 672 129 q 547 11 605 38 q 400 -15 490 -15 m 282 798 q 228 844 254 819 q 182 895 201 869 q 150 948 162 922 q 139 998 139 975 q 162 1062 139 1040 q 219 1084 186 1084 q 275 1063 254 1084 q 297 1009 297 1041 q 247 938 297 958 q 283 891 262 912 q 332 845 304 869 l 282 798 m 437 1087 l 589 851 l 516 798 l 341 1018 l 437 1087 "},"Ҷ":{"x_min":80.5625,"x_max":877.84375,"ha":903,"o":"m 213 684 q 224 582 213 626 q 260 510 234 538 q 329 468 286 481 q 440 454 373 454 q 493 456 466 454 q 545 461 520 458 q 590 468 570 463 q 622 475 609 472 l 622 962 l 757 962 l 757 115 l 877 115 l 877 -256 l 750 -256 l 750 0 l 622 0 l 622 358 q 541 344 595 351 q 423 337 486 337 q 251 361 318 337 q 146 431 184 386 q 94 541 108 476 q 80 684 80 605 l 80 962 l 213 962 l 213 684 "},"В":{"x_min":119.453125,"x_max":822.28125,"ha":893,"o":"m 379 -8 q 316 -6 350 -8 q 247 -2 281 -5 q 180 4 213 0 q 119 15 147 8 l 119 948 q 180 959 147 955 q 247 966 213 963 q 315 970 281 969 q 377 972 348 972 q 534 959 461 972 q 660 917 607 947 q 744 838 713 887 q 775 719 775 790 q 737 589 775 640 q 637 513 700 538 q 772 434 722 488 q 822 281 822 380 q 716 64 822 137 q 379 -8 609 -8 m 252 448 l 252 109 q 288 106 268 108 q 331 104 306 105 q 387 104 355 104 q 500 111 447 104 q 594 138 554 119 q 659 193 634 158 q 683 280 683 227 q 665 360 683 327 q 613 412 647 393 q 531 440 579 431 q 426 448 484 448 l 252 448 m 252 556 l 394 556 q 488 563 444 556 q 566 588 533 570 q 617 636 598 607 q 636 709 636 665 q 616 779 636 751 q 563 825 597 808 q 483 851 529 843 q 386 859 437 859 q 305 858 334 859 q 252 854 276 857 l 252 556 "},"ᾗ":{"x_min":111.125,"x_max":694.5,"ha":797,"o":"m 111 701 q 229 725 155 712 q 398 737 302 737 q 541 713 484 737 q 632 645 598 688 q 680 540 666 601 q 694 405 694 479 l 694 -256 l 565 -256 l 565 377 q 556 491 565 444 q 526 568 547 538 q 470 610 505 597 q 384 623 436 623 q 341 622 363 623 q 299 618 319 620 q 263 613 279 616 q 240 609 247 611 l 240 0 l 111 0 l 111 701 m 472 798 q 420 830 447 812 q 371 869 393 848 q 336 913 350 890 q 322 963 322 937 q 343 1025 322 1005 q 397 1044 365 1044 q 453 1023 436 1044 q 470 977 470 1002 q 459 943 470 959 q 433 916 448 927 q 511 845 454 886 l 472 798 m 400 1223 q 469 1212 436 1223 q 528 1179 502 1201 q 569 1126 554 1158 q 584 1052 584 1094 l 584 1050 l 511 1050 q 482 1110 508 1082 q 400 1138 455 1138 q 318 1110 344 1138 q 289 1050 291 1082 l 215 1050 l 215 1052 q 230 1126 215 1094 q 271 1179 245 1158 q 330 1212 297 1201 q 400 1223 364 1223 m 242 -87 q 248 -136 242 -118 q 265 -163 254 -154 q 294 -175 276 -172 q 332 -177 311 -177 l 332 -255 q 313 -259 328 -258 q 280 -261 298 -261 q 217 -252 247 -261 q 165 -223 187 -243 q 130 -173 143 -204 q 117 -98 117 -143 q 117 -85 117 -94 q 118 -69 117 -76 l 242 -69 l 242 -87 "},"β":{"x_min":111.125,"x_max":777.84375,"ha":849,"o":"m 240 -256 l 111 -256 l 111 754 q 128 882 111 823 q 182 985 145 941 q 277 1053 219 1029 q 418 1077 336 1077 q 535 1060 481 1077 q 627 1009 588 1043 q 688 925 666 975 q 709 808 709 875 q 672 686 709 745 q 563 598 634 627 q 661 553 620 583 q 728 484 702 523 q 766 401 754 445 q 777 311 777 356 q 752 170 777 230 q 678 69 726 109 q 563 9 630 29 q 415 -11 497 -11 q 313 2 358 -11 q 240 31 268 16 l 240 -256 m 240 151 q 303 119 261 136 q 416 102 345 102 q 504 115 462 102 q 577 152 545 127 q 627 215 608 177 q 645 305 645 254 q 581 472 645 411 q 379 534 516 534 l 369 534 l 369 640 l 380 640 q 459 650 422 640 q 522 681 495 661 q 565 734 550 702 q 580 807 580 765 q 539 920 580 875 q 418 966 498 966 q 336 950 369 966 q 281 905 302 934 q 250 836 259 876 q 240 751 240 797 l 240 151 "},"Ό":{"x_min":-42.59375,"x_max":1078.078125,"ha":1158,"o":"m 218 896 l 22 706 l -42 764 l 135 978 l 218 896 m 158 481 q 195 700 158 605 q 295 857 232 794 q 442 952 358 920 q 621 984 526 984 q 796 952 714 984 q 941 857 879 920 q 1041 700 1004 794 q 1078 481 1078 605 q 1041 263 1078 358 q 941 106 1004 169 q 796 11 879 43 q 621 -20 714 -20 q 442 11 526 -20 q 295 106 358 43 q 195 263 232 169 q 158 481 158 358 m 300 481 q 322 322 300 394 q 385 201 344 251 q 485 124 426 151 q 618 97 544 97 q 750 124 691 97 q 849 201 808 151 q 912 322 890 251 q 935 481 935 394 q 912 641 935 569 q 849 762 890 712 q 750 839 808 812 q 618 866 691 866 q 485 839 544 866 q 385 762 426 812 q 322 641 344 712 q 300 481 300 569 "},"≠":{"x_min":73.609375,"x_max":709.78125,"ha":783,"o":"m 73 313 l 286 313 l 380 500 l 73 500 l 73 609 l 436 609 l 527 791 l 619 741 l 552 609 l 709 609 l 709 500 l 497 500 l 402 313 l 709 313 l 709 204 l 347 204 l 255 22 l 163 72 l 230 204 l 73 204 l 73 313 "},"Ғ":{"x_min":26.390625,"x_max":702.828125,"ha":725,"o":"m 702 962 l 702 845 l 272 845 l 272 545 l 487 545 l 487 441 l 272 441 l 272 0 l 137 0 l 137 441 l 26 441 l 26 545 l 137 545 l 137 962 l 702 962 "},"ƀ":{"x_min":8.328125,"x_max":747.28125,"ha":818,"o":"m 240 684 q 311 716 263 700 q 422 733 359 733 q 560 706 500 733 q 662 629 620 679 q 725 511 704 580 q 747 359 747 443 q 721 202 747 272 q 648 84 695 133 q 534 9 601 34 q 384 -16 468 -16 q 225 -4 294 -16 q 111 20 155 8 l 111 852 l 8 852 l 8 948 l 111 948 l 111 1055 l 240 1077 l 240 948 l 486 948 l 486 852 l 240 852 l 240 684 m 240 112 q 295 102 259 106 q 383 97 330 97 q 550 165 487 97 q 612 359 612 233 q 601 463 612 415 q 565 545 590 511 q 500 600 540 580 q 405 619 461 619 q 308 601 352 619 q 240 563 263 583 l 240 112 "},"Ĥ":{"x_min":119.453125,"x_max":859.796875,"ha":979,"o":"m 725 962 l 859 962 l 859 0 l 725 0 l 725 444 l 254 444 l 254 0 l 119 0 l 119 962 l 254 962 l 254 561 l 725 561 l 725 962 m 489 1285 l 678 1086 l 623 1025 l 489 1147 l 354 1025 l 300 1086 l 489 1285 "},"U":{"x_min":112.515625,"x_max":843.125,"ha":956,"o":"m 477 -20 q 313 8 383 -20 q 200 88 244 37 q 134 208 155 138 q 112 358 112 277 l 112 962 l 247 962 l 247 373 q 311 163 247 229 q 477 98 375 98 q 571 114 529 98 q 644 163 613 130 q 691 249 675 197 q 708 373 708 301 l 708 962 l 843 962 l 843 358 q 821 208 843 277 q 754 88 800 138 q 641 8 709 37 q 477 -20 572 -20 "},"ᾞ":{"x_min":-61.609375,"x_max":1574.859375,"ha":1608,"o":"m 969 962 l 1103 962 l 1103 0 l 969 0 l 969 444 l 498 444 l 498 0 l 363 0 l 363 962 l 498 962 l 498 561 l 969 561 l 969 962 m 12 696 q 89 767 68 737 q 63 794 74 778 q 52 828 52 810 q 69 874 52 853 q 125 895 87 895 q 179 876 157 895 q 200 814 200 856 q 187 764 200 788 q 151 720 173 741 q 102 681 130 699 q 50 649 75 663 l 12 696 m 123 1074 q 192 1063 159 1074 q 251 1030 225 1052 q 292 977 277 1009 q 307 903 307 945 l 307 901 l 234 901 q 205 961 231 933 q 123 989 178 989 q 41 961 67 989 q 12 901 14 933 l -61 901 l -61 903 q -46 977 -61 945 q -5 1030 -31 1009 q 53 1063 20 1052 q 123 1074 87 1074 m 1556 -13 q 1387 37 1437 -11 q 1337 188 1337 86 l 1337 722 l 1466 722 l 1466 209 q 1472 156 1466 177 q 1490 123 1477 136 q 1523 104 1502 111 q 1574 94 1544 98 l 1556 -13 "},"∕":{"x_min":-231.96875,"x_max":431.984375,"ha":206,"o":"m 431 962 l -111 0 l -231 0 l 311 962 l 431 962 "},"Ᾰ":{"x_min":11.109375,"x_max":909.796875,"ha":921,"o":"m 762 0 q 718 122 738 62 q 675 245 697 183 l 238 245 l 151 0 l 11 0 q 115 282 66 152 q 210 529 163 412 q 302 752 256 645 q 398 962 348 858 l 522 962 q 618 752 572 858 q 710 529 663 645 q 805 282 757 412 q 909 0 854 152 l 762 0 m 636 356 q 547 591 591 477 q 456 808 504 704 q 364 591 408 704 q 277 356 320 477 l 636 356 m 461 1064 q 388 1077 422 1064 q 328 1114 354 1090 q 289 1175 302 1139 q 276 1257 275 1211 l 359 1257 q 366 1224 361 1242 q 382 1191 371 1205 q 412 1167 393 1176 q 461 1157 432 1157 q 509 1167 490 1157 q 540 1191 529 1176 q 556 1224 551 1205 q 562 1257 561 1242 l 646 1257 q 633 1175 647 1211 q 593 1114 619 1139 q 534 1077 568 1090 q 461 1064 500 1064 "},"Ϋ":{"x_min":8.328125,"x_max":822.28125,"ha":831,"o":"m 348 0 l 348 386 q 168 679 252 534 q 8 962 83 823 l 166 962 q 284 731 219 848 q 419 505 350 613 q 552 731 487 613 q 672 962 618 848 l 822 962 q 662 679 747 823 q 483 388 577 536 l 483 0 l 348 0 m 283 1072 q 226 1095 251 1072 q 202 1154 202 1118 q 226 1213 202 1190 q 283 1236 251 1236 q 339 1213 315 1236 q 363 1154 363 1190 q 339 1095 363 1118 q 283 1072 315 1072 m 547 1072 q 490 1095 515 1072 q 466 1154 466 1118 q 490 1213 466 1190 q 547 1236 515 1236 q 603 1213 579 1236 q 627 1154 627 1190 q 603 1095 627 1118 q 547 1072 579 1072 "},"ɋ":{"x_min":70.84375,"x_max":870.90625,"ha":818,"o":"m 205 359 q 216 256 205 304 q 252 172 227 208 q 317 117 277 137 q 412 97 356 97 q 509 115 465 97 q 577 152 554 133 l 577 608 q 525 618 558 613 q 434 622 493 622 q 268 554 330 622 q 205 359 205 486 m 707 -23 q 727 -120 707 -86 q 798 -154 747 -154 q 828 -152 809 -154 q 858 -147 847 -151 l 870 -248 q 829 -256 855 -252 q 784 -259 804 -259 q 682 -243 722 -259 q 618 -193 641 -226 q 586 -112 595 -161 q 577 0 577 -63 l 577 31 q 506 0 554 16 q 395 -16 458 -16 q 257 11 318 -16 q 155 88 197 38 q 92 208 113 138 q 70 359 70 277 q 96 517 70 447 q 169 636 122 587 q 283 711 216 684 q 433 737 350 737 q 592 724 523 737 q 707 700 661 711 l 707 -23 "},"ō":{"x_min":70.84375,"x_max":748.671875,"ha":820,"o":"m 748 361 q 723 205 748 275 q 653 86 698 136 q 545 9 608 36 q 409 -18 483 -18 q 273 9 336 -18 q 165 86 211 36 q 95 205 120 136 q 70 361 70 275 q 95 516 70 445 q 165 636 120 586 q 273 713 211 686 q 409 740 336 740 q 545 713 483 740 q 653 636 608 686 q 723 516 698 586 q 748 361 748 445 m 613 361 q 559 554 613 483 q 409 626 504 626 q 260 554 315 626 q 205 361 205 483 q 260 167 205 238 q 409 95 315 95 q 559 167 504 95 q 613 361 613 238 m 212 987 l 607 987 l 607 887 l 212 887 l 212 987 "},"Ӕ":{"x_min":8.328125,"x_max":1247.328125,"ha":1299,"o":"m 1212 850 l 794 850 l 794 559 l 1162 559 l 1162 450 l 794 450 l 794 112 l 1247 112 l 1247 0 l 661 0 l 661 247 l 281 247 q 215 124 248 186 q 152 0 183 62 l 8 0 q 163 282 87 150 q 311 533 238 415 q 453 757 383 651 q 593 962 523 863 l 1212 962 l 1212 850 m 661 857 q 508 630 587 757 q 344 356 429 504 l 661 356 l 661 857 "},"ö":{"x_min":70.84375,"x_max":748.671875,"ha":820,"o":"m 748 361 q 723 205 748 275 q 653 86 698 136 q 545 9 608 36 q 409 -18 483 -18 q 273 9 336 -18 q 165 86 211 36 q 95 205 120 136 q 70 361 70 275 q 95 516 70 445 q 165 636 120 586 q 273 713 211 686 q 409 740 336 740 q 545 713 483 740 q 653 636 608 686 q 723 516 698 586 q 748 361 748 445 m 613 361 q 559 554 613 483 q 409 626 504 626 q 260 554 315 626 q 205 361 205 483 q 260 167 205 238 q 409 95 315 95 q 559 167 504 95 q 613 361 613 238 m 278 855 q 221 878 246 855 q 197 937 197 901 q 221 996 197 973 q 278 1019 246 1019 q 334 996 310 1019 q 358 937 358 973 q 334 878 358 901 q 278 855 310 855 m 542 855 q 485 878 510 855 q 461 937 461 901 q 485 996 461 973 q 542 1019 510 1019 q 598 996 574 1019 q 622 937 622 973 q 598 878 622 901 q 542 855 574 855 "},"Ȧ":{"x_min":11.109375,"x_max":909.796875,"ha":921,"o":"m 762 0 q 718 122 738 62 q 675 245 697 183 l 238 245 l 151 0 l 11 0 q 115 282 66 152 q 210 529 163 412 q 302 752 256 645 q 398 962 348 858 l 522 962 q 618 752 572 858 q 710 529 663 645 q 805 282 757 412 q 909 0 854 152 l 762 0 m 636 356 q 547 591 591 477 q 456 808 504 704 q 364 591 408 704 q 277 356 320 477 l 636 356 m 460 1069 q 401 1092 425 1069 q 376 1154 376 1115 q 401 1216 376 1193 q 460 1239 425 1239 q 519 1216 494 1239 q 543 1154 543 1193 q 519 1092 543 1115 q 460 1069 494 1069 "},"А":{"x_min":11.109375,"x_max":909.796875,"ha":921,"o":"m 762 0 q 718 122 738 62 q 675 245 697 183 l 238 245 l 151 0 l 11 0 q 115 282 66 152 q 210 529 163 412 q 302 752 256 645 q 398 962 348 858 l 522 962 q 618 752 572 858 q 710 529 663 645 q 805 282 757 412 q 909 0 854 152 l 762 0 m 636 356 q 547 591 591 477 q 456 808 504 704 q 364 591 408 704 q 277 356 320 477 l 636 356 "},"ĭ":{"x_min":-8.5625,"x_max":361.15625,"ha":351,"o":"m 240 0 l 111 0 l 111 722 l 240 722 l 240 0 m 176 847 q 103 860 137 847 q 43 897 69 873 q 4 958 17 922 q -8 1040 -9 994 l 74 1040 q 81 1007 76 1025 q 97 974 86 988 q 127 950 108 959 q 176 940 147 940 q 224 950 205 940 q 255 974 244 959 q 271 1007 266 988 q 277 1040 276 1025 l 361 1040 q 348 958 362 994 q 308 897 334 922 q 249 860 283 873 q 176 847 215 847 "},"8":{"x_min":76.390625,"x_max":707,"ha":783,"o":"m 707 250 q 686 142 707 191 q 627 56 666 93 q 527 0 587 19 q 390 -20 468 -20 q 239 4 300 -20 q 143 69 179 30 q 91 154 106 108 q 76 243 76 201 q 89 320 76 283 q 124 388 102 356 q 174 446 145 420 q 234 491 202 472 q 98 720 98 569 q 119 821 98 773 q 178 905 140 869 q 270 963 216 941 q 391 984 325 984 q 525 961 469 984 q 616 900 580 937 q 667 819 651 863 q 683 733 683 775 q 671 657 683 693 q 639 591 659 622 q 593 537 619 561 q 540 495 568 513 q 707 250 704 418 m 206 241 q 215 189 206 216 q 247 139 225 162 q 304 101 269 116 q 391 86 338 86 q 474 100 438 86 q 531 135 509 113 q 565 184 554 156 q 576 241 576 212 q 559 319 576 286 q 511 377 543 352 q 436 420 480 402 q 337 450 393 437 q 240 363 275 415 q 206 241 206 312 m 554 734 q 545 780 554 755 q 516 827 536 805 q 466 863 497 848 q 391 877 436 877 q 316 863 347 877 q 265 828 284 850 q 236 781 245 807 q 227 730 227 755 q 238 669 227 700 q 273 612 250 638 q 335 565 297 586 q 426 531 373 544 q 519 613 484 566 q 554 734 554 659 "},"ƿ":{"x_min":111.125,"x_max":723.671875,"ha":793,"o":"m 588 416 q 534 567 588 512 q 383 622 480 622 q 292 613 325 622 q 240 598 259 605 l 240 45 q 363 95 301 68 q 476 166 426 123 q 557 270 526 209 q 588 416 588 330 m 723 413 q 684 224 723 302 q 579 89 645 145 q 425 -6 512 33 q 240 -77 337 -45 l 240 -256 l 111 -256 l 111 680 q 225 717 155 697 q 384 737 294 737 q 526 715 463 737 q 632 650 588 693 q 700 548 676 608 q 723 413 723 488 "},"R":{"x_min":119.453125,"x_max":848.671875,"ha":874,"o":"m 590 402 q 646 329 612 375 q 716 229 680 284 q 788 115 752 175 q 848 0 823 55 l 701 0 q 641 106 673 52 q 575 210 608 161 q 509 302 541 259 q 450 377 476 345 q 413 376 431 376 q 375 376 394 376 l 254 376 l 254 0 l 119 0 l 119 948 q 246 967 176 962 q 375 972 316 972 q 684 895 577 972 q 790 668 790 819 q 739 504 790 572 q 590 402 688 436 m 386 854 q 254 850 300 854 l 254 487 l 350 487 q 475 494 419 487 q 568 520 530 501 q 627 575 607 540 q 648 669 648 611 q 627 759 648 723 q 571 816 607 795 q 488 845 536 837 q 386 854 440 854 "},"Ὗ":{"x_min":-61.609375,"x_max":1165.28125,"ha":1174,"o":"m 691 0 l 691 386 q 511 679 595 534 q 351 962 426 823 l 509 962 q 627 731 562 848 q 762 505 693 613 q 895 731 830 613 q 1015 962 961 848 l 1165 962 q 1005 679 1090 823 q 826 388 920 536 l 826 0 l 691 0 m 195 649 q 143 681 170 663 q 94 720 116 699 q 59 764 73 741 q 45 814 45 788 q 66 876 45 856 q 120 895 88 895 q 176 874 159 895 q 193 828 193 853 q 182 794 193 810 q 156 767 171 778 q 234 696 177 737 l 195 649 m 123 1074 q 192 1063 159 1074 q 251 1030 225 1052 q 292 977 277 1009 q 307 903 307 945 l 307 901 l 234 901 q 205 961 231 933 q 123 989 178 989 q 41 961 67 989 q 12 901 14 933 l -61 901 l -61 903 q -46 977 -61 945 q -5 1030 -31 1009 q 53 1063 20 1052 q 123 1074 87 1074 "},"Ż":{"x_min":45.84375,"x_max":744.5,"ha":796,"o":"m 730 855 q 656 768 698 819 q 566 656 613 718 q 469 525 519 594 q 371 386 419 456 q 280 247 323 316 q 202 115 237 177 l 744 115 l 744 0 l 45 0 l 45 90 q 114 212 75 145 q 199 348 154 279 q 293 488 244 418 q 389 625 341 559 q 482 747 437 690 q 565 847 527 804 l 70 847 l 70 962 l 730 962 l 730 855 m 405 1069 q 346 1092 370 1069 q 321 1154 321 1115 q 346 1216 321 1193 q 405 1239 370 1239 q 464 1216 439 1239 q 488 1154 488 1193 q 464 1092 488 1115 q 405 1069 439 1069 "},"⅙":{"x_min":69.453125,"x_max":1171.984375,"ha":1214,"o":"m 69 862 q 173 909 122 880 q 262 973 225 937 l 330 973 l 330 437 l 233 437 l 233 845 q 163 811 202 826 q 95 787 123 795 l 69 862 m 935 962 l 392 0 l 272 0 l 815 962 l 935 962 m 766 219 q 791 355 766 295 q 863 456 816 415 q 976 518 910 497 q 1126 541 1042 540 l 1134 456 q 1046 446 1088 455 q 969 420 1003 437 q 910 378 934 403 q 876 322 885 353 q 929 337 903 333 q 977 341 955 341 q 1067 327 1030 341 q 1128 289 1105 313 q 1161 234 1151 265 q 1171 170 1171 203 q 1160 108 1171 140 q 1125 50 1149 76 q 1064 8 1101 24 q 977 -8 1027 -8 q 819 51 873 -8 q 766 219 766 112 m 969 260 q 914 256 941 260 q 862 242 887 251 q 884 119 859 166 q 976 73 909 73 q 1020 82 1002 73 q 1049 106 1038 91 q 1066 137 1060 120 q 1071 169 1071 153 q 1046 237 1071 213 q 969 260 1021 260 "},"ħ":{"x_min":8.328125,"x_max":694.5,"ha":793,"o":"m 111 0 l 111 852 l 8 852 l 8 948 l 111 948 l 111 1055 l 240 1077 l 240 948 l 486 948 l 486 852 l 240 852 l 240 702 q 317 724 276 716 q 398 732 358 732 q 541 707 484 732 q 632 639 598 683 q 680 534 666 595 q 694 400 694 473 l 694 0 l 565 0 l 565 372 q 556 486 565 438 q 526 562 547 533 q 470 604 505 591 q 384 618 436 618 q 341 615 363 618 q 299 609 319 612 q 263 601 279 605 q 240 594 247 597 l 240 0 l 111 0 "},"ἵ":{"x_min":-55.78125,"x_max":422.046875,"ha":379,"o":"m 327 -13 q 158 37 208 -11 q 108 188 108 86 l 108 722 l 237 722 l 237 209 q 243 156 237 177 q 261 123 248 136 q 294 104 273 111 q 345 94 315 98 l 327 -13 m 87 798 q 33 844 59 819 q -12 895 6 869 q -43 948 -32 922 q -55 998 -55 975 q -32 1062 -55 1040 q 24 1084 -8 1084 q 81 1063 59 1084 q 102 1009 102 1041 q 52 938 102 958 q 88 891 67 912 q 137 845 109 869 l 87 798 m 422 1018 l 247 798 l 174 851 l 326 1087 l 422 1018 "},"Ⱦ":{"x_min":22.21875,"x_max":866.734375,"ha":861,"o":"m 715 962 l 779 1054 l 866 997 l 458 404 l 458 0 l 327 0 l 327 237 l 125 -55 l 37 0 l 326 418 l 326 850 l 22 850 l 22 962 l 715 962 m 455 584 l 638 850 l 455 850 l 455 584 "},"˙":{"x_min":177.796875,"x_max":344.46875,"ha":522,"o":"m 261 852 q 202 875 226 852 q 177 937 177 898 q 202 999 177 976 q 261 1022 226 1022 q 320 999 295 1022 q 344 937 344 976 q 320 875 344 898 q 261 852 295 852 "},"":{"x_min":44.453125,"x_max":430.59375,"ha":499,"o":"m 200 -90 q 301 -67 273 -90 q 329 -8 329 -44 q 316 31 329 15 q 282 58 304 48 q 233 74 261 69 q 176 79 205 79 l 150 79 l 150 158 l 184 158 q 225 161 204 158 q 264 173 247 165 q 293 196 281 181 q 304 231 304 210 q 278 281 304 266 q 212 295 252 295 q 143 282 175 295 q 87 258 111 269 l 52 334 q 121 365 75 349 q 215 381 168 381 q 359 340 316 381 q 401 235 401 299 q 325 124 401 167 q 402 74 373 109 q 430 -9 430 38 q 418 -75 430 -46 q 377 -128 405 -105 q 306 -164 350 -151 q 201 -176 262 -176 q 113 -166 158 -176 q 44 -144 69 -157 l 65 -61 q 129 -81 95 -72 q 200 -90 163 -90 "},"„":{"x_min":45.84375,"x_max":496.078125,"ha":579,"o":"m 243 158 q 243 128 243 143 q 241 100 243 113 q 209 -43 236 27 q 145 -175 183 -113 l 45 -143 q 89 -19 75 -81 q 104 97 104 43 q 103 127 104 111 q 101 158 102 143 l 243 158 m 496 158 q 496 128 496 143 q 494 100 496 113 q 462 -43 489 27 q 398 -175 436 -113 l 298 -143 q 342 -19 328 -81 q 357 97 357 43 q 356 127 357 111 q 354 158 355 143 l 496 158 "},"ӷ":{"x_min":111.125,"x_max":558.375,"ha":581,"o":"m 558 613 l 240 613 l 240 106 l 337 106 l 337 -201 l 215 -201 l 215 0 l 111 0 l 111 722 l 558 722 l 558 613 "},"":{"x_min":34.71875,"x_max":4833.71875,"ha":4877,"o":"m 618 20 q 500 -2 573 9 q 331 -15 427 -15 q 191 9 248 -15 q 100 77 134 33 q 50 182 65 122 q 34 316 34 243 l 34 722 l 163 722 l 163 344 q 205 155 163 212 q 345 98 247 98 q 388 100 366 98 q 431 103 411 101 q 466 107 451 105 q 488 112 481 109 l 488 722 l 618 722 l 618 20 m 925 690 q 996 722 948 705 q 1107 738 1044 738 q 1245 711 1184 738 q 1347 633 1305 683 q 1410 513 1389 583 q 1432 361 1432 444 q 1406 203 1432 273 q 1333 84 1380 133 q 1219 9 1286 36 q 1069 -16 1152 -16 q 909 -4 977 -16 q 795 20 840 8 l 795 1055 l 925 1077 l 925 690 m 925 112 q 979 102 944 106 q 1068 97 1015 97 q 1234 165 1172 97 q 1297 361 1297 234 q 1286 465 1297 416 q 1250 549 1275 513 q 1185 604 1225 584 q 1090 625 1145 625 q 993 606 1037 625 q 925 569 948 588 l 925 112 m 2133 20 q 2016 -2 2089 9 q 1847 -15 1943 -15 q 1707 9 1764 -15 q 1615 77 1650 33 q 1565 182 1580 122 q 1550 316 1550 243 l 1550 722 l 1679 722 l 1679 344 q 1720 155 1679 212 q 1861 98 1762 98 q 1904 100 1882 98 q 1946 103 1926 101 q 1982 107 1966 105 q 2004 112 1997 109 l 2004 722 l 2133 722 l 2133 20 m 2302 701 q 2421 725 2347 712 q 2590 737 2494 737 q 2733 713 2676 737 q 2824 645 2790 688 q 2872 540 2858 601 q 2886 405 2886 479 l 2886 0 l 2757 0 l 2757 377 q 2748 491 2757 444 q 2718 568 2739 538 q 2662 610 2697 597 q 2576 623 2627 623 q 2533 622 2555 623 q 2491 618 2511 620 q 2455 613 2471 616 q 2432 609 2439 611 l 2432 0 l 2302 0 l 2302 701 m 3176 722 l 3450 722 l 3450 613 l 3176 613 l 3176 280 q 3184 190 3176 226 q 3209 135 3193 155 q 3251 106 3226 115 q 3309 98 3276 98 q 3403 111 3368 98 q 3453 130 3439 125 l 3478 23 q 3409 0 3458 13 q 3298 -15 3361 -15 q 3177 3 3225 -15 q 3100 59 3129 22 q 3059 152 3071 97 q 3047 279 3047 206 l 3047 923 l 3176 945 l 3176 722 m 4137 20 q 4020 -2 4093 9 q 3851 -15 3947 -15 q 3711 9 3768 -15 q 3619 77 3654 33 q 3569 182 3585 122 q 3554 316 3554 243 l 3554 722 l 3683 722 l 3683 344 q 3725 155 3683 212 q 3865 98 3766 98 q 3908 100 3886 98 q 3951 103 3930 101 q 3986 107 3971 105 q 4008 112 4001 109 l 4008 722 l 4137 722 l 4137 20 m 4833 777 q 4810 661 4833 715 q 4746 566 4786 607 q 4651 502 4705 526 q 4533 479 4596 479 q 4417 502 4471 479 q 4322 566 4362 526 q 4258 661 4282 607 q 4235 777 4235 715 q 4258 895 4235 840 q 4322 990 4282 950 q 4417 1054 4362 1030 q 4533 1077 4471 1077 q 4651 1054 4596 1077 q 4746 990 4705 1030 q 4810 895 4786 950 q 4833 777 4833 840 m 4330 818 q 4303 806 4315 818 q 4290 777 4290 794 q 4303 750 4290 762 q 4330 738 4315 738 q 4359 750 4347 738 q 4371 777 4371 762 q 4359 806 4371 794 q 4330 818 4347 818 m 4596 600 q 4608 571 4596 581 q 4635 561 4621 561 q 4664 574 4653 561 q 4675 602 4675 587 q 4662 631 4675 622 q 4636 641 4650 641 q 4606 628 4617 641 q 4596 600 4596 615 m 4417 777 q 4430 833 4417 808 q 4468 873 4444 858 l 4437 923 q 4392 878 4411 904 q 4365 820 4373 852 q 4387 777 4387 807 q 4365 734 4387 750 q 4392 677 4373 702 q 4437 633 4411 652 l 4468 683 q 4430 723 4444 698 q 4417 777 4417 748 m 4533 895 q 4613 864 4580 895 q 4650 788 4646 833 l 4707 788 q 4654 901 4703 855 q 4636 898 4643 898 q 4600 911 4617 898 q 4580 945 4583 925 q 4533 951 4560 951 q 4457 933 4492 951 l 4485 884 q 4533 895 4507 895 m 4533 661 q 4485 672 4507 661 l 4457 623 q 4533 605 4492 605 q 4580 611 4560 605 q 4600 645 4583 632 q 4636 658 4617 658 q 4654 655 4643 658 q 4707 768 4703 701 l 4650 768 q 4613 692 4646 723 q 4533 661 4580 661 m 4636 913 q 4662 924 4650 913 q 4675 954 4675 934 q 4664 982 4675 969 q 4635 994 4654 994 q 4607 984 4619 994 q 4594 955 4594 973 q 4608 926 4594 938 q 4636 913 4621 913 "},"δ":{"x_min":70.84375,"x_max":747.28125,"ha":818,"o":"m 418 634 q 261 531 318 607 q 204 351 204 455 q 215 254 204 301 q 252 172 227 208 q 316 116 277 137 q 409 95 355 95 q 497 115 459 95 q 561 168 536 134 q 600 246 587 201 q 613 344 613 291 q 595 453 613 406 q 547 533 576 500 q 484 591 519 566 q 418 634 450 615 m 316 700 q 231 780 263 737 q 198 883 198 823 q 268 1029 198 980 q 459 1077 338 1077 q 531 1072 497 1077 q 593 1059 565 1066 q 642 1042 620 1051 q 676 1027 663 1033 l 647 925 q 623 936 640 929 q 583 952 607 944 q 529 965 559 959 q 465 970 498 970 q 422 968 447 970 q 377 958 398 966 q 341 934 355 950 q 326 891 326 918 q 361 824 326 854 q 459 752 397 794 q 566 677 513 715 q 658 591 618 638 q 722 483 698 544 q 747 337 747 422 q 727 209 747 272 q 667 95 708 145 q 562 13 626 44 q 408 -18 498 -18 q 260 11 323 -18 q 154 90 197 40 q 91 206 112 140 q 70 348 70 273 q 89 468 70 412 q 140 568 108 523 q 218 645 173 612 q 316 700 263 679 "},"Â":{"x_min":11.109375,"x_max":909.796875,"ha":921,"o":"m 762 0 q 718 122 738 62 q 675 245 697 183 l 238 245 l 151 0 l 11 0 q 115 282 66 152 q 210 529 163 412 q 302 752 256 645 q 398 962 348 858 l 522 962 q 618 752 572 858 q 710 529 663 645 q 805 282 757 412 q 909 0 854 152 l 762 0 m 636 356 q 547 591 591 477 q 456 808 504 704 q 364 591 408 704 q 277 356 320 477 l 636 356 m 460 1285 l 649 1086 l 594 1025 l 460 1147 l 325 1025 l 271 1086 l 460 1285 "},"Į":{"x_min":23.609375,"x_max":268.078125,"ha":374,"o":"m 119 962 l 254 962 l 254 0 q 222 -23 238 -11 q 190 -54 206 -36 q 158 -93 170 -76 q 145 -129 145 -109 q 201 -169 145 -169 q 227 -167 211 -169 q 258 -159 243 -165 l 268 -244 q 176 -259 234 -259 q 60 -231 97 -259 q 23 -154 23 -202 q 41 -92 23 -122 q 83 -37 59 -62 q 103 -17 94 -26 q 119 -2 112 -8 l 119 962 "},"ω":{"x_min":79.171875,"x_max":1084.8125,"ha":1164,"o":"m 795 -13 q 661 20 719 -13 q 581 115 604 54 q 502 20 559 54 q 368 -13 444 -13 q 252 5 305 -13 q 161 68 200 25 q 100 181 122 112 q 79 350 79 250 q 93 477 79 416 q 129 587 108 537 q 173 675 150 637 q 216 737 197 713 l 331 697 q 302 649 322 682 q 261 571 281 616 q 226 470 241 526 q 211 351 211 413 q 251 168 211 236 q 370 101 291 101 q 456 133 426 101 q 500 209 486 165 q 516 302 513 254 q 518 381 518 350 l 518 583 l 645 583 l 645 381 q 647 302 645 350 q 663 209 650 254 q 707 133 677 165 q 793 101 737 101 q 912 168 872 101 q 952 351 952 236 q 937 470 952 413 q 902 571 922 526 q 861 649 882 616 q 832 697 841 682 l 947 737 q 989 675 965 713 q 1034 587 1013 637 q 1070 477 1055 537 q 1084 350 1084 416 q 1063 180 1084 250 q 1002 68 1041 111 q 911 5 963 25 q 795 -13 858 -13 "},"´":{"x_min":176.40625,"x_max":437.53125,"ha":522,"o":"m 437 995 l 241 805 l 176 863 l 354 1077 l 437 995 "},"ǥ":{"x_min":70.84375,"x_max":800.0625,"ha":820,"o":"m 563 72 q 499 43 547 61 q 387 26 451 26 q 264 47 322 26 q 163 111 206 68 q 95 220 120 155 q 70 376 70 286 q 94 521 70 455 q 163 635 118 587 q 273 710 208 683 q 420 737 338 737 q 578 724 511 737 q 691 700 645 711 l 691 427 l 800 427 l 800 333 l 691 333 l 691 59 q 605 -181 691 -106 q 344 -256 519 -256 q 215 -245 276 -256 q 111 -219 155 -234 l 134 -106 q 229 -134 173 -122 q 347 -145 286 -145 q 513 -100 462 -145 q 563 45 563 -54 l 563 72 m 562 608 q 510 618 543 613 q 422 623 477 623 q 261 555 318 623 q 205 375 205 487 q 221 268 205 312 q 264 194 237 223 q 327 151 291 165 q 400 137 362 137 q 494 152 451 137 q 562 186 537 166 l 562 333 l 406 333 l 406 427 l 562 427 l 562 608 "},"Ɛ":{"x_min":70.84375,"x_max":754.234375,"ha":795,"o":"m 593 452 l 506 452 q 391 445 444 452 q 297 416 337 437 q 235 360 258 395 q 212 269 212 325 q 278 135 212 175 q 462 95 344 95 q 544 102 505 95 q 615 119 583 109 q 672 140 647 129 q 713 159 698 151 l 754 48 q 711 27 738 40 q 645 4 683 15 q 561 -13 608 -5 q 461 -20 513 -20 q 301 -4 373 -20 q 178 45 229 11 q 99 135 127 80 q 70 266 70 190 q 88 363 70 322 q 134 436 105 405 q 200 488 162 468 q 280 519 238 508 q 156 604 198 545 q 113 729 113 662 q 138 842 113 794 q 208 921 163 890 q 313 968 252 952 q 447 983 375 983 q 532 978 490 983 q 610 965 575 973 q 674 946 645 957 q 719 925 702 936 l 676 815 q 586 850 647 833 q 448 868 525 868 q 306 828 359 868 q 252 726 252 788 q 277 645 252 677 q 341 595 302 613 q 427 569 380 576 q 520 562 475 562 l 593 562 l 593 452 "},"Ƈ":{"x_min":80.5625,"x_max":993.140625,"ha":921,"o":"m 533 -20 q 348 12 431 -20 q 205 109 265 45 q 113 267 145 173 q 80 481 80 361 q 117 696 80 602 q 216 854 154 790 q 362 951 279 918 q 540 984 445 984 q 636 974 597 982 q 708 955 675 966 q 774 1059 730 1027 q 905 1091 818 1091 q 951 1086 925 1091 q 993 1075 977 1082 l 970 976 q 941 983 959 980 q 911 986 922 986 q 850 970 872 986 q 815 930 827 955 q 796 874 802 905 q 782 812 790 843 q 745 827 769 818 q 691 845 722 836 q 625 860 661 854 q 554 866 590 866 q 416 840 477 866 q 312 763 355 813 q 246 642 269 713 q 223 481 223 570 q 243 325 223 395 q 304 203 263 254 q 404 125 344 152 q 545 97 465 97 q 700 116 638 97 q 791 151 761 136 l 826 40 q 791 22 816 33 q 729 2 766 12 q 641 -13 691 -6 q 533 -20 591 -20 "},"Ĉ":{"x_min":80.5625,"x_max":826.453125,"ha":861,"o":"m 533 -20 q 348 12 431 -20 q 205 109 265 45 q 113 267 145 173 q 80 481 80 361 q 117 696 80 602 q 216 854 154 790 q 362 951 279 918 q 540 984 445 984 q 647 976 600 984 q 731 957 695 968 q 788 934 766 945 q 819 918 811 923 l 780 807 q 744 825 768 815 q 691 844 720 834 q 625 860 661 854 q 554 866 590 866 q 416 840 477 866 q 312 763 355 813 q 246 642 269 713 q 223 481 223 570 q 243 325 223 395 q 304 203 263 254 q 404 125 344 152 q 545 97 465 97 q 700 116 638 97 q 791 151 761 136 l 826 40 q 791 22 816 33 q 729 2 766 12 q 641 -13 691 -6 q 533 -20 591 -20 m 510 1285 l 699 1086 l 644 1025 l 510 1147 l 375 1025 l 321 1086 l 510 1285 "},"Љ":{"x_min":18.0625,"x_max":1397.328125,"ha":1449,"o":"m 727 847 l 448 847 q 434 554 443 691 q 387 293 426 418 q 339 175 368 230 q 268 79 311 120 q 168 13 226 38 q 33 -13 111 -11 l 18 102 q 168 163 115 113 q 256 316 222 213 q 306 597 295 434 q 316 962 316 761 l 862 962 l 862 612 q 916 616 887 615 q 969 616 944 616 q 1397 301 1397 616 q 1368 165 1397 223 q 1284 68 1339 106 q 1152 9 1230 29 q 977 -9 1075 -9 q 852 -4 919 -9 q 727 13 786 0 l 727 847 m 1255 301 q 1234 398 1255 359 q 1175 459 1213 437 q 1082 491 1136 481 q 965 500 1029 500 q 914 500 941 500 q 862 497 887 500 l 862 112 q 918 109 886 109 q 988 108 951 108 q 1088 116 1040 108 q 1174 147 1137 125 q 1233 206 1211 169 q 1255 301 1255 243 "},"":{"x_min":33.34375,"x_max":465.3125,"ha":499,"o":"m 395 370 l 395 45 l 465 45 l 465 -36 l 395 -36 l 395 -165 l 301 -165 l 301 -36 l 33 -36 l 33 27 q 83 106 52 62 q 150 198 113 151 q 226 290 186 245 q 306 370 266 335 l 395 370 m 301 255 q 213 154 258 210 q 137 45 169 98 l 301 45 l 301 255 "},"р":{"x_min":111.125,"x_max":747.28125,"ha":818,"o":"m 612 359 q 550 554 612 486 q 383 622 487 622 q 292 618 325 622 q 240 608 259 613 l 240 152 q 308 115 263 133 q 405 97 352 97 q 500 117 461 97 q 565 172 540 137 q 601 256 590 208 q 612 359 612 304 m 747 359 q 725 208 747 277 q 662 88 704 138 q 560 11 620 38 q 422 -16 500 -16 q 311 0 359 -16 q 240 31 263 16 l 240 -256 l 111 -256 l 111 700 q 225 724 156 711 q 384 737 294 737 q 534 711 468 737 q 648 636 601 684 q 721 517 695 587 q 747 359 747 447 "},"т":{"x_min":22.21875,"x_max":620.890625,"ha":643,"o":"m 620 722 l 620 613 l 386 613 l 386 0 l 256 0 l 256 613 l 22 613 l 22 722 l 620 722 "},"П":{"x_min":119.453125,"x_max":851.453125,"ha":971,"o":"m 851 962 l 851 0 l 716 0 l 716 847 l 254 847 l 254 0 l 119 0 l 119 962 l 851 962 "},"Ö":{"x_min":80.5625,"x_max":1000.078125,"ha":1081,"o":"m 80 481 q 117 700 80 605 q 217 857 154 794 q 364 952 280 920 q 543 984 448 984 q 718 952 636 984 q 863 857 801 920 q 963 700 926 794 q 1000 481 1000 605 q 963 263 1000 358 q 863 106 926 169 q 718 11 801 43 q 543 -20 636 -20 q 364 11 448 -20 q 217 106 280 43 q 117 263 154 169 q 80 481 80 358 m 222 481 q 244 322 222 394 q 307 201 266 251 q 407 124 348 151 q 540 97 466 97 q 672 124 613 97 q 771 201 730 151 q 834 322 812 251 q 857 481 857 394 q 834 641 857 569 q 771 762 812 712 q 672 839 730 812 q 540 866 613 866 q 407 839 466 866 q 307 762 348 812 q 244 641 266 712 q 222 481 222 569 m 408 1072 q 351 1095 376 1072 q 327 1154 327 1118 q 351 1213 327 1190 q 408 1236 376 1236 q 464 1213 440 1236 q 488 1154 488 1190 q 464 1095 488 1118 q 408 1072 440 1072 m 672 1072 q 615 1095 640 1072 q 591 1154 591 1118 q 615 1213 591 1190 q 672 1236 640 1236 q 728 1213 704 1236 q 752 1154 752 1190 q 728 1095 752 1118 q 672 1072 704 1072 "},"Θ":{"x_min":80.5625,"x_max":1000.078125,"ha":1081,"o":"m 80 481 q 117 700 80 605 q 217 857 154 794 q 364 952 280 920 q 543 984 448 984 q 718 952 636 984 q 863 857 801 920 q 963 700 926 794 q 1000 481 1000 605 q 963 263 1000 358 q 863 106 926 169 q 718 11 801 43 q 543 -20 636 -20 q 364 11 448 -20 q 217 106 280 43 q 117 263 154 169 q 80 481 80 358 m 222 481 q 244 322 222 394 q 307 201 266 251 q 407 124 348 151 q 540 97 466 97 q 671 124 612 97 q 771 201 730 151 q 834 322 812 251 q 857 481 857 394 q 834 641 857 569 q 771 762 812 712 q 671 839 730 812 q 540 866 612 866 q 407 839 466 866 q 307 762 348 812 q 244 641 266 712 q 222 481 222 569 m 334 540 l 744 540 l 744 429 l 334 429 l 334 540 "},"Ř":{"x_min":119.453125,"x_max":848.671875,"ha":874,"o":"m 590 402 q 646 329 612 375 q 716 229 680 284 q 788 115 752 175 q 848 0 823 55 l 701 0 q 641 106 673 52 q 575 210 608 161 q 509 302 541 259 q 450 377 476 345 q 413 376 431 376 q 375 376 394 376 l 254 376 l 254 0 l 119 0 l 119 948 q 246 967 176 962 q 375 972 316 972 q 684 895 577 972 q 790 668 790 819 q 739 504 790 572 q 590 402 688 436 m 386 854 q 254 850 300 854 l 254 487 l 350 487 q 475 494 419 487 q 568 520 530 501 q 627 575 607 540 q 648 669 648 611 q 627 759 648 723 q 571 816 607 795 q 488 845 536 837 q 386 854 440 854 m 219 1229 l 273 1290 l 408 1168 l 542 1290 l 597 1229 l 408 1030 l 219 1229 "},"ᾝ":{"x_min":-49.78125,"x_max":1688.859375,"ha":1722,"o":"m 1083 962 l 1217 962 l 1217 0 l 1083 0 l 1083 444 l 612 444 l 612 0 l 477 0 l 477 962 l 612 962 l 612 561 l 1083 561 l 1083 962 m 93 699 q 39 745 65 720 q -6 796 12 770 q -37 849 -26 823 q -49 899 -49 876 q -26 963 -49 941 q 30 985 -2 985 q 87 964 65 985 q 108 910 108 942 q 58 839 108 859 q 94 792 73 813 q 143 746 115 770 l 93 699 m 428 919 l 253 699 l 180 752 l 332 988 l 428 919 m 1670 -13 q 1501 37 1551 -11 q 1451 188 1451 86 l 1451 722 l 1580 722 l 1580 209 q 1586 156 1580 177 q 1604 123 1591 136 q 1637 104 1616 111 q 1688 94 1658 98 l 1670 -13 "},"ƴ":{"x_min":4.171875,"x_max":788.953125,"ha":792,"o":"m 695 632 q 636 610 655 632 q 605 547 616 588 q 520 242 565 383 q 422 -22 475 101 q 365 -129 394 -84 q 300 -202 336 -173 q 218 -243 263 -230 q 116 -256 173 -256 q 84 -254 101 -256 q 52 -249 68 -252 q 22 -241 36 -245 q 4 -234 9 -237 l 27 -130 q 67 -143 43 -137 q 115 -150 91 -150 q 181 -142 152 -150 q 234 -118 211 -134 q 275 -74 256 -101 q 311 -9 294 -47 q 147 343 223 155 q 22 722 72 531 l 161 722 q 197 587 176 659 q 245 438 219 515 q 302 285 272 362 q 368 137 333 208 q 402 244 386 191 q 432 350 418 297 q 461 460 447 404 q 490 577 475 516 q 548 697 508 654 q 675 740 588 740 q 731 734 702 740 q 788 719 759 729 l 766 619 q 695 632 741 632 "},"É":{"x_min":119.453125,"x_max":741.71875,"ha":793,"o":"m 119 0 l 119 962 l 707 962 l 707 847 l 254 847 l 254 561 l 657 561 l 657 448 l 254 448 l 254 115 l 741 115 l 741 0 l 119 0 m 612 1212 l 416 1022 l 351 1080 l 529 1294 l 612 1212 "},"ұ":{"x_min":22.21875,"x_max":675.046875,"ha":697,"o":"m 675 722 q 566 388 627 547 q 444 94 505 230 l 602 94 l 602 0 l 412 0 l 412 -256 l 283 -256 l 283 0 l 93 0 l 93 94 l 252 94 q 129 388 191 230 q 22 722 68 545 l 161 722 q 200 577 177 654 q 249 425 223 501 q 301 279 275 350 q 351 154 327 209 q 401 279 375 209 q 453 425 427 350 q 502 577 479 501 q 541 722 525 654 l 675 722 "},"и":{"x_min":111.125,"x_max":718.109375,"ha":829,"o":"m 718 722 l 718 0 l 593 0 l 593 550 q 501 426 551 497 q 401 279 451 355 q 305 130 351 204 q 226 0 259 56 l 111 0 l 111 722 l 236 722 l 236 202 q 318 334 272 262 q 413 475 363 405 q 511 610 462 545 q 604 722 561 675 l 718 722 "},"³":{"x_min":44.453125,"x_max":430.59375,"ha":499,"o":"m 200 512 q 301 535 273 512 q 329 594 329 558 q 316 634 329 618 q 282 661 304 651 q 233 677 261 672 q 176 682 205 682 l 150 682 l 150 761 l 184 761 q 225 764 204 761 q 264 776 247 768 q 293 799 281 784 q 304 834 304 813 q 278 884 304 869 q 212 898 252 898 q 143 885 175 898 q 87 861 111 872 l 52 937 q 121 968 75 952 q 215 984 168 984 q 359 943 316 984 q 401 838 401 902 q 325 727 401 770 q 402 677 373 712 q 430 593 430 641 q 418 527 430 556 q 377 474 405 497 q 306 438 350 451 q 201 426 262 426 q 113 436 158 426 q 44 458 69 445 l 65 541 q 129 521 95 530 q 200 512 163 512 "},"Ӫ":{"x_min":80.5625,"x_max":1000.078125,"ha":1081,"o":"m 80 481 q 117 700 80 605 q 217 857 154 794 q 364 952 280 920 q 543 984 448 984 q 718 952 636 984 q 863 857 801 920 q 963 700 926 794 q 1000 481 1000 605 q 963 263 1000 358 q 863 106 926 169 q 718 11 801 43 q 543 -20 636 -20 q 364 11 448 -20 q 217 106 280 43 q 117 263 154 169 q 80 481 80 358 m 540 97 q 663 120 608 97 q 759 188 719 144 q 824 293 800 231 q 854 433 848 355 l 223 433 q 318 187 236 277 q 540 97 401 97 m 540 866 q 319 779 401 866 q 223 537 237 691 l 854 537 q 822 674 847 613 q 757 777 798 734 q 661 843 716 820 q 540 866 607 866 m 408 1072 q 351 1095 376 1072 q 327 1154 327 1118 q 351 1213 327 1190 q 408 1236 376 1236 q 464 1213 440 1236 q 488 1154 488 1190 q 464 1095 488 1118 q 408 1072 440 1072 m 672 1072 q 615 1095 640 1072 q 591 1154 591 1118 q 615 1213 591 1190 q 672 1236 640 1236 q 728 1213 704 1236 q 752 1154 752 1190 q 728 1095 752 1118 q 672 1072 704 1072 "},"[":{"x_min":133.34375,"x_max":445.875,"ha":457,"o":"m 133 1087 l 445 1087 l 445 986 l 254 986 l 254 -155 l 445 -155 l 445 -256 l 133 -256 l 133 1087 "},"ζ":{"x_min":72.234375,"x_max":634.765625,"ha":615,"o":"m 634 -73 q 613 -175 634 -126 q 566 -261 591 -225 l 455 -226 q 470 -200 461 -216 q 487 -164 479 -183 q 502 -125 495 -145 q 508 -86 508 -104 q 468 -19 508 -38 q 338 15 429 0 q 218 50 268 27 q 135 111 168 73 q 87 201 102 148 q 72 326 72 254 q 113 525 72 429 q 214 704 155 622 q 336 853 273 787 q 443 959 400 919 l 113 959 l 113 1068 l 609 1068 l 609 968 q 536 900 579 940 q 450 812 494 861 q 361 707 405 763 q 283 588 318 650 q 227 462 248 527 q 205 331 205 397 q 217 244 205 280 q 252 184 229 208 q 313 144 276 159 q 404 120 351 129 q 583 54 531 98 q 634 -73 634 9 "},"":{"x_min":55.5625,"x_max":1163.640625,"ha":1214,"o":"m 441 595 q 386 474 441 522 q 213 426 330 426 q 124 436 169 426 q 55 458 79 445 l 76 541 q 132 522 97 533 q 211 512 168 512 q 313 536 284 512 q 341 593 341 561 q 329 636 341 616 q 289 668 318 655 q 213 689 261 682 q 94 697 166 697 q 110 837 104 766 q 119 973 116 908 l 419 973 l 419 886 l 202 886 q 198 830 200 858 q 191 773 197 802 q 381 721 322 766 q 441 595 441 676 m 935 962 l 392 0 l 272 0 l 815 962 l 935 962 m 1163 322 q 1067 83 1163 166 q 791 0 971 0 l 788 84 q 962 120 890 87 q 1053 219 1034 153 q 1000 203 1026 208 q 952 199 974 199 q 862 213 899 199 q 801 251 824 227 q 768 306 778 276 q 758 370 758 337 q 769 432 758 401 q 804 490 780 463 q 865 533 828 516 q 952 549 902 549 q 1110 489 1056 549 q 1163 322 1163 428 m 960 281 q 1015 285 988 281 q 1067 297 1042 288 q 1045 420 1070 373 q 953 467 1020 467 q 909 458 927 467 q 879 435 891 449 q 862 403 867 420 q 858 372 858 387 q 960 281 858 281 "},"ῇ":{"x_min":111.125,"x_max":694.5,"ha":797,"o":"m 111 701 q 229 725 155 712 q 398 737 302 737 q 541 713 484 737 q 632 645 598 688 q 680 540 666 601 q 694 405 694 479 l 694 -256 l 565 -256 l 565 377 q 556 491 565 444 q 526 568 547 538 q 470 610 505 597 q 384 623 436 623 q 341 622 363 623 q 299 618 319 620 q 263 613 279 616 q 240 609 247 611 l 240 0 l 111 0 l 111 701 m 403 1040 q 476 1027 442 1040 q 536 989 511 1013 q 575 929 561 965 q 587 847 589 893 l 504 847 q 498 880 503 862 q 482 913 493 898 q 451 937 471 927 q 403 947 432 947 q 354 937 373 947 q 323 913 335 927 q 307 880 312 898 q 301 847 303 862 l 218 847 q 230 929 217 893 q 269 989 244 965 q 329 1027 294 1013 q 403 1040 364 1040 m 242 -87 q 248 -136 242 -118 q 265 -163 254 -154 q 294 -175 276 -172 q 332 -177 311 -177 l 332 -255 q 313 -259 328 -258 q 280 -261 298 -261 q 217 -252 247 -261 q 165 -223 187 -243 q 130 -173 143 -204 q 117 -98 117 -143 q 117 -85 117 -94 q 118 -69 117 -76 l 242 -69 l 242 -87 "},"Ἅ":{"x_min":-49.78125,"x_max":1033.796875,"ha":1045,"o":"m 886 0 q 842 122 862 62 q 799 245 821 183 l 362 245 l 275 0 l 135 0 q 239 282 190 152 q 334 529 287 412 q 426 752 380 645 q 522 962 472 858 l 646 962 q 742 752 696 858 q 834 529 787 645 q 929 282 881 412 q 1033 0 978 152 l 886 0 m 760 356 q 671 591 715 477 q 580 808 628 704 q 488 591 532 704 q 401 356 444 477 l 760 356 m 93 699 q 39 745 65 720 q -6 796 12 770 q -37 849 -26 823 q -49 899 -49 876 q -26 963 -49 941 q 30 985 -2 985 q 87 964 65 985 q 108 910 108 942 q 58 839 108 859 q 94 792 73 813 q 143 746 115 770 l 93 699 m 428 919 l 253 699 l 180 752 l 332 988 l 428 919 "},"Ρ":{"x_min":119.453125,"x_max":795.890625,"ha":845,"o":"m 375 972 q 686 895 577 972 q 795 665 795 818 q 766 522 795 581 q 679 427 736 463 q 543 373 623 390 q 361 356 462 356 l 254 356 l 254 0 l 119 0 l 119 948 q 246 967 176 962 q 375 972 316 972 m 386 854 q 254 850 300 854 l 254 472 l 355 472 q 480 481 425 472 q 574 511 536 490 q 633 570 612 533 q 654 666 654 608 q 632 758 654 722 q 574 816 611 794 q 488 845 537 837 q 386 854 440 854 "},"ῌ":{"x_min":119.453125,"x_max":1330.859375,"ha":1364,"o":"m 725 962 l 859 962 l 859 0 l 725 0 l 725 444 l 254 444 l 254 0 l 119 0 l 119 962 l 254 962 l 254 561 l 725 561 l 725 962 m 1312 -13 q 1143 37 1193 -11 q 1093 188 1093 86 l 1093 722 l 1222 722 l 1222 209 q 1228 156 1222 177 q 1246 123 1233 136 q 1279 104 1258 111 q 1330 94 1300 98 l 1312 -13 "},"ᾎ":{"x_min":-61.609375,"x_max":1271.859375,"ha":1306,"o":"m 762 0 q 718 122 738 62 q 675 245 697 183 l 238 245 l 151 0 l 11 0 q 115 282 66 152 q 210 529 163 412 q 302 752 256 645 q 398 962 348 858 l 522 962 q 618 752 572 858 q 710 529 663 645 q 805 282 757 412 q 909 0 854 152 l 762 0 m 636 356 q 547 591 591 477 q 456 808 504 704 q 364 591 408 704 q 277 356 320 477 l 636 356 m 12 696 q 89 767 68 737 q 63 794 74 778 q 52 828 52 810 q 69 874 52 853 q 125 895 87 895 q 179 876 157 895 q 200 814 200 856 q 187 764 200 788 q 151 720 173 741 q 102 681 130 699 q 50 649 75 663 l 12 696 m 123 1074 q 192 1063 159 1074 q 251 1030 225 1052 q 292 977 277 1009 q 307 903 307 945 l 307 901 l 234 901 q 205 961 231 933 q 123 989 178 989 q 41 961 67 989 q 12 901 14 933 l -61 901 l -61 903 q -46 977 -61 945 q -5 1030 -31 1009 q 53 1063 20 1052 q 123 1074 87 1074 m 1253 -13 q 1084 37 1134 -11 q 1034 188 1034 86 l 1034 722 l 1163 722 l 1163 209 q 1169 156 1163 177 q 1187 123 1174 136 q 1220 104 1199 111 q 1271 94 1241 98 l 1253 -13 "},"ª":{"x_min":52.78125,"x_max":466.703125,"ha":540,"o":"m 272 543 q 333 544 302 543 q 370 548 363 545 l 370 687 q 331 691 355 690 q 286 693 308 693 q 238 690 262 693 q 194 679 213 687 q 162 656 175 670 q 150 619 150 641 q 182 560 150 577 q 272 543 215 543 m 262 980 q 358 966 319 980 q 421 927 397 952 q 456 867 445 902 q 466 787 466 832 l 466 476 q 376 463 433 469 q 262 456 319 456 q 178 466 216 456 q 112 494 140 475 q 68 544 84 513 q 52 619 52 575 q 70 693 52 662 q 119 742 88 723 q 190 769 150 761 q 275 777 230 777 q 318 776 294 777 q 370 770 341 775 l 370 775 q 366 816 370 795 q 350 853 362 837 q 315 879 337 869 q 256 890 293 890 q 186 886 225 890 q 120 872 148 882 l 106 959 q 175 973 133 966 q 262 980 218 980 "},"Ἓ":{"x_min":-49.890625,"x_max":1072.71875,"ha":1124,"o":"m 450 0 l 450 962 l 1038 962 l 1038 847 l 585 847 l 585 561 l 988 561 l 988 448 l 585 448 l 585 115 l 1072 115 l 1072 0 l 450 0 m 93 699 q 39 745 65 720 q -6 796 12 770 q -38 849 -26 823 q -49 899 -49 876 q -26 963 -49 941 q 30 985 -2 985 q 86 964 65 985 q 108 910 108 942 q 58 839 108 859 q 94 792 73 813 q 143 746 115 770 l 93 699 m 248 988 l 400 752 l 327 699 l 152 919 l 248 988 "},"ї":{"x_min":-34.390625,"x_max":390.65625,"ha":351,"o":"m 240 0 l 111 0 l 111 722 l 240 722 l 240 0 m 46 855 q -10 878 14 855 q -34 937 -34 901 q -10 996 -34 973 q 46 1019 14 1019 q 102 996 78 1019 q 126 937 126 973 q 102 878 126 901 q 46 855 78 855 m 310 855 q 253 878 278 855 q 229 937 229 901 q 253 996 229 973 q 310 1019 278 1019 q 366 996 342 1019 q 390 937 390 973 q 366 878 390 901 q 310 855 342 855 "},"ﬀ":{"x_min":111.125,"x_max":1090.65625,"ha":1078,"o":"m 393 1077 q 491 1069 450 1077 q 548 1054 531 1061 l 525 943 q 477 959 508 951 q 402 966 447 966 q 276 917 312 966 q 240 784 240 868 l 240 722 l 518 722 l 518 613 l 240 613 l 240 0 l 111 0 l 111 787 q 179 1002 111 926 q 393 1077 247 1077 m 935 1077 q 1033 1069 992 1077 q 1090 1054 1073 1061 l 1067 943 q 1019 959 1050 951 q 944 966 989 966 q 818 917 854 966 q 782 784 782 868 l 782 722 l 1060 722 l 1060 613 l 782 613 l 782 0 l 653 0 l 653 787 q 721 1002 653 926 q 935 1077 789 1077 "},"š":{"x_min":55.5625,"x_max":565.328125,"ha":620,"o":"m 279 93 q 396 113 358 93 q 434 180 434 134 q 397 255 434 227 q 273 318 359 283 q 193 352 231 334 q 127 393 155 369 q 83 450 100 416 q 66 531 66 483 q 137 684 66 627 q 330 740 208 740 q 391 736 361 740 q 448 728 422 733 q 495 718 475 723 q 526 708 515 712 l 502 597 q 437 620 481 608 q 330 632 393 632 q 236 610 276 632 q 195 543 195 588 q 204 501 195 519 q 232 468 213 483 q 279 441 251 454 q 345 415 306 429 q 437 377 397 395 q 506 333 477 358 q 550 272 534 308 q 565 186 565 237 q 491 34 565 86 q 279 -16 416 -16 q 129 0 183 -16 q 55 23 75 15 l 79 134 q 150 109 101 126 q 279 93 198 93 m 121 1012 l 175 1073 l 310 951 l 444 1073 l 499 1012 l 310 813 l 121 1012 "},"₮":{"x_min":55.5625,"x_max":729.21875,"ha":783,"o":"m 729 962 l 729 851 l 455 851 l 455 638 l 616 715 l 658 627 l 455 531 l 455 372 l 616 448 l 658 361 l 455 265 l 455 0 l 329 0 l 329 212 l 168 137 l 126 225 l 329 319 l 329 479 l 168 404 l 126 491 l 329 586 l 329 851 l 55 851 l 55 962 l 729 962 "},"Ƕ":{"x_min":119.453125,"x_max":1365.390625,"ha":1468,"o":"m 119 962 l 254 962 l 254 559 l 725 559 l 725 962 l 859 962 l 859 359 q 902 160 859 223 q 1045 97 944 97 q 1189 160 1147 97 q 1232 359 1232 223 l 1232 722 l 1365 722 l 1365 331 q 1351 190 1365 255 q 1301 79 1337 126 q 1203 5 1265 31 q 1045 -20 1141 -20 q 889 5 951 -20 q 791 79 827 31 q 739 190 754 126 q 725 331 725 255 l 725 447 l 254 447 l 254 0 l 119 0 l 119 962 "},"1":{"x_min":129.171875,"x_max":512.546875,"ha":783,"o":"m 129 763 q 283 842 208 794 q 420 962 358 890 l 512 962 l 512 0 l 383 0 l 383 783 q 342 751 366 768 q 289 719 318 734 q 229 690 261 704 q 169 666 198 676 l 129 763 "},"ҍ":{"x_min":19.453125,"x_max":693.109375,"ha":728,"o":"m 19 662 l 122 662 l 122 758 l 250 758 l 250 662 l 461 662 l 461 572 l 250 572 l 250 437 q 318 447 273 443 q 405 451 363 451 q 514 438 462 451 q 606 399 566 426 q 669 328 645 372 q 693 222 693 284 q 670 111 693 156 q 606 38 647 66 q 507 -2 565 11 q 381 -15 450 -15 q 250 -7 316 -15 q 122 15 184 0 l 122 572 l 19 572 l 19 662 m 386 348 q 313 347 348 348 q 250 338 277 345 l 250 97 q 274 94 258 95 q 309 92 290 93 q 347 90 327 91 q 381 90 366 90 q 514 120 466 90 q 562 220 562 150 q 547 279 562 255 q 507 319 531 304 q 451 341 483 334 q 386 348 419 348 "},"ℓ":{"x_min":8.328125,"x_max":593.109375,"ha":625,"o":"m 150 354 l 150 755 q 168 913 150 851 q 219 1012 187 976 q 292 1063 251 1048 q 379 1077 333 1077 q 474 1055 437 1077 q 531 999 511 1033 q 559 922 552 965 q 566 840 566 880 q 545 699 566 766 q 487 570 525 632 q 396 450 450 508 q 277 338 343 393 l 277 277 q 310 136 277 181 q 413 91 343 91 q 488 108 458 91 q 541 143 518 125 l 593 47 q 508 -2 558 16 q 391 -20 458 -20 q 276 0 322 -20 q 202 55 230 20 q 161 136 173 90 q 150 231 150 181 l 150 243 l 58 177 l 8 251 l 150 354 m 277 454 q 416 629 365 534 q 466 841 466 723 q 463 888 466 865 q 451 929 461 911 q 425 960 441 948 q 381 972 408 972 q 342 963 361 972 q 309 932 323 955 q 286 868 294 909 q 277 761 277 827 l 277 454 "},"Ǜ":{"x_min":112.515625,"x_max":843.125,"ha":956,"o":"m 477 -20 q 313 8 383 -20 q 200 88 244 37 q 134 208 155 138 q 112 358 112 277 l 112 962 l 247 962 l 247 373 q 311 163 247 229 q 477 98 375 98 q 571 114 529 98 q 644 163 613 130 q 691 249 675 197 q 708 373 708 301 l 708 962 l 843 962 l 843 358 q 821 208 843 277 q 754 88 800 138 q 641 8 709 37 q 477 -20 572 -20 m 417 1336 l 550 1140 l 487 1087 l 333 1263 l 417 1336 m 289 1037 q 235 1058 257 1037 q 214 1113 214 1079 q 235 1169 214 1148 q 289 1190 257 1190 q 342 1169 321 1190 q 364 1113 364 1148 q 342 1058 364 1079 q 289 1037 321 1037 m 667 1037 q 613 1058 635 1037 q 592 1113 592 1079 q 613 1169 592 1148 q 667 1190 635 1190 q 719 1169 697 1190 q 742 1113 742 1148 q 719 1058 742 1079 q 667 1037 697 1037 "},"ǒ":{"x_min":70.84375,"x_max":748.671875,"ha":820,"o":"m 748 361 q 723 205 748 275 q 653 86 698 136 q 545 9 608 36 q 409 -18 483 -18 q 273 9 336 -18 q 165 86 211 36 q 95 205 120 136 q 70 361 70 275 q 95 516 70 445 q 165 636 120 586 q 273 713 211 686 q 409 740 336 740 q 545 713 483 740 q 653 636 608 686 q 723 516 698 586 q 748 361 748 445 m 613 361 q 559 554 613 483 q 409 626 504 626 q 260 554 315 626 q 205 361 205 483 q 260 167 205 238 q 409 95 315 95 q 559 167 504 95 q 613 361 613 238 m 221 1012 l 275 1073 l 410 951 l 544 1073 l 599 1012 l 410 813 l 221 1012 "},"ἥ":{"x_min":111.125,"x_max":694.5,"ha":797,"o":"m 111 701 q 229 725 155 712 q 398 737 302 737 q 541 713 484 737 q 632 645 598 688 q 680 540 666 601 q 694 405 694 479 l 694 -256 l 565 -256 l 565 377 q 556 491 565 444 q 526 568 547 538 q 470 610 505 597 q 384 623 436 623 q 341 622 363 623 q 299 618 319 620 q 263 613 279 616 q 240 609 247 611 l 240 0 l 111 0 l 111 701 m 314 798 q 260 844 286 819 q 214 895 233 869 q 183 948 194 922 q 171 998 171 975 q 194 1062 171 1040 q 251 1084 218 1084 q 308 1063 286 1084 q 329 1009 329 1041 q 279 938 329 958 q 315 891 294 912 q 364 845 336 869 l 314 798 m 649 1018 l 474 798 l 401 851 l 553 1087 l 649 1018 "},"ӡ":{"x_min":-4.171875,"x_max":598.65625,"ha":654,"o":"m 166 305 q 231 381 197 340 q 299 466 266 423 q 359 546 331 508 q 406 613 387 584 l 27 613 l 27 722 l 566 722 l 566 647 q 518 574 547 615 q 456 488 490 533 q 386 397 423 443 q 315 313 350 352 q 425 287 373 305 q 516 238 477 269 q 576 159 554 206 q 598 43 598 111 q 572 -88 598 -31 q 499 -181 547 -144 q 384 -238 451 -219 q 236 -256 318 -256 q 95 -244 159 -256 q -4 -213 30 -231 l 23 -102 q 112 -130 55 -118 q 234 -143 169 -143 q 406 -93 347 -143 q 466 45 466 -44 q 443 134 466 100 q 381 187 419 168 q 293 213 343 206 q 190 220 243 220 l 166 220 l 166 305 "},"ī":{"x_min":-21.109375,"x_max":373.375,"ha":351,"o":"m 240 0 l 111 0 l 111 722 l 240 722 l 240 0 m -21 987 l 373 987 l 373 887 l -21 887 l -21 987 "},"ӹ":{"x_min":111.125,"x_max":941.734375,"ha":1053,"o":"m 376 356 q 303 354 338 356 q 240 345 268 352 l 240 97 q 264 94 248 95 q 299 92 280 93 q 337 90 318 91 q 372 90 356 90 q 502 122 456 90 q 548 225 548 154 q 534 284 548 259 q 495 325 519 309 q 440 349 470 341 q 376 356 409 356 m 111 722 l 240 722 l 240 445 q 309 456 263 451 q 395 462 354 462 q 504 449 452 462 q 594 407 555 436 q 656 334 633 379 q 679 226 679 288 q 656 115 679 161 q 594 40 634 69 q 497 -2 554 11 q 372 -15 440 -15 q 240 -7 306 -15 q 111 15 173 0 l 111 722 m 941 0 l 812 0 l 812 722 l 941 722 l 941 0 m 394 855 q 337 878 362 855 q 313 937 313 901 q 337 996 313 973 q 394 1019 362 1019 q 450 996 426 1019 q 474 937 474 973 q 450 878 474 901 q 394 855 426 855 m 658 855 q 601 878 626 855 q 577 937 577 901 q 601 996 577 973 q 658 1019 626 1019 q 714 996 690 1019 q 738 937 738 973 q 714 878 738 901 q 658 855 690 855 "},"G":{"x_min":80.5625,"x_max":841.734375,"ha":933,"o":"m 707 473 l 841 473 l 841 23 q 793 11 825 18 q 721 -2 762 4 q 631 -14 680 -9 q 533 -19 583 -19 q 348 13 431 -19 q 205 111 265 47 q 113 268 145 175 q 80 481 80 361 q 117 696 80 602 q 216 854 154 790 q 363 951 279 918 q 543 984 447 984 q 659 976 608 984 q 745 957 709 968 q 804 934 782 945 q 836 918 827 923 l 793 805 q 686 849 752 832 q 550 866 619 866 q 416 840 476 866 q 313 763 355 813 q 247 642 270 713 q 223 481 223 570 q 243 325 223 395 q 304 203 263 254 q 406 125 345 152 q 548 97 466 97 q 647 103 607 97 q 707 115 688 109 l 707 473 "},"`":{"x_min":84.734375,"x_max":345.859375,"ha":522,"o":"m 168 1077 l 345 863 l 280 805 l 84 995 l 168 1077 "},"ŏ":{"x_min":70.84375,"x_max":748.671875,"ha":820,"o":"m 748 361 q 723 205 748 275 q 653 86 698 136 q 545 9 608 36 q 409 -18 483 -18 q 273 9 336 -18 q 165 86 211 36 q 95 205 120 136 q 70 361 70 275 q 95 516 70 445 q 165 636 120 586 q 273 713 211 686 q 409 740 336 740 q 545 713 483 740 q 653 636 608 686 q 723 516 698 586 q 748 361 748 445 m 613 361 q 559 554 613 483 q 409 626 504 626 q 260 554 315 626 q 205 361 205 483 q 260 167 205 238 q 409 95 315 95 q 559 167 504 95 q 613 361 613 238 m 409 847 q 336 860 370 847 q 276 897 302 873 q 237 958 250 922 q 224 1040 223 994 l 307 1040 q 314 1007 309 1025 q 330 974 319 988 q 360 950 341 959 q 409 940 380 940 q 457 950 438 940 q 488 974 477 959 q 504 1007 499 988 q 510 1040 509 1025 l 594 1040 q 581 958 595 994 q 541 897 567 922 q 482 860 516 873 q 409 847 448 847 "},"ý":{"x_min":2.78125,"x_max":665.328125,"ha":690,"o":"m 26 -134 q 65 -147 41 -141 q 113 -154 90 -154 q 233 -120 190 -154 q 311 -9 276 -86 q 147 343 223 156 q 22 722 72 530 l 161 722 q 197 587 176 659 q 245 438 219 515 q 302 286 272 362 q 366 138 333 209 q 458 427 419 284 q 531 722 497 570 l 665 722 q 554 329 615 518 q 422 -22 493 141 q 364 -129 394 -84 q 298 -204 334 -175 q 217 -247 262 -233 q 115 -261 172 -261 q 83 -259 100 -261 q 50 -253 66 -256 q 21 -245 34 -250 q 2 -238 8 -241 l 26 -134 m 530 995 l 334 805 l 269 863 l 447 1077 l 530 995 "},"º":{"x_min":59.734375,"x_max":559.765625,"ha":620,"o":"m 559 719 q 541 611 559 659 q 488 527 522 562 q 409 474 455 493 q 309 455 363 455 q 209 474 255 455 q 130 527 163 493 q 78 611 97 562 q 59 719 59 659 q 78 828 59 779 q 130 911 97 877 q 209 964 163 945 q 309 983 255 983 q 409 964 363 983 q 488 911 455 945 q 541 828 522 877 q 559 719 559 779 m 456 719 q 418 843 456 797 q 309 890 380 890 q 201 843 240 890 q 162 719 162 797 q 200 595 162 643 q 309 548 238 548 q 418 595 380 548 q 456 719 456 643 "},"ȑ":{"x_min":27.78125,"x_max":522.265625,"ha":536,"o":"m 377 737 q 416 735 394 737 q 458 729 437 733 q 496 722 479 726 q 522 716 513 719 l 500 604 q 449 617 484 609 q 358 625 413 625 q 286 617 322 625 q 240 607 251 609 l 240 0 l 111 0 l 111 691 q 225 722 156 708 q 377 737 293 737 m 334 1077 l 494 855 l 427 805 l 256 1000 l 334 1077 m 105 1077 l 265 855 l 198 805 l 27 1000 l 105 1077 "},"Ί":{"x_min":-42.59375,"x_max":422.1875,"ha":542,"o":"m 218 896 l 22 706 l -42 764 l 135 978 l 218 896 m 287 962 l 422 962 l 422 0 l 287 0 l 287 962 "},"ӛ":{"x_min":75,"x_max":705.609375,"ha":776,"o":"m 705 363 q 677 196 705 268 q 604 77 650 125 q 498 6 558 30 q 376 -16 438 -16 q 153 75 231 -16 q 75 351 75 166 l 75 384 q 76 397 75 391 l 570 397 q 504 567 562 508 q 327 626 447 626 q 213 614 259 626 q 143 591 166 602 l 125 700 q 207 726 148 712 q 341 740 266 740 q 504 711 436 740 q 618 633 573 683 q 684 513 662 583 q 705 363 705 444 m 209 293 q 253 149 208 205 q 377 93 298 93 q 456 110 422 93 q 513 155 490 127 q 550 219 536 183 q 568 293 563 255 l 209 293 m 247 855 q 190 878 215 855 q 166 937 166 901 q 190 996 166 973 q 247 1019 215 1019 q 303 996 279 1019 q 327 937 327 973 q 303 878 327 901 q 247 855 279 855 m 511 855 q 454 878 479 855 q 430 937 430 901 q 454 996 430 973 q 511 1019 479 1019 q 567 996 543 1019 q 591 937 591 973 q 567 878 591 901 q 511 855 543 855 "},"ń":{"x_min":111.125,"x_max":694.5,"ha":797,"o":"m 111 701 q 229 725 155 712 q 398 737 302 737 q 541 713 484 737 q 632 645 598 688 q 680 540 666 601 q 694 405 694 479 l 694 0 l 565 0 l 565 377 q 556 491 565 444 q 526 568 547 538 q 470 610 505 597 q 384 623 436 623 q 341 622 363 623 q 299 618 319 620 q 263 613 279 616 q 240 609 247 611 l 240 0 l 111 0 l 111 701 m 570 995 l 374 805 l 309 863 l 487 1077 l 570 995 "},"ἒ":{"x_min":76.390625,"x_max":666.71875,"ha":699,"o":"m 405 740 q 472 736 438 740 q 534 727 505 733 q 584 716 562 722 q 616 705 605 711 l 597 595 q 570 604 590 598 q 523 617 550 611 q 466 627 497 623 q 408 632 436 632 q 281 607 333 632 q 230 530 230 583 q 244 477 230 497 q 279 445 258 456 q 326 431 300 434 q 377 427 352 427 l 501 427 l 501 326 l 375 326 q 312 320 343 326 q 258 300 281 313 q 220 264 234 287 q 206 208 206 241 q 397 93 206 93 q 475 98 437 93 q 543 112 512 104 q 597 129 575 120 q 632 143 620 137 l 666 36 q 627 20 654 29 q 565 2 601 11 q 482 -11 529 -5 q 381 -16 436 -16 q 277 -7 331 -16 q 179 25 223 1 q 105 91 134 48 q 76 202 76 134 q 111 306 76 258 q 202 379 145 355 q 170 399 187 384 q 137 434 152 413 q 112 479 122 454 q 102 533 102 504 q 124 623 102 584 q 185 688 145 662 q 281 727 225 715 q 405 740 337 740 m 144 845 q 192 891 172 869 q 228 938 213 912 q 178 1009 178 958 q 200 1063 178 1041 q 256 1084 222 1084 q 313 1062 290 1084 q 337 998 337 1040 q 325 948 337 975 q 293 895 313 922 q 247 844 273 869 q 194 798 222 819 l 144 845 m 470 1087 l 622 851 l 549 798 l 374 1018 l 470 1087 "},"ἑ":{"x_min":76.390625,"x_max":666.71875,"ha":699,"o":"m 405 740 q 472 736 438 740 q 534 727 505 733 q 584 716 562 722 q 616 705 605 711 l 597 595 q 570 604 590 598 q 523 617 550 611 q 466 627 497 623 q 408 632 436 632 q 281 607 333 632 q 230 530 230 583 q 244 477 230 497 q 279 445 258 456 q 326 431 300 434 q 377 427 352 427 l 501 427 l 501 326 l 375 326 q 312 320 343 326 q 258 300 281 313 q 220 264 234 287 q 206 208 206 241 q 397 93 206 93 q 475 98 437 93 q 543 112 512 104 q 597 129 575 120 q 632 143 620 137 l 666 36 q 627 20 654 29 q 565 2 601 11 q 482 -11 529 -5 q 381 -16 436 -16 q 277 -7 331 -16 q 179 25 223 1 q 105 91 134 48 q 76 202 76 134 q 111 306 76 258 q 202 379 145 355 q 170 399 187 384 q 137 434 152 413 q 112 479 122 454 q 102 533 102 504 q 124 623 102 584 q 185 688 145 662 q 281 727 225 715 q 405 740 337 740 m 416 798 q 358 844 386 819 q 311 895 331 869 q 277 948 290 922 q 265 998 265 975 q 290 1062 265 1040 q 351 1084 315 1084 q 408 1063 386 1084 q 431 1009 431 1041 q 417 967 431 986 q 379 938 402 948 q 416 891 394 912 q 466 845 438 869 l 416 798 "},"Ь":{"x_min":119.453125,"x_max":804.234375,"ha":856,"o":"m 804 301 q 691 68 804 145 q 375 -9 579 -9 q 247 -4 316 -9 q 119 13 177 0 l 119 962 l 254 962 l 254 612 q 310 616 281 615 q 366 616 338 616 q 804 301 804 616 m 662 301 q 640 398 662 359 q 578 459 618 437 q 484 491 538 481 q 362 500 429 500 q 309 500 336 500 q 254 497 281 500 l 254 112 q 310 109 279 109 q 386 108 341 108 q 490 116 440 108 q 578 147 540 125 q 639 206 616 169 q 662 301 662 243 "},"ƽ":{"x_min":38.890625,"x_max":627.828125,"ha":689,"o":"m 627 208 q 546 43 627 104 q 309 -16 465 -16 q 231 -11 270 -16 q 157 0 191 -6 q 98 12 123 5 q 63 23 73 19 l 87 131 q 117 121 95 127 q 168 108 138 115 q 234 96 198 101 q 306 91 269 91 q 452 121 405 91 q 498 208 498 151 q 484 274 498 247 q 436 318 470 301 q 343 342 401 334 q 195 350 284 350 l 126 350 q 141 490 136 427 q 151 619 147 552 l 38 619 l 38 722 l 597 722 l 597 619 l 263 619 q 261 579 262 602 q 257 532 259 556 q 252 486 255 508 q 248 450 250 465 l 277 450 q 421 436 356 450 q 531 392 486 422 q 602 316 577 362 q 627 208 627 270 "},"ᾯ":{"x_min":-61.609375,"x_max":1598.859375,"ha":1632,"o":"m 702 984 q 873 954 791 984 q 1017 866 955 925 q 1115 719 1078 807 q 1152 516 1152 632 q 1137 391 1152 451 q 1096 280 1121 331 q 1040 186 1071 229 q 976 113 1008 144 l 1174 113 l 1174 0 l 803 0 l 803 94 q 885 172 846 129 q 951 266 923 215 q 994 379 978 318 q 1010 516 1010 441 q 988 663 1010 598 q 926 774 966 729 q 828 843 885 819 q 702 866 771 866 q 576 843 633 866 q 478 774 519 819 q 416 663 438 729 q 394 516 394 598 q 410 379 394 441 q 453 266 426 318 q 519 172 481 215 q 601 94 556 129 l 601 0 l 230 0 l 230 113 l 428 113 q 364 186 396 144 q 308 280 333 229 q 267 391 283 331 q 252 516 252 451 q 289 719 252 632 q 387 866 326 807 q 530 954 449 925 q 702 984 612 984 m 195 649 q 143 681 170 663 q 94 720 116 699 q 59 764 73 741 q 45 814 45 788 q 66 876 45 856 q 120 895 88 895 q 176 874 159 895 q 193 828 193 853 q 182 794 193 810 q 156 767 171 778 q 234 696 177 737 l 195 649 m 123 1074 q 192 1063 159 1074 q 251 1030 225 1052 q 292 977 277 1009 q 307 903 307 945 l 307 901 l 234 901 q 205 961 231 933 q 123 989 178 989 q 41 961 67 989 q 12 901 14 933 l -61 901 l -61 903 q -46 977 -61 945 q -5 1030 -31 1009 q 53 1063 20 1052 q 123 1074 87 1074 m 1580 -13 q 1411 37 1461 -11 q 1361 188 1361 86 l 1361 722 l 1490 722 l 1490 209 q 1496 156 1490 177 q 1514 123 1501 136 q 1547 104 1526 111 q 1598 94 1568 98 l 1580 -13 "},"¤":{"x_min":61.109375,"x_max":722.28125,"ha":783,"o":"m 123 481 q 162 629 123 566 l 61 732 l 141 812 l 244 708 q 391 748 309 748 q 537 708 473 748 l 641 812 l 722 732 l 619 629 q 649 561 638 598 q 659 481 659 525 q 649 401 659 437 q 619 334 638 365 l 722 231 l 641 151 l 537 254 q 391 215 470 215 q 313 225 351 215 q 244 254 276 234 l 141 151 l 61 231 l 162 333 q 123 481 123 395 m 555 481 q 542 552 555 520 q 506 607 529 584 q 454 642 484 630 q 391 654 425 654 q 328 642 358 654 q 276 607 298 630 q 240 552 254 584 q 227 481 227 520 q 240 410 227 441 q 276 356 254 379 q 328 321 298 333 q 391 309 358 309 q 454 321 425 309 q 506 356 484 333 q 542 410 529 379 q 555 481 555 441 "},"Ǣ":{"x_min":8.328125,"x_max":1247.328125,"ha":1299,"o":"m 1212 850 l 794 850 l 794 559 l 1162 559 l 1162 450 l 794 450 l 794 112 l 1247 112 l 1247 0 l 661 0 l 661 247 l 281 247 q 215 124 248 186 q 152 0 183 62 l 8 0 q 163 282 87 150 q 311 533 238 415 q 453 757 383 651 q 593 962 523 863 l 1212 962 l 1212 850 m 661 857 q 508 630 587 757 q 344 356 429 504 l 661 356 l 661 857 m 606 1204 l 1001 1204 l 1001 1104 l 606 1104 l 606 1204 "},"Ɨ":{"x_min":19.453125,"x_max":431.984375,"ha":451,"o":"m 19 554 l 158 554 l 158 962 l 293 962 l 293 554 l 431 554 l 431 450 l 293 450 l 293 0 l 158 0 l 158 450 l 19 450 l 19 554 "},"p":{"x_min":111.125,"x_max":747.28125,"ha":818,"o":"m 612 359 q 550 554 612 486 q 383 622 487 622 q 292 618 325 622 q 240 608 259 613 l 240 152 q 308 115 263 133 q 405 97 352 97 q 500 117 461 97 q 565 172 540 137 q 601 256 590 208 q 612 359 612 304 m 747 359 q 725 208 747 277 q 662 88 704 138 q 560 11 620 38 q 422 -16 500 -16 q 311 0 359 -16 q 240 31 263 16 l 240 -256 l 111 -256 l 111 700 q 225 724 156 711 q 384 737 294 737 q 534 711 468 737 q 648 636 601 684 q 721 517 695 587 q 747 359 747 447 "},"Ἤ":{"x_min":-56.5,"x_max":1180.796875,"ha":1300,"o":"m 1046 962 l 1180 962 l 1180 0 l 1046 0 l 1046 444 l 575 444 l 575 0 l 440 0 l 440 962 l 575 962 l 575 561 l 1046 561 l 1046 962 m -56 746 q -7 792 -28 770 q 28 839 12 813 q -21 910 -21 859 q 0 964 -21 942 q 56 985 21 985 q 112 963 89 985 q 136 899 136 941 q 124 849 136 876 q 92 796 112 823 q 46 745 72 770 q -6 699 21 720 l -56 746 m 390 919 l 215 699 l 143 752 l 294 988 l 390 919 "},"ο":{"x_min":70.84375,"x_max":748.671875,"ha":820,"o":"m 748 361 q 723 205 748 275 q 653 86 698 136 q 545 9 608 36 q 409 -18 483 -18 q 273 9 336 -18 q 165 86 211 36 q 95 205 120 136 q 70 361 70 275 q 95 516 70 445 q 165 636 120 586 q 273 713 211 686 q 409 740 336 740 q 545 713 483 740 q 653 636 608 686 q 723 516 698 586 q 748 361 748 445 m 613 361 q 559 554 613 483 q 409 626 504 626 q 260 554 315 626 q 205 361 205 483 q 260 167 205 238 q 409 95 315 95 q 559 167 504 95 q 613 361 613 238 "},"ɉ":{"x_min":-58.34375,"x_max":384.75,"ha":404,"o":"m 29 -259 q -13 -255 12 -259 q -58 -244 -40 -251 l -41 -138 q -9 -145 -27 -143 q 23 -148 8 -148 q 118 -107 90 -148 q 147 12 147 -66 l 147 333 l 19 333 l 19 430 l 147 430 l 147 722 l 276 722 l 276 430 l 384 430 l 384 333 l 276 333 l 276 13 q 213 -192 276 -125 q 29 -259 151 -259 m 211 852 q 152 875 176 852 q 127 937 127 898 q 152 999 127 976 q 211 1022 176 1022 q 270 999 245 1022 q 294 937 294 976 q 270 875 294 898 q 211 852 245 852 "},"Ӭ":{"x_min":34.71875,"x_max":780.625,"ha":861,"o":"m 780 481 q 747 270 780 363 q 655 111 715 176 q 513 13 595 47 q 329 -20 430 -20 q 220 -13 270 -20 q 132 2 170 -6 q 69 22 94 12 q 34 40 44 33 l 69 151 q 160 116 100 136 q 312 97 220 97 q 445 121 387 97 q 543 190 502 145 q 607 296 584 234 q 636 434 630 358 l 211 434 l 211 548 l 633 548 q 603 679 626 620 q 540 779 580 737 q 443 843 500 820 q 312 866 386 866 q 161 847 220 866 q 72 813 102 829 l 37 920 q 71 938 47 927 q 133 960 95 950 q 220 977 170 970 q 327 984 269 984 q 512 950 429 984 q 655 852 595 916 q 747 694 715 787 q 780 481 780 601 m 215 1072 q 158 1095 183 1072 q 134 1154 134 1118 q 158 1213 134 1190 q 215 1236 183 1236 q 271 1213 247 1236 q 295 1154 295 1190 q 271 1095 295 1118 q 215 1072 247 1072 m 479 1072 q 422 1095 447 1072 q 398 1154 398 1118 q 422 1213 398 1190 q 479 1236 447 1236 q 535 1213 511 1236 q 559 1154 559 1190 q 535 1095 559 1118 q 479 1072 511 1072 "},"῭":{"x_min":-13.890625,"x_max":536.15625,"ha":522,"o":"m 245 1083 l 369 845 l 297 802 l 152 1023 l 245 1083 m 61 862 q 7 883 29 862 q -13 938 -13 904 q 7 994 -13 973 q 61 1015 29 1015 q 114 994 93 1015 q 136 938 136 973 q 114 883 136 904 q 61 862 93 862 m 461 862 q 407 883 429 862 q 386 938 386 904 q 407 994 386 973 q 461 1015 429 1015 q 513 994 491 1015 q 536 938 536 973 q 513 883 536 904 q 461 862 491 862 "},"ђ":{"x_min":8.328125,"x_max":694.5,"ha":793,"o":"m 111 0 l 111 852 l 8 852 l 8 948 l 111 948 l 111 1055 l 240 1077 l 240 948 l 486 948 l 486 852 l 240 852 l 240 704 q 317 725 276 718 q 398 733 358 733 q 541 709 484 733 q 632 641 598 684 q 680 536 666 597 q 694 401 694 475 l 694 0 q 685 -112 694 -63 q 653 -193 676 -161 q 590 -243 630 -226 q 487 -259 550 -259 q 442 -256 468 -259 q 401 -248 416 -252 l 413 -147 q 443 -152 425 -151 q 473 -154 462 -154 q 545 -120 525 -154 q 565 -23 565 -86 l 565 373 q 556 487 565 440 q 526 563 547 534 q 470 606 505 593 q 384 619 436 619 q 341 616 363 619 q 299 610 319 613 q 263 602 279 607 q 240 595 247 598 l 240 0 l 111 0 "},"y":{"x_min":2.78125,"x_max":665.328125,"ha":690,"o":"m 26 -134 q 65 -147 41 -141 q 113 -154 90 -154 q 233 -120 190 -154 q 311 -9 276 -86 q 147 343 223 156 q 22 722 72 530 l 161 722 q 197 587 176 659 q 245 438 219 515 q 302 286 272 362 q 366 138 333 209 q 458 427 419 284 q 531 722 497 570 l 665 722 q 554 329 615 518 q 422 -22 493 141 q 364 -129 394 -84 q 298 -204 334 -175 q 217 -247 262 -233 q 115 -261 172 -261 q 83 -259 100 -261 q 50 -253 66 -256 q 21 -245 34 -250 q 2 -238 8 -241 l 26 -134 "},"ƅ":{"x_min":27.78125,"x_max":809.78125,"ha":861,"o":"m 668 301 q 645 398 668 359 q 584 459 623 437 q 489 491 544 481 q 368 500 434 500 q 314 500 341 500 q 259 497 287 500 l 259 112 q 294 109 275 111 q 335 108 311 108 q 391 108 359 108 q 495 116 445 108 q 584 147 545 125 q 645 206 622 169 q 668 301 668 243 m 259 612 q 315 616 287 615 q 372 616 344 616 q 809 301 809 616 q 696 68 809 145 q 380 -9 583 -9 q 252 -4 322 -9 q 125 13 181 0 l 125 770 l 27 876 q 136 930 77 905 q 259 972 195 955 l 259 612 "},"ë":{"x_min":70.84375,"x_max":701.4375,"ha":776,"o":"m 70 359 q 98 527 70 455 q 172 645 126 598 q 277 716 218 693 q 400 740 337 740 q 623 649 545 740 q 701 372 701 558 q 701 350 701 363 q 700 326 701 337 l 205 326 q 270 155 213 213 q 448 97 327 97 q 563 109 516 97 q 633 131 609 120 l 651 23 q 568 -2 627 11 q 434 -16 509 -16 q 271 11 340 -16 q 158 90 202 40 q 92 209 113 140 q 70 359 70 277 m 566 430 q 522 574 568 518 q 398 630 477 630 q 320 613 354 630 q 262 568 286 595 q 225 504 238 540 q 208 430 212 468 l 566 430 m 265 855 q 208 878 233 855 q 184 937 184 901 q 208 996 184 973 q 265 1019 233 1019 q 321 996 297 1019 q 345 937 345 973 q 321 878 345 901 q 265 855 297 855 m 529 855 q 472 878 497 855 q 448 937 448 901 q 472 996 448 973 q 529 1019 497 1019 q 585 996 561 1019 q 609 937 609 973 q 585 878 609 901 q 529 855 561 855 "},"б":{"x_min":86.125,"x_max":754.234375,"ha":826,"o":"m 227 638 q 328 692 270 673 q 438 711 386 711 q 674 616 594 711 q 754 351 754 520 q 734 212 754 279 q 674 94 715 145 q 570 12 633 43 q 422 -18 508 -18 q 258 18 323 -18 q 154 116 193 54 q 101 262 116 179 q 86 438 86 345 q 103 663 86 559 q 166 847 120 768 q 293 978 212 926 q 502 1048 375 1030 q 568 1057 540 1054 q 618 1063 597 1061 q 658 1070 640 1066 q 695 1077 676 1073 l 709 961 q 689 957 700 958 q 660 952 679 955 q 610 945 641 950 q 529 936 579 941 q 318 852 391 920 q 227 638 244 784 m 219 418 q 228 294 219 352 q 260 191 237 236 q 322 121 283 147 q 422 95 361 95 q 512 115 475 95 q 573 170 550 136 q 608 252 597 205 q 619 351 619 298 q 610 443 619 398 q 577 522 601 487 q 514 577 554 556 q 415 598 475 598 q 303 573 356 598 q 220 512 250 548 q 219 469 219 497 q 219 418 219 441 "},"ȟ":{"x_min":73.28125,"x_max":694.5,"ha":793,"o":"m 111 0 l 111 1055 l 240 1077 l 240 708 q 317 729 276 722 q 398 737 358 737 q 541 713 484 737 q 632 645 598 688 q 680 540 666 601 q 694 405 694 479 l 694 0 l 565 0 l 565 377 q 556 491 565 444 q 526 568 547 538 q 470 610 505 597 q 384 623 436 623 q 341 620 363 623 q 299 614 319 618 q 263 606 279 611 q 240 600 247 602 l 240 0 l 111 0 m 73 1273 l 113 1336 l 244 1251 l 374 1336 l 414 1273 l 244 1141 l 73 1273 "},"ӌ":{"x_min":63.890625,"x_max":629.21875,"ha":740,"o":"m 193 722 l 193 509 q 234 395 193 427 q 348 362 276 362 q 436 368 401 362 q 500 380 472 373 l 500 722 l 629 722 l 629 0 l 525 0 l 525 -201 l 402 -201 l 402 106 l 500 106 l 500 280 q 470 273 488 277 q 429 265 452 269 q 381 259 406 262 q 333 256 356 256 q 224 269 273 256 q 139 311 175 281 q 84 388 104 340 q 63 508 63 436 l 63 722 l 193 722 "},"Ȥ":{"x_min":45.84375,"x_max":744.5,"ha":796,"o":"m 730 855 q 613 715 682 802 q 470 525 544 627 q 327 313 397 422 q 206 112 256 205 l 744 112 l 744 0 q 736 -112 744 -63 q 705 -193 727 -161 q 643 -243 683 -226 q 540 -259 602 -259 q 495 -256 520 -259 q 454 -248 469 -252 l 466 -147 q 496 -152 477 -151 q 526 -154 515 -154 q 596 -120 577 -154 q 615 -23 615 -86 l 615 0 l 45 0 l 45 90 q 114 212 75 145 q 199 349 154 279 q 293 490 244 419 q 389 626 341 561 q 482 749 437 691 q 566 850 527 807 l 70 850 l 70 962 l 730 962 l 730 855 "},"ц":{"x_min":111.125,"x_max":784.78125,"ha":814,"o":"m 687 106 l 784 106 l 784 -201 l 662 -201 l 662 0 l 111 0 l 111 722 l 240 722 l 240 106 l 558 106 l 558 722 l 687 722 l 687 106 "},"w":{"x_min":25,"x_max":1054.25,"ha":1079,"o":"m 701 0 q 618 228 662 100 q 538 495 575 356 q 459 228 502 356 q 377 0 416 100 l 265 0 q 140 326 201 143 q 25 722 79 509 l 163 722 q 197 580 177 657 q 238 427 216 504 q 283 280 259 351 q 327 156 306 209 q 374 295 351 222 q 418 442 397 368 q 457 588 438 516 q 490 722 476 659 l 597 722 q 627 588 609 659 q 666 442 645 516 q 710 295 687 368 q 757 156 733 222 q 800 280 777 209 q 845 427 823 351 q 887 580 868 504 q 920 722 907 657 l 1054 722 q 938 326 1000 509 q 813 0 877 143 l 701 0 "},"о":{"x_min":70.84375,"x_max":748.671875,"ha":820,"o":"m 748 361 q 723 205 748 275 q 653 86 698 136 q 545 9 608 36 q 409 -18 483 -18 q 273 9 336 -18 q 165 86 211 36 q 95 205 120 136 q 70 361 70 275 q 95 516 70 445 q 165 636 120 586 q 273 713 211 686 q 409 740 336 740 q 545 713 483 740 q 653 636 608 686 q 723 516 698 586 q 748 361 748 445 m 613 361 q 559 554 613 483 q 409 626 504 626 q 260 554 315 626 q 205 361 205 483 q 260 167 205 238 q 409 95 315 95 q 559 167 504 95 q 613 361 613 238 "},"Д":{"x_min":22.21875,"x_max":979.25,"ha":1004,"o":"m 150 0 l 150 -256 l 22 -256 l 22 115 l 123 115 q 232 293 194 195 q 288 500 270 391 q 309 726 305 609 q 313 962 312 843 l 858 962 l 858 115 l 979 115 l 979 -256 l 851 -256 l 851 0 l 150 0 m 445 847 q 436 660 441 755 q 416 471 431 565 q 369 287 400 377 q 283 115 338 197 l 723 115 l 723 847 l 445 847 "},"":{"x_min":51.390625,"x_max":448.640625,"ha":499,"o":"m 131 604 q 155 726 137 662 q 200 848 173 789 q 260 960 227 908 q 326 1050 293 1012 l 51 1050 l 51 1140 l 448 1140 l 448 1064 q 384 985 419 1035 q 318 874 350 936 q 263 743 287 812 q 234 604 240 673 l 131 604 "},"ӣ":{"x_min":111.125,"x_max":718.109375,"ha":829,"o":"m 718 722 l 718 0 l 593 0 l 593 550 q 501 426 551 497 q 401 279 451 355 q 305 130 351 204 q 226 0 259 56 l 111 0 l 111 722 l 236 722 l 236 202 q 318 334 272 262 q 413 475 363 405 q 511 610 462 545 q 604 722 561 675 l 718 722 m 220 987 l 615 987 l 615 887 l 220 887 l 220 987 "},"Ӂ":{"x_min":33.34375,"x_max":1225.09375,"ha":1257,"o":"m 430 511 q 338 618 388 559 q 236 738 287 677 q 138 857 186 798 q 52 962 90 915 l 209 962 q 282 870 240 923 q 372 760 325 818 q 470 643 420 702 q 563 533 519 584 l 563 962 l 693 962 l 693 533 q 785 643 736 584 q 882 761 834 702 q 973 871 930 819 q 1047 962 1016 923 l 1202 962 q 1117 857 1165 915 q 1018 738 1069 798 q 918 619 968 677 q 826 512 868 561 q 937 400 882 462 q 1045 272 993 338 q 1143 136 1097 205 q 1225 0 1188 66 l 1072 0 q 987 128 1034 63 q 890 253 940 193 q 789 366 840 313 q 693 459 738 419 l 693 0 l 563 0 l 563 459 q 466 366 518 419 q 365 253 415 313 q 268 128 315 193 q 184 0 222 63 l 33 0 q 113 136 68 66 q 211 272 159 205 q 320 400 263 338 q 430 511 376 461 m 629 1055 q 487 1100 542 1055 q 421 1224 432 1144 l 519 1250 q 557 1178 531 1205 q 629 1150 583 1150 q 701 1178 675 1150 q 739 1250 728 1205 l 836 1224 q 771 1100 825 1144 q 629 1055 717 1055 "},"Ὁ":{"x_min":-49.828125,"x_max":1064.078125,"ha":1145,"o":"m 144 481 q 181 700 144 605 q 281 857 218 794 q 428 952 344 920 q 607 984 512 984 q 782 952 700 984 q 927 857 865 920 q 1027 700 990 794 q 1064 481 1064 605 q 1027 263 1064 358 q 927 106 990 169 q 782 11 865 43 q 607 -20 700 -20 q 428 11 512 -20 q 281 106 344 43 q 181 263 218 169 q 144 481 144 358 m 286 481 q 308 322 286 394 q 371 201 330 251 q 471 124 412 151 q 604 97 530 97 q 736 124 677 97 q 835 201 794 151 q 898 322 876 251 q 921 481 921 394 q 898 641 921 569 q 835 762 876 712 q 736 839 794 812 q 604 866 677 866 q 471 839 530 866 q 371 762 412 812 q 308 641 330 712 q 286 481 286 569 m 101 699 q 43 745 71 720 q -3 796 16 770 q -37 849 -24 823 q -49 899 -49 876 q -24 963 -49 941 q 36 985 0 985 q 93 964 71 985 q 116 910 116 942 q 102 868 116 887 q 64 839 87 849 q 101 792 79 813 q 151 746 123 770 l 101 699 "},"Ĵ":{"x_min":11.109375,"x_max":703.03125,"ha":695,"o":"m 581 309 q 567 180 581 240 q 516 75 552 120 q 417 4 479 30 q 262 -20 355 -20 q 175 -13 215 -20 q 104 6 136 -5 q 48 31 72 18 q 11 56 25 44 l 63 163 q 139 120 93 143 q 255 97 186 97 q 401 147 355 97 q 447 322 447 198 l 447 962 l 581 962 l 581 309 m 514 1285 l 703 1086 l 648 1025 l 514 1147 l 379 1025 l 325 1086 l 514 1285 "},"Ҕ":{"x_min":119.453125,"x_max":813.953125,"ha":867,"o":"m 813 176 q 788 7 813 86 q 716 -129 763 -70 q 599 -222 668 -188 q 441 -256 530 -256 q 400 -256 422 -256 q 362 -252 379 -255 l 366 -143 q 386 -145 375 -144 q 418 -145 398 -145 q 520 -124 473 -145 q 602 -61 568 -102 q 655 38 636 -20 q 675 176 675 98 q 603 412 675 334 q 419 490 531 490 q 322 481 370 490 q 254 468 273 473 l 254 0 l 119 0 l 119 962 l 693 962 l 693 847 l 254 847 l 254 579 q 286 587 266 583 q 331 595 306 591 q 383 602 356 600 q 433 605 409 605 q 599 575 527 605 q 718 488 670 544 q 790 353 766 433 q 813 176 813 273 "},"ô":{"x_min":70.84375,"x_max":748.671875,"ha":820,"o":"m 748 361 q 723 205 748 275 q 653 86 698 136 q 545 9 608 36 q 409 -18 483 -18 q 273 9 336 -18 q 165 86 211 36 q 95 205 120 136 q 70 361 70 275 q 95 516 70 445 q 165 636 120 586 q 273 713 211 686 q 409 740 336 740 q 545 713 483 740 q 653 636 608 686 q 723 516 698 586 q 748 361 748 445 m 613 361 q 559 554 613 483 q 409 626 504 626 q 260 554 315 626 q 205 361 205 483 q 260 167 205 238 q 409 95 315 95 q 559 167 504 95 q 613 361 613 238 m 410 1068 l 599 869 l 544 808 l 410 930 l 275 808 l 221 869 l 410 1068 "},"ҝ":{"x_min":111.125,"x_max":840.34375,"ha":860,"o":"m 419 581 l 419 431 q 555 593 498 522 q 659 722 612 663 l 801 722 q 738 646 773 687 q 666 561 704 605 q 591 475 629 518 q 518 393 552 431 q 604 305 559 352 q 691 207 648 258 q 772 103 733 156 q 840 0 811 50 l 695 0 q 634 88 668 41 q 563 180 600 136 q 490 265 527 225 q 419 334 452 305 l 419 175 l 325 175 l 325 333 l 240 333 l 240 0 l 111 0 l 111 722 l 240 722 l 240 422 l 325 422 l 325 581 l 419 581 "},"г":{"x_min":111.125,"x_max":558.375,"ha":581,"o":"m 558 613 l 240 613 l 240 0 l 111 0 l 111 722 l 558 722 l 558 613 "},"Ŀ":{"x_min":119.453125,"x_max":698.671875,"ha":721,"o":"m 698 116 l 698 0 l 119 0 l 119 962 l 254 962 l 254 116 l 698 116 m 549 419 q 490 442 514 419 q 465 504 465 465 q 490 566 465 543 q 549 589 514 589 q 608 566 583 589 q 632 504 632 543 q 608 442 632 465 q 549 419 583 419 "},"ᾄ":{"x_min":70.84375,"x_max":812.5625,"ha":842,"o":"m 437 737 q 516 733 476 737 q 590 722 555 729 q 653 709 625 716 q 700 694 682 701 l 700 229 q 706 164 700 188 q 725 125 712 140 q 760 104 738 111 q 812 94 782 98 l 794 -13 q 689 4 732 -13 q 620 56 647 23 q 531 7 586 30 q 402 -15 477 -15 q 259 12 320 -15 q 155 90 197 40 q 92 209 113 140 q 70 359 70 277 q 96 517 70 447 q 170 636 122 587 q 286 711 218 684 q 437 737 354 737 m 412 97 q 513 115 469 97 q 579 151 556 134 q 570 234 570 188 l 570 605 q 522 616 559 609 q 443 622 486 622 q 268 554 331 622 q 205 359 205 486 q 216 256 205 304 q 252 172 227 208 q 317 117 277 137 q 412 97 356 97 m 248 845 q 297 891 276 869 q 333 938 317 912 q 283 1009 283 958 q 304 1063 283 1041 q 361 1084 326 1084 q 417 1062 394 1084 q 441 998 441 1040 q 429 948 441 975 q 397 895 417 922 q 351 844 377 869 q 298 798 326 819 l 248 845 m 695 1018 l 520 798 l 448 851 l 599 1087 l 695 1018 m 483 -87 q 489 -136 483 -118 q 506 -163 495 -154 q 535 -175 517 -172 q 573 -177 552 -177 l 573 -255 q 554 -259 569 -258 q 521 -261 539 -261 q 458 -252 488 -261 q 406 -223 428 -243 q 371 -173 384 -204 q 358 -98 358 -143 q 358 -85 358 -94 q 359 -69 358 -76 l 483 -69 l 483 -87 "},"ᾙ":{"x_min":-49.828125,"x_max":1417.859375,"ha":1452,"o":"m 813 962 l 947 962 l 947 0 l 813 0 l 813 444 l 342 444 l 342 0 l 207 0 l 207 962 l 342 962 l 342 561 l 813 561 l 813 962 m 101 699 q 43 745 71 720 q -3 796 16 770 q -37 849 -24 823 q -49 899 -49 876 q -24 963 -49 941 q 36 985 0 985 q 93 964 71 985 q 116 910 116 942 q 102 868 116 887 q 64 839 87 849 q 101 792 79 813 q 151 746 123 770 l 101 699 m 1399 -13 q 1230 37 1280 -11 q 1180 188 1180 86 l 1180 722 l 1309 722 l 1309 209 q 1315 156 1309 177 q 1333 123 1320 136 q 1366 104 1345 111 q 1417 94 1387 98 l 1399 -13 "},"Ἇ":{"x_min":-61.609375,"x_max":923.796875,"ha":935,"o":"m 776 0 q 732 122 752 62 q 689 245 711 183 l 252 245 l 165 0 l 25 0 q 129 282 80 152 q 224 529 177 412 q 316 752 270 645 q 412 962 362 858 l 536 962 q 632 752 586 858 q 724 529 677 645 q 819 282 771 412 q 923 0 868 152 l 776 0 m 650 356 q 561 591 605 477 q 470 808 518 704 q 378 591 422 704 q 291 356 334 477 l 650 356 m 195 649 q 143 681 170 663 q 94 720 116 699 q 59 764 73 741 q 45 814 45 788 q 66 876 45 856 q 120 895 88 895 q 176 874 159 895 q 193 828 193 853 q 182 794 193 810 q 156 767 171 778 q 234 696 177 737 l 195 649 m 123 1074 q 192 1063 159 1074 q 251 1030 225 1052 q 292 977 277 1009 q 307 903 307 945 l 307 901 l 234 901 q 205 961 231 933 q 123 989 178 989 q 41 961 67 989 q 12 901 14 933 l -61 901 l -61 903 q -46 977 -61 945 q -5 1030 -31 1009 q 53 1063 20 1052 q 123 1074 87 1074 "},"Ἃ":{"x_min":-57.890625,"x_max":1052.796875,"ha":1064,"o":"m 905 0 q 861 122 881 62 q 818 245 840 183 l 381 245 l 294 0 l 154 0 q 258 282 209 152 q 353 529 306 412 q 445 752 399 645 q 541 962 491 858 l 665 962 q 761 752 715 858 q 853 529 806 645 q 948 282 900 412 q 1052 0 997 152 l 905 0 m 779 356 q 690 591 734 477 q 599 808 647 704 q 507 591 551 704 q 420 356 463 477 l 779 356 m 85 699 q 31 745 57 720 q -14 796 4 770 q -46 849 -34 823 q -57 899 -57 876 q -34 963 -57 941 q 22 985 -10 985 q 78 964 57 985 q 100 910 100 942 q 50 839 100 859 q 86 792 65 813 q 135 746 107 770 l 85 699 m 240 988 l 392 752 l 319 699 l 144 919 l 240 988 "},"Ǟ":{"x_min":11.109375,"x_max":909.796875,"ha":921,"o":"m 762 0 q 718 122 738 62 q 675 245 697 183 l 238 245 l 151 0 l 11 0 q 115 282 66 152 q 210 529 163 412 q 302 752 256 645 q 398 962 348 858 l 522 962 q 618 752 572 858 q 710 529 663 645 q 805 282 757 412 q 909 0 854 152 l 762 0 m 636 356 q 547 591 591 477 q 456 808 504 704 q 364 591 408 704 q 277 356 320 477 l 636 356 m 319 1037 q 266 1058 287 1037 q 244 1113 244 1079 q 266 1169 244 1148 q 319 1190 287 1190 q 373 1169 351 1190 q 394 1113 394 1148 q 373 1058 394 1079 q 319 1037 351 1037 m 600 1037 q 546 1058 568 1037 q 525 1113 525 1079 q 546 1169 525 1148 q 600 1190 568 1190 q 653 1169 630 1190 q 675 1113 675 1148 q 653 1058 675 1079 q 600 1037 630 1037 m 283 1335 l 636 1335 l 636 1247 l 283 1247 l 283 1335 "},"\t":{"x_min":0,"x_max":0,"ha":321},"ь":{"x_min":111.125,"x_max":691.71875,"ha":733,"o":"m 384 90 q 513 122 466 90 q 561 225 561 154 q 547 284 561 259 q 509 325 533 309 q 452 349 484 341 q 384 356 420 356 q 307 354 347 356 q 240 345 268 352 l 240 97 q 265 94 248 95 q 302 92 281 93 q 343 90 322 91 q 384 90 365 90 m 111 15 l 111 722 l 240 722 l 240 445 q 270 451 251 448 q 310 456 288 454 q 355 461 331 459 q 400 462 379 462 q 512 449 459 462 q 604 407 565 436 q 668 334 644 379 q 691 226 691 288 q 669 115 691 161 q 605 40 647 69 q 506 -2 563 11 q 377 -15 448 -15 q 241 -7 308 -15 q 111 15 175 0 "},"Җ":{"x_min":33.34375,"x_max":1270.9375,"ha":1279,"o":"m 1202 962 q 1116 857 1165 915 q 1016 739 1068 800 q 916 620 965 679 q 827 512 866 562 q 999 327 913 431 q 1155 115 1084 223 l 1270 115 l 1270 -256 l 1143 -256 l 1143 0 l 1072 0 q 987 128 1034 63 q 890 253 940 193 q 789 366 840 313 q 693 459 738 419 l 693 0 l 563 0 l 563 459 q 466 366 518 419 q 365 253 415 313 q 268 128 315 193 q 184 0 222 63 l 33 0 q 114 135 68 66 q 212 270 161 204 q 319 399 263 337 q 429 511 375 461 q 341 619 390 561 q 240 738 291 677 q 139 857 188 798 q 52 962 90 915 l 209 962 q 284 871 240 923 q 375 761 327 819 q 472 645 423 704 q 563 533 520 586 l 563 962 l 693 962 l 693 533 q 784 645 736 586 q 881 761 833 704 q 972 871 929 819 q 1047 962 1015 923 l 1202 962 "},"ὑ":{"x_min":102.78125,"x_max":697.28125,"ha":800,"o":"m 400 -15 q 252 11 309 -15 q 161 84 194 38 q 115 187 127 129 q 102 306 102 245 l 102 722 l 231 722 l 231 325 q 274 152 231 202 q 400 101 316 101 q 525 152 483 101 q 568 325 568 202 l 568 722 l 697 722 l 697 306 q 684 187 697 245 q 638 84 672 129 q 547 11 605 38 q 400 -15 490 -15 m 440 798 q 382 844 410 819 q 335 895 355 869 q 301 948 314 922 q 289 998 289 975 q 314 1062 289 1040 q 375 1084 339 1084 q 432 1063 410 1084 q 455 1009 455 1041 q 441 967 455 986 q 403 938 426 948 q 440 891 418 912 q 490 845 462 869 l 440 798 "},"€":{"x_min":62.5,"x_max":765.34375,"ha":783,"o":"m 190 655 q 316 899 222 818 q 558 980 411 980 q 659 973 619 980 q 740 952 700 965 l 712 841 q 639 861 679 854 q 558 869 600 869 q 466 854 505 869 q 397 811 426 838 q 351 743 369 783 q 323 655 333 704 l 647 655 l 627 555 l 309 555 q 308 519 308 537 q 308 481 308 501 q 308 447 308 463 q 309 415 308 430 l 600 415 l 580 315 l 320 315 q 406 143 344 191 q 561 94 468 94 q 661 105 619 94 q 737 131 704 116 l 765 22 q 683 -4 741 9 q 554 -18 625 -18 q 302 70 391 -18 q 187 315 213 158 l 62 315 l 62 415 l 176 415 q 175 447 175 430 q 175 481 175 463 q 175 519 175 501 q 176 555 175 537 l 62 555 l 62 655 l 190 655 "},"ƶ":{"x_min":50,"x_max":601.4375,"ha":654,"o":"m 590 626 q 517 545 562 597 q 420 426 472 493 l 576 426 l 576 334 l 351 334 q 270 218 309 276 q 198 105 230 159 l 601 105 l 601 0 l 50 0 l 50 80 q 121 202 79 137 q 212 334 163 268 l 90 334 l 90 426 l 280 426 q 362 531 323 483 q 431 616 401 580 l 69 616 l 69 722 l 590 722 l 590 626 "},"Ὦ":{"x_min":-61.609375,"x_max":1134.75,"ha":1207,"o":"m 662 984 q 833 954 751 984 q 977 866 915 925 q 1075 719 1038 807 q 1112 516 1112 632 q 1097 391 1112 451 q 1056 280 1081 331 q 1000 186 1031 229 q 936 113 968 144 l 1134 113 l 1134 0 l 763 0 l 763 94 q 845 172 806 129 q 911 266 883 215 q 954 379 938 318 q 970 516 970 441 q 948 663 970 598 q 886 774 926 729 q 788 843 845 819 q 662 866 731 866 q 536 843 593 866 q 438 774 479 819 q 376 663 398 729 q 354 516 354 598 q 370 379 354 441 q 413 266 386 318 q 479 172 441 215 q 561 94 516 129 l 561 0 l 190 0 l 190 113 l 388 113 q 324 186 356 144 q 268 280 293 229 q 227 391 243 331 q 212 516 212 451 q 249 719 212 632 q 347 866 286 807 q 490 954 409 925 q 662 984 572 984 m 12 696 q 89 767 68 737 q 63 794 74 778 q 52 828 52 810 q 69 874 52 853 q 125 895 87 895 q 179 876 157 895 q 200 814 200 856 q 187 764 200 788 q 151 720 173 741 q 102 681 130 699 q 50 649 75 663 l 12 696 m 123 1074 q 192 1063 159 1074 q 251 1030 225 1052 q 292 977 277 1009 q 307 903 307 945 l 307 901 l 234 901 q 205 961 231 933 q 123 989 178 989 q 41 961 67 989 q 12 901 14 933 l -61 901 l -61 903 q -46 977 -61 945 q -5 1030 -31 1009 q 53 1063 20 1052 q 123 1074 87 1074 "},"Ἀ":{"x_min":11.109375,"x_max":909.796875,"ha":921,"o":"m 762 0 q 718 122 738 62 q 675 245 697 183 l 238 245 l 151 0 l 11 0 q 115 282 66 152 q 210 529 163 412 q 302 752 256 645 q 398 962 348 858 l 522 962 q 618 752 572 858 q 710 529 663 645 q 805 282 757 412 q 909 0 854 152 l 762 0 m 636 356 q 547 591 591 477 q 456 808 504 704 q 364 591 408 704 q 277 356 320 477 l 636 356 m 77 746 q 127 792 105 770 q 165 839 149 813 q 126 868 141 849 q 112 910 112 887 q 135 964 112 942 q 192 985 158 985 q 254 963 229 985 q 279 899 279 941 q 266 849 279 876 q 233 796 254 823 q 185 745 212 770 q 127 699 158 720 l 77 746 "},"С":{"x_min":80.5625,"x_max":826.453125,"ha":861,"o":"m 533 -20 q 348 12 431 -20 q 205 109 265 45 q 113 267 145 173 q 80 481 80 361 q 117 696 80 602 q 216 854 154 790 q 362 951 279 918 q 540 984 445 984 q 647 976 600 984 q 731 957 695 968 q 788 934 766 945 q 819 918 811 923 l 780 807 q 744 825 768 815 q 691 844 720 834 q 625 860 661 854 q 554 866 590 866 q 416 840 477 866 q 312 763 355 813 q 246 642 269 713 q 223 481 223 570 q 243 325 223 395 q 304 203 263 254 q 404 125 344 152 q 545 97 465 97 q 700 116 638 97 q 791 151 761 136 l 826 40 q 791 22 816 33 q 729 2 766 12 q 641 -13 691 -6 q 533 -20 591 -20 "},"ß":{"x_min":111.125,"x_max":809.78125,"ha":865,"o":"m 691 855 q 682 793 691 820 q 657 743 672 766 q 625 701 643 720 q 593 665 608 682 q 538 607 561 630 q 516 550 516 584 q 527 513 516 529 q 554 487 537 498 q 591 466 570 476 q 632 447 611 456 q 702 408 669 429 q 759 360 734 387 q 796 296 783 333 q 809 208 809 259 q 742 41 809 100 q 533 -16 675 -16 q 475 -12 504 -16 q 420 -2 445 -8 q 377 11 395 4 q 350 22 358 18 l 372 134 q 397 123 380 130 q 438 109 415 116 q 488 97 461 102 q 543 93 515 93 q 645 123 612 93 q 679 205 679 154 q 647 294 679 259 q 536 365 615 329 q 460 404 490 386 q 413 443 430 423 q 390 483 397 462 q 383 531 383 504 q 413 625 383 587 q 479 698 444 662 q 507 729 493 712 q 534 763 522 745 q 554 798 547 780 q 562 836 562 816 q 526 931 562 897 q 418 965 490 965 q 282 912 325 965 q 240 766 240 859 l 240 0 l 111 0 l 111 769 q 130 895 111 838 q 187 993 150 952 q 280 1055 225 1033 q 408 1077 336 1077 q 537 1061 483 1077 q 625 1014 591 1044 q 675 943 659 984 q 691 855 691 902 "},"ǩ":{"x_min":73.28125,"x_max":705.609375,"ha":725,"o":"m 372 397 q 460 318 413 365 q 552 215 506 270 q 637 104 597 161 q 705 0 677 48 l 554 0 q 486 99 525 48 q 406 196 448 150 q 322 281 365 243 q 240 347 279 320 l 240 0 l 111 0 l 111 1055 l 240 1077 l 240 419 q 313 493 273 452 q 393 575 354 533 q 466 654 431 616 q 526 722 501 693 l 677 722 q 608 645 645 687 q 530 561 570 604 q 449 477 490 519 q 372 397 408 434 m 73 1273 l 113 1336 l 244 1251 l 374 1336 l 414 1273 l 244 1141 l 73 1273 "},"Ӓ":{"x_min":11.109375,"x_max":909.796875,"ha":921,"o":"m 762 0 q 718 122 738 62 q 675 245 697 183 l 238 245 l 151 0 l 11 0 q 115 282 66 152 q 210 529 163 412 q 302 752 256 645 q 398 962 348 858 l 522 962 q 618 752 572 858 q 710 529 663 645 q 805 282 757 412 q 909 0 854 152 l 762 0 m 636 356 q 547 591 591 477 q 456 808 504 704 q 364 591 408 704 q 277 356 320 477 l 636 356 m 328 1072 q 271 1095 296 1072 q 247 1154 247 1118 q 271 1213 247 1190 q 328 1236 296 1236 q 384 1213 360 1236 q 408 1154 408 1190 q 384 1095 408 1118 q 328 1072 360 1072 m 592 1072 q 535 1095 560 1072 q 511 1154 511 1118 q 535 1213 511 1190 q 592 1236 560 1236 q 648 1213 624 1236 q 672 1154 672 1190 q 648 1095 672 1118 q 592 1072 624 1072 "},"Ὕ":{"x_min":-49.78125,"x_max":1268.28125,"ha":1276,"o":"m 794 0 l 794 386 q 614 679 698 534 q 454 962 529 823 l 612 962 q 730 731 665 848 q 865 505 796 613 q 998 731 933 613 q 1118 962 1064 848 l 1268 962 q 1108 679 1193 823 q 929 388 1023 536 l 929 0 l 794 0 m 93 699 q 39 745 65 720 q -6 796 12 770 q -37 849 -26 823 q -49 899 -49 876 q -26 963 -49 941 q 30 985 -2 985 q 87 964 65 985 q 108 910 108 942 q 58 839 108 859 q 94 792 73 813 q 143 746 115 770 l 93 699 m 428 919 l 253 699 l 180 752 l 332 988 l 428 919 "},"Ű":{"x_min":112.515625,"x_max":843.125,"ha":956,"o":"m 477 -20 q 313 8 383 -20 q 200 88 244 37 q 134 208 155 138 q 112 358 112 277 l 112 962 l 247 962 l 247 373 q 311 163 247 229 q 477 98 375 98 q 571 114 529 98 q 644 163 613 130 q 691 249 675 197 q 708 373 708 301 l 708 962 l 843 962 l 843 358 q 821 208 843 277 q 754 88 800 138 q 641 8 709 37 q 477 -20 572 -20 m 540 1217 l 369 1022 l 303 1072 l 462 1294 l 540 1217 m 769 1217 l 598 1022 l 532 1072 l 691 1294 l 769 1217 "},"¶":{"x_min":59.734375,"x_max":757,"ha":897,"o":"m 536 865 q 513 864 525 865 q 494 862 502 863 l 494 -256 l 386 -256 l 386 363 q 145 451 231 379 q 59 665 59 523 q 90 798 59 741 q 180 894 122 855 q 322 952 238 933 q 508 972 405 972 q 633 967 566 972 q 757 948 700 962 l 757 -256 l 648 -256 l 648 858 q 600 863 629 861 q 536 865 570 865 "},"Ή":{"x_min":-40.703125,"x_max":953.796875,"ha":1074,"o":"m 819 962 l 953 962 l 953 0 l 819 0 l 819 444 l 348 444 l 348 0 l 213 0 l 213 962 l 348 962 l 348 561 l 819 561 l 819 962 m 148 952 l 53 683 l -40 705 l 23 984 l 148 952 "},"Ὅ":{"x_min":-49.78125,"x_max":1264.078125,"ha":1345,"o":"m 344 481 q 381 700 344 605 q 481 857 418 794 q 628 952 544 920 q 807 984 712 984 q 982 952 900 984 q 1127 857 1065 920 q 1227 700 1190 794 q 1264 481 1264 605 q 1227 263 1264 358 q 1127 106 1190 169 q 982 11 1065 43 q 807 -20 900 -20 q 628 11 712 -20 q 481 106 544 43 q 381 263 418 169 q 344 481 344 358 m 486 481 q 508 322 486 394 q 571 201 530 251 q 671 124 612 151 q 804 97 730 97 q 936 124 877 97 q 1035 201 994 151 q 1098 322 1076 251 q 1121 481 1121 394 q 1098 641 1121 569 q 1035 762 1076 712 q 936 839 994 812 q 804 866 877 866 q 671 839 730 866 q 571 762 612 812 q 508 641 530 712 q 486 481 486 569 m 93 699 q 39 745 65 720 q -6 796 12 770 q -37 849 -26 823 q -49 899 -49 876 q -26 963 -49 941 q 30 985 -2 985 q 87 964 65 985 q 108 910 108 942 q 58 839 108 859 q 94 792 73 813 q 143 746 115 770 l 93 699 m 428 919 l 253 699 l 180 752 l 332 988 l 428 919 "},"­":{"x_min":36.109375,"x_max":379.203125,"ha":415,"o":"m 36 476 l 379 476 l 379 355 l 36 355 l 36 476 "},"":{"x_min":34.390625,"x_max":637.21875,"ha":700,"o":"m 271 94 q 449 143 395 94 q 502 273 502 191 q 480 362 502 326 q 421 420 458 398 q 337 450 385 441 q 239 459 289 459 l 206 459 l 206 565 l 252 565 q 324 572 287 565 q 391 597 360 579 q 441 646 421 615 q 460 725 460 677 q 446 791 460 763 q 410 837 433 819 q 357 863 387 855 q 294 870 327 870 q 180 851 227 870 q 102 811 134 832 l 52 909 q 94 934 69 920 q 152 958 120 947 q 221 977 184 969 q 298 984 258 984 q 430 966 374 984 q 521 913 485 947 q 576 832 558 879 q 594 732 594 786 q 551 603 594 657 q 446 522 508 550 q 519 490 484 511 q 579 437 553 469 q 621 363 605 405 q 637 270 637 322 q 615 154 637 208 q 549 62 594 101 q 435 1 503 23 q 274 -20 367 -20 q 200 -15 238 -20 q 128 -1 162 -9 q 70 15 95 6 q 34 29 45 23 l 59 141 q 137 112 83 130 q 271 94 192 94 "},"Ὴ":{"x_min":-47.265625,"x_max":1027.796875,"ha":1147,"o":"m 893 962 l 1027 962 l 1027 0 l 893 0 l 893 444 l 422 444 l 422 0 l 287 0 l 287 962 l 422 962 l 422 561 l 893 561 l 893 962 m 36 978 l 213 764 l 148 706 l -47 896 l 36 978 "},":":{"x_min":77.78125,"x_max":263.90625,"ha":342,"o":"m 263 75 q 238 9 263 37 q 170 -18 213 -18 q 102 9 127 -18 q 77 75 77 37 q 102 140 77 112 q 170 168 127 168 q 238 140 213 168 q 263 75 263 112 m 263 629 q 238 563 263 591 q 170 535 213 535 q 102 563 127 535 q 77 629 77 591 q 102 694 77 666 q 170 722 127 722 q 238 694 213 722 q 263 629 263 666 "},"Ѝ":{"x_min":119.453125,"x_max":891.734375,"ha":1011,"o":"m 119 0 l 119 962 l 251 962 l 251 250 q 360 418 295 323 q 497 610 425 512 q 645 800 570 708 q 784 962 719 893 l 891 962 l 891 0 l 759 0 l 759 751 q 675 648 720 707 q 580 524 629 590 q 482 387 531 458 q 387 247 433 316 q 302 115 341 179 q 231 0 262 51 l 119 0 m 422 1294 l 599 1080 l 534 1022 l 338 1212 l 422 1294 "},"ǲ":{"x_min":119.453125,"x_max":1597.4375,"ha":1650,"o":"m 909 481 q 870 264 909 356 q 761 111 832 172 q 591 21 690 51 q 375 -8 493 -8 q 246 -3 316 -8 q 119 15 176 1 l 119 948 q 246 967 176 962 q 375 972 316 972 q 591 942 493 972 q 761 852 690 912 q 870 699 832 791 q 909 481 909 607 m 386 109 q 672 207 577 109 q 766 481 766 305 q 672 756 766 658 q 386 854 577 854 q 297 852 329 854 q 254 850 266 851 l 254 113 q 297 111 266 112 q 386 109 329 109 m 1586 625 q 1509 534 1557 593 q 1406 405 1461 476 q 1296 256 1351 334 q 1200 108 1241 179 l 1597 108 l 1597 0 l 1046 0 l 1046 86 q 1127 220 1079 147 q 1230 367 1176 294 q 1334 504 1283 440 q 1422 613 1384 569 l 1065 613 l 1065 722 l 1586 722 l 1586 625 "},"Ƨ":{"x_min":43.0625,"x_max":693.109375,"ha":739,"o":"m 395 95 q 555 118 490 95 q 652 158 620 140 l 693 47 q 650 27 677 38 q 586 4 623 15 q 500 -13 548 -5 q 395 -20 452 -20 q 135 47 227 -20 q 43 241 43 115 q 63 357 43 309 q 122 440 84 405 q 213 500 161 475 q 327 550 265 525 q 408 583 370 566 q 473 620 445 600 q 516 666 501 640 q 531 732 531 693 q 517 792 531 766 q 477 834 502 818 q 419 859 452 851 q 347 868 386 868 q 213 850 270 868 q 126 815 155 833 l 83 925 q 188 966 116 947 q 347 984 259 984 q 584 913 498 984 q 670 716 670 843 q 650 612 670 655 q 595 538 630 569 q 513 484 561 506 q 413 443 466 461 q 327 409 368 426 q 254 370 286 393 q 203 316 222 347 q 184 240 184 284 q 395 95 184 95 "},"У":{"x_min":27.78125,"x_max":804.234375,"ha":815,"o":"m 547 294 q 489 174 519 230 q 418 76 459 118 q 320 11 377 34 q 177 -12 262 -12 q 143 -10 161 -12 q 108 -4 125 -8 q 79 2 91 -1 q 61 11 66 6 l 84 125 q 128 111 102 118 q 181 104 154 104 q 254 114 223 104 q 311 143 286 125 q 355 189 336 162 q 393 250 375 216 q 277 446 331 348 q 177 636 223 544 q 94 810 131 727 q 27 962 56 893 l 180 962 q 297 693 226 841 q 456 381 369 544 q 563 660 512 508 q 658 962 613 812 l 804 962 q 740 774 772 862 q 676 604 708 686 q 612 446 644 523 q 547 294 580 369 "},"ᾢ":{"x_min":79.171875,"x_max":1084.8125,"ha":1164,"o":"m 795 -13 q 661 20 719 -13 q 581 115 604 54 q 502 20 559 54 q 368 -13 444 -13 q 252 5 305 -13 q 161 68 200 25 q 100 181 122 112 q 79 350 79 250 q 93 477 79 416 q 129 587 108 537 q 173 675 150 637 q 216 737 197 713 l 331 697 q 302 649 322 682 q 261 571 281 616 q 226 470 241 526 q 211 351 211 413 q 251 168 211 236 q 370 101 291 101 q 456 133 426 101 q 500 209 486 165 q 516 302 513 254 q 518 381 518 350 l 518 583 l 645 583 l 645 381 q 647 302 645 350 q 663 209 650 254 q 707 133 677 165 q 793 101 737 101 q 912 168 872 101 q 952 351 952 236 q 937 470 952 413 q 902 571 922 526 q 861 649 882 616 q 832 697 841 682 l 947 737 q 989 675 965 713 q 1034 587 1013 637 q 1070 477 1055 537 q 1084 350 1084 416 q 1063 180 1084 250 q 1002 68 1041 111 q 911 5 963 25 q 795 -13 858 -13 m 350 845 q 398 891 378 869 q 434 938 419 912 q 384 1009 384 958 q 406 1063 384 1041 q 462 1084 428 1084 q 519 1062 496 1084 q 543 998 543 1040 q 531 948 543 975 q 499 895 519 922 q 453 844 479 869 q 400 798 428 819 l 350 845 m 676 1087 l 828 851 l 755 798 l 580 1018 l 676 1087 m 643 -87 q 649 -136 643 -118 q 666 -163 655 -154 q 695 -175 677 -172 q 733 -177 712 -177 l 733 -255 q 714 -259 729 -258 q 681 -261 699 -261 q 618 -252 648 -261 q 566 -223 588 -243 q 531 -173 544 -204 q 518 -98 518 -143 q 518 -85 518 -94 q 519 -69 518 -76 l 643 -69 l 643 -87 "},"ү":{"x_min":22.21875,"x_max":675.046875,"ha":697,"o":"m 675 722 q 550 343 622 522 q 412 16 479 163 l 412 -256 l 283 -256 l 283 19 q 145 345 216 166 q 22 722 75 523 l 161 722 q 200 577 177 654 q 249 424 223 500 q 301 277 275 348 q 351 151 327 206 q 401 277 375 206 q 453 424 427 348 q 502 577 479 500 q 541 722 525 654 l 675 722 "},"Ί":{"x_min":-40.703125,"x_max":348.1875,"ha":468,"o":"m 213 962 l 348 962 l 348 0 l 213 0 l 213 962 m 148 952 l 53 683 l -40 705 l 23 984 l 148 952 "},"⁶":{"x_min":51.390625,"x_max":456.984375,"ha":499,"o":"m 51 654 q 76 790 51 730 q 148 891 101 850 q 261 953 195 932 q 411 976 327 975 l 419 891 q 331 881 373 890 q 254 855 288 872 q 195 813 219 838 q 161 757 170 788 q 214 772 188 768 q 262 776 240 776 q 352 762 315 776 q 413 724 390 748 q 446 669 436 700 q 456 605 456 638 q 445 543 456 575 q 410 485 434 511 q 349 443 386 459 q 262 426 312 426 q 104 486 158 426 q 51 654 51 547 m 254 695 q 199 691 226 695 q 147 677 172 686 q 169 554 144 601 q 261 508 194 508 q 305 517 287 508 q 334 541 323 526 q 351 572 345 555 q 356 604 356 588 q 331 672 356 648 q 254 695 306 695 "},"⅓":{"x_min":69.453125,"x_max":1145.59375,"ha":1214,"o":"m 69 862 q 173 909 122 880 q 262 973 225 937 l 330 973 l 330 437 l 233 437 l 233 845 q 163 811 202 826 q 95 787 123 795 l 69 862 m 906 962 l 363 0 l 243 0 l 786 962 l 906 962 m 915 77 q 1016 100 988 77 q 1044 159 1044 123 q 1031 199 1044 183 q 997 226 1019 216 q 948 242 976 237 q 891 247 920 247 l 865 247 l 865 326 l 899 326 q 940 329 919 326 q 979 341 962 333 q 1008 364 996 349 q 1019 399 1019 378 q 993 449 1019 434 q 927 463 967 463 q 858 450 890 463 q 802 426 826 437 l 767 502 q 836 533 790 517 q 930 549 883 549 q 1074 508 1031 549 q 1116 403 1116 467 q 1040 292 1116 335 q 1117 242 1088 277 q 1145 158 1145 206 q 1133 92 1145 121 q 1092 39 1120 62 q 1021 3 1065 16 q 916 -8 977 -8 q 828 1 873 -8 q 759 23 784 10 l 780 106 q 844 86 810 95 q 915 77 878 77 "},"Ģ":{"x_min":80.5625,"x_max":841.734375,"ha":933,"o":"m 707 473 l 841 473 l 841 23 q 793 11 825 18 q 721 -2 762 4 q 631 -14 680 -9 q 533 -19 583 -19 q 348 13 431 -19 q 205 111 265 47 q 113 268 145 175 q 80 481 80 361 q 117 696 80 602 q 216 854 154 790 q 363 951 279 918 q 543 984 447 984 q 659 976 608 984 q 745 957 709 968 q 804 934 782 945 q 836 918 827 923 l 793 805 q 686 849 752 832 q 550 866 619 866 q 416 840 476 866 q 313 763 355 813 q 247 642 270 713 q 223 481 223 570 q 243 325 223 395 q 304 203 263 254 q 406 125 345 152 q 548 97 466 97 q 647 103 607 97 q 707 115 688 109 l 707 473 m 464 -69 l 587 -69 q 589 -85 589 -76 q 589 -98 589 -94 q 575 -173 589 -143 q 540 -223 562 -204 q 488 -252 518 -243 q 425 -261 458 -261 q 392 -259 407 -261 q 373 -255 377 -258 l 373 -177 q 411 -175 394 -177 q 440 -163 429 -172 q 457 -136 451 -154 q 464 -87 464 -118 l 464 -69 "},"ᾇ":{"x_min":70.84375,"x_max":812.5625,"ha":842,"o":"m 437 737 q 516 733 476 737 q 590 722 555 729 q 653 709 625 716 q 700 694 682 701 l 700 229 q 706 164 700 188 q 725 125 712 140 q 760 104 738 111 q 812 94 782 98 l 794 -13 q 689 4 732 -13 q 620 56 647 23 q 531 7 586 30 q 402 -15 477 -15 q 259 12 320 -15 q 155 90 197 40 q 92 209 113 140 q 70 359 70 277 q 96 517 70 447 q 170 636 122 587 q 286 711 218 684 q 437 737 354 737 m 412 97 q 513 115 469 97 q 579 151 556 134 q 570 234 570 188 l 570 605 q 522 616 559 609 q 443 622 486 622 q 268 554 331 622 q 205 359 205 486 q 216 256 205 304 q 252 172 227 208 q 317 117 277 137 q 412 97 356 97 m 490 798 q 438 830 465 812 q 389 869 411 848 q 354 913 368 890 q 340 963 340 937 q 361 1025 340 1005 q 415 1044 383 1044 q 471 1023 454 1044 q 488 977 488 1002 q 477 943 488 959 q 451 916 466 927 q 529 845 472 886 l 490 798 m 418 1223 q 487 1212 454 1223 q 546 1179 520 1201 q 587 1126 572 1158 q 602 1052 602 1094 l 602 1050 l 529 1050 q 500 1110 526 1082 q 418 1138 473 1138 q 336 1110 362 1138 q 307 1050 309 1082 l 233 1050 l 233 1052 q 248 1126 233 1094 q 289 1179 263 1158 q 348 1212 315 1201 q 418 1223 382 1223 m 483 -87 q 489 -136 483 -118 q 506 -163 495 -154 q 535 -175 517 -172 q 573 -177 552 -177 l 573 -255 q 554 -259 569 -258 q 521 -261 539 -261 q 458 -252 488 -261 q 406 -223 428 -243 q 371 -173 384 -204 q 358 -98 358 -143 q 358 -85 358 -94 q 359 -69 358 -76 l 483 -69 l 483 -87 "},"m":{"x_min":111.125,"x_max":1093.140625,"ha":1196,"o":"m 111 701 q 228 725 155 712 q 397 737 301 737 q 513 718 466 737 q 593 663 561 700 q 623 683 602 670 q 675 707 644 695 q 743 728 705 719 q 823 737 780 737 q 959 713 907 737 q 1042 644 1012 688 q 1082 538 1072 600 q 1093 405 1093 477 l 1093 0 l 963 0 l 963 377 q 957 487 963 441 q 934 563 951 533 q 886 609 916 594 q 809 623 857 623 q 702 606 744 623 q 644 575 659 588 q 661 495 655 538 q 666 405 666 452 l 666 0 l 537 0 l 537 377 q 530 487 537 441 q 506 563 523 533 q 459 609 488 594 q 383 623 429 623 q 341 622 363 623 q 299 618 319 620 q 262 613 279 616 q 240 609 245 611 l 240 0 l 111 0 l 111 701 "},"ǌ":{"x_min":111.125,"x_max":1061.359375,"ha":1154,"o":"m 111 701 q 229 725 155 712 q 398 737 302 737 q 541 713 484 737 q 632 645 598 688 q 680 540 666 601 q 694 405 694 479 l 694 0 l 565 0 l 565 377 q 556 491 565 444 q 526 568 547 538 q 470 610 505 597 q 384 623 436 623 q 341 622 363 623 q 299 618 319 620 q 263 613 279 616 q 240 609 247 611 l 240 0 l 111 0 l 111 701 m 796 -259 q 753 -255 779 -259 q 708 -244 726 -251 l 725 -138 q 757 -145 739 -143 q 790 -148 775 -148 q 885 -107 857 -148 q 914 12 914 -66 l 914 722 l 1043 722 l 1043 13 q 980 -192 1043 -125 q 796 -259 916 -259 m 978 852 q 918 875 943 852 q 894 937 894 898 q 918 999 894 976 q 978 1022 943 1022 q 1037 999 1012 1022 q 1061 937 1061 976 q 1037 875 1061 898 q 978 852 1012 852 "},"⁵":{"x_min":55.5625,"x_max":441.703125,"ha":499,"o":"m 441 595 q 386 474 441 522 q 213 426 330 426 q 124 436 169 426 q 55 458 79 445 l 76 541 q 132 522 97 533 q 211 512 168 512 q 313 536 284 512 q 341 593 341 561 q 329 636 341 616 q 289 668 318 655 q 213 689 261 682 q 94 697 166 697 q 110 837 104 766 q 119 973 116 908 l 419 973 l 419 886 l 202 886 q 198 830 200 858 q 191 773 197 802 q 381 721 322 766 q 441 595 441 676 "},"ὀ":{"x_min":70.84375,"x_max":748.671875,"ha":820,"o":"m 748 361 q 723 205 748 275 q 653 86 698 136 q 545 9 608 36 q 409 -18 483 -18 q 273 9 336 -18 q 165 86 211 36 q 95 205 120 136 q 70 361 70 275 q 95 516 70 445 q 165 636 120 586 q 273 713 211 686 q 409 740 336 740 q 545 713 483 740 q 653 636 608 686 q 723 516 698 586 q 748 361 748 445 m 613 361 q 559 554 613 483 q 409 626 504 626 q 260 554 315 626 q 205 361 205 483 q 260 167 205 238 q 409 95 315 95 q 559 167 504 95 q 613 361 613 238 m 317 845 q 367 891 345 869 q 405 938 389 912 q 366 967 381 948 q 352 1009 352 986 q 375 1063 352 1041 q 432 1084 398 1084 q 494 1062 469 1084 q 519 998 519 1040 q 506 948 519 975 q 473 895 494 922 q 425 844 452 869 q 367 798 398 819 l 317 845 "},"á":{"x_min":59.734375,"x_max":622.265625,"ha":725,"o":"m 355 93 q 436 95 401 93 q 495 102 472 97 l 495 318 q 450 329 481 325 q 375 334 419 334 q 313 330 345 334 q 253 313 280 326 q 208 277 226 300 q 190 216 190 254 q 234 120 190 147 q 355 93 279 93 m 344 740 q 475 720 422 740 q 561 663 529 700 q 608 575 594 626 q 622 463 622 525 l 622 12 q 575 4 605 9 q 508 -4 545 0 q 427 -11 470 -8 q 340 -15 383 -15 q 227 -2 279 -15 q 138 36 176 9 q 80 108 101 63 q 59 215 59 152 q 84 318 59 275 q 150 387 108 361 q 247 426 191 413 q 363 438 302 438 q 404 436 383 438 q 443 431 425 434 q 476 425 462 427 q 495 420 490 422 l 495 456 q 488 520 495 488 q 463 575 481 551 q 414 614 445 600 q 333 629 383 629 q 221 620 269 629 q 150 601 173 611 l 134 708 q 218 729 159 719 q 344 740 276 740 m 533 995 l 337 805 l 272 863 l 450 1077 l 533 995 "},"ɍ":{"x_min":19.453125,"x_max":533.375,"ha":553,"o":"m 388 737 q 427 735 405 737 q 469 729 448 733 q 507 722 490 726 q 533 716 525 719 l 511 604 q 460 617 495 609 q 369 625 425 625 q 297 617 333 625 q 251 607 262 609 l 251 381 l 454 381 l 454 284 l 251 284 l 251 0 l 122 0 l 122 284 l 19 284 l 19 381 l 122 381 l 122 691 q 236 722 168 708 q 388 737 304 737 "},"Ӱ":{"x_min":27.78125,"x_max":804.234375,"ha":815,"o":"m 547 294 q 489 174 519 230 q 418 76 459 118 q 320 11 377 34 q 177 -12 262 -12 q 143 -10 161 -12 q 108 -4 125 -8 q 79 2 91 -1 q 61 11 66 6 l 84 125 q 128 111 102 118 q 181 104 154 104 q 254 114 223 104 q 311 143 286 125 q 355 189 336 162 q 393 250 375 216 q 277 446 331 348 q 177 636 223 544 q 94 810 131 727 q 27 962 56 893 l 180 962 q 297 693 226 841 q 456 381 369 544 q 563 660 512 508 q 658 962 613 812 l 804 962 q 740 774 772 862 q 676 604 708 686 q 612 446 644 523 q 547 294 580 369 m 293 1072 q 236 1095 261 1072 q 212 1154 212 1118 q 236 1213 212 1190 q 293 1236 261 1236 q 349 1213 325 1236 q 373 1154 373 1190 q 349 1095 373 1118 q 293 1072 325 1072 m 557 1072 q 500 1095 525 1072 q 476 1154 476 1118 q 500 1213 476 1190 q 557 1236 525 1236 q 613 1213 589 1236 q 637 1154 637 1190 q 613 1095 637 1118 q 557 1072 589 1072 "},"ӆ":{"x_min":18.0625,"x_max":841.734375,"ha":846,"o":"m 362 613 q 360 516 362 568 q 352 411 358 463 q 337 309 347 359 q 312 213 327 258 q 274 130 297 169 q 218 61 251 91 q 140 11 184 31 q 36 -13 95 -8 l 18 94 q 125 145 86 108 q 188 237 165 183 q 219 344 209 284 q 233 468 229 404 q 238 598 237 533 q 238 722 238 663 l 719 722 l 719 106 l 841 106 q 829 9 841 58 q 797 -85 818 -40 q 751 -168 777 -130 q 695 -230 725 -205 l 607 -175 q 629 -147 615 -166 q 659 -105 644 -129 q 688 -54 675 -81 q 708 0 701 -27 l 590 0 l 590 613 l 362 613 "},"K":{"x_min":119.453125,"x_max":865.34375,"ha":874,"o":"m 832 962 q 734 857 788 915 q 621 739 680 800 q 504 620 562 679 q 394 512 445 562 q 520 409 454 470 q 651 279 587 348 q 771 137 715 209 q 865 0 827 65 l 707 0 q 611 131 665 65 q 496 257 556 197 q 374 369 436 318 q 254 456 312 420 l 254 0 l 119 0 l 119 962 l 254 962 l 254 537 q 361 641 302 583 q 476 757 419 698 q 584 868 533 815 q 669 962 634 922 l 832 962 "},"7":{"x_min":83.34375,"x_max":695.890625,"ha":783,"o":"m 226 0 q 265 234 234 111 q 343 472 297 356 q 443 688 388 588 q 551 850 498 787 l 83 850 l 83 962 l 695 962 l 695 855 q 594 710 650 802 q 489 503 538 618 q 404 259 440 388 q 361 0 369 129 l 226 0 "},"¨":{"x_min":48.609375,"x_max":473.65625,"ha":522,"o":"m 129 855 q 72 878 97 855 q 48 937 48 901 q 72 996 48 973 q 129 1019 97 1019 q 185 996 161 1019 q 209 937 209 973 q 185 878 209 901 q 129 855 161 855 m 393 855 q 336 878 361 855 q 312 937 312 901 q 336 996 312 973 q 393 1019 361 1019 q 449 996 425 1019 q 473 937 473 973 q 449 878 473 901 q 393 855 425 855 "},"Y":{"x_min":8.328125,"x_max":822.28125,"ha":831,"o":"m 348 0 l 348 386 q 168 679 252 534 q 8 962 83 823 l 166 962 q 284 731 219 848 q 419 505 350 613 q 552 731 487 613 q 672 962 618 848 l 822 962 q 662 679 747 823 q 483 388 577 536 l 483 0 l 348 0 "},"E":{"x_min":119.453125,"x_max":741.71875,"ha":793,"o":"m 119 0 l 119 962 l 707 962 l 707 847 l 254 847 l 254 561 l 657 561 l 657 448 l 254 448 l 254 115 l 741 115 l 741 0 l 119 0 "},"Ô":{"x_min":80.5625,"x_max":1000.078125,"ha":1081,"o":"m 80 481 q 117 700 80 605 q 217 857 154 794 q 364 952 280 920 q 543 984 448 984 q 718 952 636 984 q 863 857 801 920 q 963 700 926 794 q 1000 481 1000 605 q 963 263 1000 358 q 863 106 926 169 q 718 11 801 43 q 543 -20 636 -20 q 364 11 448 -20 q 217 106 280 43 q 117 263 154 169 q 80 481 80 358 m 222 481 q 244 322 222 394 q 307 201 266 251 q 407 124 348 151 q 540 97 466 97 q 672 124 613 97 q 771 201 730 151 q 834 322 812 251 q 857 481 857 394 q 834 641 857 569 q 771 762 812 712 q 672 839 730 812 q 540 866 613 866 q 407 839 466 866 q 307 762 348 812 q 244 641 266 712 q 222 481 222 569 m 540 1285 l 729 1086 l 674 1025 l 540 1147 l 405 1025 l 351 1086 l 540 1285 "},"έ":{"x_min":76.390625,"x_max":666.71875,"ha":699,"o":"m 405 740 q 472 736 438 740 q 534 727 505 733 q 584 716 562 722 q 616 705 605 711 l 597 595 q 570 604 590 598 q 523 617 550 611 q 466 627 497 623 q 408 632 436 632 q 281 607 333 632 q 230 530 230 583 q 244 477 230 497 q 279 445 258 456 q 326 431 300 434 q 377 427 352 427 l 501 427 l 501 326 l 375 326 q 312 320 343 326 q 258 300 281 313 q 220 264 234 287 q 206 208 206 241 q 397 93 206 93 q 475 98 437 93 q 543 112 512 104 q 597 129 575 120 q 632 143 620 137 l 666 36 q 627 20 654 29 q 565 2 601 11 q 482 -11 529 -5 q 381 -16 436 -16 q 277 -7 331 -16 q 179 25 223 1 q 105 91 134 48 q 76 202 76 134 q 111 306 76 258 q 202 379 145 355 q 170 399 187 384 q 137 434 152 413 q 112 479 122 454 q 102 533 102 504 q 124 623 102 584 q 185 688 145 662 q 281 727 225 715 q 405 740 337 740 m 563 982 l 315 805 l 259 877 l 490 1077 l 563 982 "},"ὺ":{"x_min":102.78125,"x_max":697.28125,"ha":800,"o":"m 400 -15 q 252 11 309 -15 q 161 84 194 38 q 115 187 127 129 q 102 306 102 245 l 102 722 l 231 722 l 231 325 q 274 152 231 202 q 400 101 316 101 q 525 152 483 101 q 568 325 568 202 l 568 722 l 697 722 l 697 306 q 684 187 697 245 q 638 84 672 129 q 547 11 605 38 q 400 -15 490 -15 m 285 1077 l 516 877 l 460 805 l 212 982 l 285 1077 "},"Ƥ":{"x_min":20.828125,"x_max":937.578125,"ha":986,"o":"m 516 972 q 828 895 719 972 q 937 665 937 818 q 907 524 937 581 q 821 429 877 466 q 684 376 765 393 q 502 359 604 359 l 395 359 l 395 0 l 261 0 l 261 845 q 133 738 133 838 q 134 716 133 727 q 136 695 134 704 l 29 683 q 23 712 26 693 q 20 751 20 732 q 61 877 20 833 q 170 943 102 922 q 328 968 238 963 q 516 972 418 972 m 527 854 q 431 853 463 854 q 395 852 400 852 l 395 470 l 497 470 q 622 479 566 470 q 716 511 677 488 q 775 570 754 533 q 795 666 795 608 q 774 758 795 722 q 716 816 752 794 q 630 845 679 837 q 527 854 581 854 "},"Є":{"x_min":80.5625,"x_max":826.453125,"ha":861,"o":"m 531 -20 q 347 13 430 -20 q 204 111 263 47 q 113 269 145 176 q 80 481 80 362 q 113 693 80 600 q 205 852 145 787 q 348 950 265 916 q 533 984 431 984 q 641 977 591 984 q 727 960 690 970 q 789 938 765 950 q 823 920 813 927 l 788 813 q 699 847 758 829 q 548 866 640 866 q 418 843 475 866 q 320 779 361 820 q 257 679 280 737 q 227 548 234 620 l 650 548 l 650 434 l 225 434 q 253 296 230 358 q 317 190 276 234 q 416 121 358 145 q 548 97 473 97 q 700 116 640 97 q 791 151 761 136 l 826 40 q 791 22 816 33 q 728 2 766 12 q 640 -13 690 -6 q 531 -20 590 -20 "},"Ï":{"x_min":-25.390625,"x_max":399.65625,"ha":374,"o":"m 119 962 l 254 962 l 254 0 l 119 0 l 119 962 m 55 1072 q -1 1095 23 1072 q -25 1154 -25 1118 q -1 1213 -25 1190 q 55 1236 23 1236 q 111 1213 87 1236 q 135 1154 135 1190 q 111 1095 135 1118 q 55 1072 87 1072 m 319 1072 q 262 1095 287 1072 q 238 1154 238 1118 q 262 1213 238 1190 q 319 1236 287 1236 q 375 1213 351 1236 q 399 1154 399 1190 q 375 1095 399 1118 q 319 1072 351 1072 "},"Ȅ":{"x_min":119.453125,"x_max":741.71875,"ha":793,"o":"m 119 0 l 119 962 l 707 962 l 707 847 l 254 847 l 254 561 l 657 561 l 657 448 l 254 448 l 254 115 l 741 115 l 741 0 l 119 0 m 459 1294 l 619 1072 l 552 1022 l 381 1217 l 459 1294 m 230 1294 l 390 1072 l 323 1022 l 152 1217 l 230 1294 "},"ῶ":{"x_min":79.171875,"x_max":1084.8125,"ha":1164,"o":"m 795 -13 q 661 20 719 -13 q 581 115 604 54 q 502 20 559 54 q 368 -13 444 -13 q 252 5 305 -13 q 161 68 200 25 q 100 181 122 112 q 79 350 79 250 q 93 477 79 416 q 129 587 108 537 q 173 675 150 637 q 216 737 197 713 l 331 697 q 302 649 322 682 q 261 571 281 616 q 226 470 241 526 q 211 351 211 413 q 251 168 211 236 q 370 101 291 101 q 456 133 426 101 q 500 209 486 165 q 516 302 513 254 q 518 381 518 350 l 518 583 l 645 583 l 645 381 q 647 302 645 350 q 663 209 650 254 q 707 133 677 165 q 793 101 737 101 q 912 168 872 101 q 952 351 952 236 q 937 470 952 413 q 902 571 922 526 q 861 649 882 616 q 832 697 841 682 l 947 737 q 989 675 965 713 q 1034 587 1013 637 q 1070 477 1055 537 q 1084 350 1084 416 q 1063 180 1084 250 q 1002 68 1041 111 q 911 5 963 25 q 795 -13 858 -13 m 582 1040 q 655 1027 621 1040 q 715 989 690 1013 q 754 929 740 965 q 766 847 768 893 l 683 847 q 677 880 682 862 q 661 913 672 898 q 630 937 650 927 q 582 947 611 947 q 533 937 552 947 q 502 913 514 927 q 486 880 491 898 q 480 847 482 862 l 397 847 q 409 929 396 893 q 448 989 423 965 q 508 1027 473 1013 q 582 1040 543 1040 "},"έ":{"x_min":76.390625,"x_max":666.71875,"ha":699,"o":"m 405 740 q 472 736 438 740 q 534 727 505 733 q 584 716 562 722 q 616 705 605 711 l 597 595 q 570 604 590 598 q 523 617 550 611 q 466 627 497 623 q 408 632 436 632 q 281 607 333 632 q 230 530 230 583 q 244 477 230 497 q 279 445 258 456 q 326 431 300 434 q 377 427 352 427 l 501 427 l 501 326 l 375 326 q 312 320 343 326 q 258 300 281 313 q 220 264 234 287 q 206 208 206 241 q 397 93 206 93 q 475 98 437 93 q 543 112 512 104 q 597 129 575 120 q 632 143 620 137 l 666 36 q 627 20 654 29 q 565 2 601 11 q 482 -11 529 -5 q 381 -16 436 -16 q 277 -7 331 -16 q 179 25 223 1 q 105 91 134 48 q 76 202 76 134 q 111 306 76 258 q 202 379 145 355 q 170 399 187 384 q 137 434 152 413 q 112 479 122 454 q 102 533 102 504 q 124 623 102 584 q 185 688 145 662 q 281 727 225 715 q 405 740 337 740 m 528 1018 l 348 798 l 273 851 l 430 1087 l 528 1018 "},"ȴ":{"x_min":-5.5625,"x_max":576.4375,"ha":569,"o":"m 266 100 q 325 129 294 119 q 391 140 355 140 q 467 124 433 140 q 525 81 501 108 q 563 18 550 54 q 576 -56 576 -18 q 564 -127 576 -91 q 527 -191 552 -162 q 463 -238 502 -220 q 370 -256 425 -256 q 241 -224 291 -256 q 165 -134 191 -191 l 61 -261 l -5 -202 l 138 -27 q 137 -5 137 -16 q 137 16 137 5 l 137 1055 l 266 1077 l 266 100 m 372 43 q 313 27 337 43 q 266 -12 290 12 l 266 -47 q 294 -127 266 -97 q 370 -158 322 -158 q 445 -128 419 -158 q 470 -56 470 -98 q 445 13 470 -15 q 372 43 420 43 "},"Ɖ":{"x_min":26.390625,"x_max":927.859375,"ha":1008,"o":"m 927 481 q 888 264 927 356 q 779 111 850 172 q 609 21 708 51 q 393 -8 511 -8 q 264 -3 334 -8 q 137 15 194 1 l 137 450 l 26 450 l 26 554 l 137 554 l 137 948 q 264 967 194 962 q 393 972 334 972 q 609 942 511 972 q 779 852 708 912 q 888 699 850 791 q 927 481 927 607 m 404 109 q 690 207 595 109 q 784 481 784 305 q 690 756 784 658 q 404 854 595 854 q 316 852 347 854 q 272 850 284 851 l 272 554 l 452 554 l 452 450 l 272 450 l 272 113 q 316 111 284 112 q 404 109 347 109 "},"ἰ":{"x_min":85.6875,"x_max":345.859375,"ha":379,"o":"m 327 -13 q 158 37 208 -11 q 108 188 108 86 l 108 722 l 237 722 l 237 209 q 243 156 237 177 q 261 123 248 136 q 294 104 273 111 q 345 94 315 98 l 327 -13 m 85 845 q 135 891 113 869 q 173 938 157 912 q 134 967 149 948 q 120 1009 120 986 q 143 1063 120 1041 q 200 1084 166 1084 q 262 1062 237 1084 q 287 998 287 1040 q 274 948 287 975 q 241 895 262 922 q 193 844 220 869 q 135 798 166 819 l 85 845 "},"ϋ":{"x_min":102.78125,"x_max":697.28125,"ha":800,"o":"m 400 -15 q 252 11 309 -15 q 161 84 194 38 q 115 187 127 129 q 102 306 102 245 l 102 722 l 231 722 l 231 325 q 274 152 231 202 q 400 101 316 101 q 525 152 483 101 q 568 325 568 202 l 568 722 l 697 722 l 697 306 q 684 187 697 245 q 638 84 672 129 q 547 11 605 38 q 400 -15 490 -15 m 268 855 q 211 878 236 855 q 187 937 187 901 q 211 996 187 973 q 268 1019 236 1019 q 324 996 300 1019 q 348 937 348 973 q 324 878 348 901 q 268 855 300 855 m 532 855 q 475 878 500 855 q 451 937 451 901 q 475 996 451 973 q 532 1019 500 1019 q 588 996 564 1019 q 612 937 612 973 q 588 878 612 901 q 532 855 564 855 "},"":{"x_min":55.5625,"x_max":1163.640625,"ha":1214,"o":"m 441 595 q 386 474 441 522 q 213 426 330 426 q 124 436 169 426 q 55 458 79 445 l 76 541 q 132 522 97 533 q 211 512 168 512 q 313 536 284 512 q 341 593 341 561 q 329 636 341 616 q 289 668 318 655 q 213 689 261 682 q 94 697 166 697 q 110 837 104 766 q 119 973 116 908 l 419 973 l 419 886 l 202 886 q 198 830 200 858 q 191 773 197 802 q 381 721 322 766 q 441 595 441 676 m 924 962 l 381 0 l 261 0 l 804 962 l 924 962 m 846 2 q 870 124 852 60 q 915 246 888 187 q 975 358 942 306 q 1041 448 1008 410 l 766 448 l 766 538 l 1163 538 l 1163 462 q 1099 383 1134 433 q 1033 272 1065 334 q 978 141 1002 210 q 949 2 955 71 l 846 2 "},"ἶ":{"x_min":-8.609375,"x_max":360.875,"ha":379,"o":"m 327 -13 q 158 37 208 -11 q 108 188 108 86 l 108 722 l 237 722 l 237 209 q 243 156 237 177 q 261 123 248 136 q 294 104 273 111 q 345 94 315 98 l 327 -13 m 65 845 q 142 916 121 886 q 116 943 127 927 q 105 977 105 959 q 122 1023 105 1002 q 178 1044 140 1044 q 232 1025 210 1044 q 253 963 253 1005 q 240 913 253 937 q 204 869 226 890 q 155 830 183 848 q 103 798 128 812 l 65 845 m 176 1223 q 245 1212 212 1223 q 304 1179 278 1201 q 345 1126 330 1158 q 360 1052 360 1094 l 360 1050 l 287 1050 q 258 1110 284 1082 q 176 1138 231 1138 q 94 1110 120 1138 q 65 1050 67 1082 l -8 1050 l -8 1052 q 6 1126 -8 1094 q 47 1179 21 1158 q 106 1212 73 1201 q 176 1223 140 1223 "},"ἳ":{"x_min":-84.890625,"x_max":365.15625,"ha":379,"o":"m 327 -13 q 158 37 208 -11 q 108 188 108 86 l 108 722 l 237 722 l 237 209 q 243 156 237 177 q 261 123 248 136 q 294 104 273 111 q 345 94 315 98 l 327 -13 m 58 798 q 4 844 30 819 q -41 895 -22 869 q -73 948 -61 922 q -84 998 -84 975 q -61 1062 -84 1040 q -4 1084 -37 1084 q 51 1063 30 1084 q 73 1009 73 1041 q 23 938 73 958 q 59 891 38 912 q 108 845 80 869 l 58 798 m 213 1087 l 365 851 l 292 798 l 117 1018 l 213 1087 "},"Ἐ":{"x_min":-57.3125,"x_max":829.71875,"ha":881,"o":"m 207 0 l 207 962 l 795 962 l 795 847 l 342 847 l 342 561 l 745 561 l 745 448 l 342 448 l 342 115 l 829 115 l 829 0 l 207 0 m -57 746 q -7 792 -29 770 q 30 839 14 813 q -8 868 6 849 q -22 910 -22 887 q 0 964 -22 942 q 57 985 23 985 q 119 963 94 985 q 144 899 144 941 q 131 849 144 876 q 98 796 119 823 q 50 745 77 770 q -7 699 23 720 l -57 746 "},"b":{"x_min":111.125,"x_max":747.28125,"ha":818,"o":"m 240 690 q 311 722 263 705 q 422 738 359 738 q 560 711 500 738 q 662 633 620 683 q 725 513 704 583 q 747 361 747 444 q 721 203 747 273 q 648 84 695 133 q 534 9 601 36 q 384 -16 468 -16 q 225 -4 294 -16 q 111 20 155 8 l 111 1055 l 240 1077 l 240 690 m 240 112 q 295 102 259 106 q 383 97 330 97 q 550 165 487 97 q 612 361 612 234 q 601 465 612 416 q 565 549 590 513 q 500 604 540 584 q 405 625 461 625 q 308 606 352 625 q 240 569 263 588 l 240 112 "},"ύ":{"x_min":102.78125,"x_max":697.28125,"ha":800,"o":"m 400 -15 q 252 11 309 -15 q 161 84 194 38 q 115 187 127 129 q 102 306 102 245 l 102 722 l 231 722 l 231 325 q 274 152 231 202 q 400 101 316 101 q 525 152 483 101 q 568 325 568 202 l 568 722 l 697 722 l 697 306 q 684 187 697 245 q 638 84 672 129 q 547 11 605 38 q 400 -15 490 -15 m 558 1018 l 378 798 l 303 851 l 460 1087 l 558 1018 "},"ﬂ":{"x_min":111.125,"x_max":887.578125,"ha":921,"o":"m 393 1077 q 476 1071 441 1077 q 526 1059 511 1065 l 508 948 q 466 960 493 954 q 402 966 440 966 q 276 917 312 966 q 240 784 240 868 l 240 722 l 518 722 l 518 613 l 240 613 l 240 0 l 111 0 l 111 787 q 179 1002 111 926 q 393 1077 247 1077 m 869 -13 q 700 37 750 -11 q 650 188 650 86 l 650 1055 l 779 1077 l 779 209 q 784 156 779 177 q 802 123 790 136 q 836 104 815 111 q 887 94 857 98 l 869 -13 "},"ῦ":{"x_min":102.78125,"x_max":697.28125,"ha":800,"o":"m 400 -15 q 252 11 309 -15 q 161 84 194 38 q 115 187 127 129 q 102 306 102 245 l 102 722 l 231 722 l 231 325 q 274 152 231 202 q 400 101 316 101 q 525 152 483 101 q 568 325 568 202 l 568 722 l 697 722 l 697 306 q 684 187 697 245 q 638 84 672 129 q 547 11 605 38 q 400 -15 490 -15 m 400 1040 q 473 1027 439 1040 q 533 989 508 1013 q 572 929 558 965 q 584 847 586 893 l 501 847 q 495 880 500 862 q 479 913 490 898 q 448 937 468 927 q 400 947 429 947 q 351 937 370 947 q 320 913 332 927 q 304 880 309 898 q 298 847 300 862 l 215 847 q 227 929 214 893 q 266 989 241 965 q 326 1027 291 1013 q 400 1040 361 1040 "},"ᾱ":{"x_min":70.84375,"x_max":812.5625,"ha":842,"o":"m 437 737 q 516 733 476 737 q 590 722 555 729 q 653 709 625 716 q 700 694 682 701 l 700 229 q 706 164 700 188 q 725 125 712 140 q 760 104 738 111 q 812 94 782 98 l 794 -13 q 689 4 732 -13 q 620 56 647 23 q 531 7 586 30 q 402 -15 477 -15 q 259 12 320 -15 q 155 90 197 40 q 92 209 113 140 q 70 359 70 277 q 96 517 70 447 q 170 636 122 587 q 286 711 218 684 q 437 737 354 737 m 412 97 q 513 115 469 97 q 579 151 556 134 q 570 234 570 188 l 570 605 q 522 616 559 609 q 443 622 486 622 q 268 554 331 622 q 205 359 205 486 q 216 256 205 304 q 252 172 227 208 q 317 117 277 137 q 412 97 356 97 m 223 987 l 618 987 l 618 887 l 223 887 l 223 987 "},"ƞ":{"x_min":111.125,"x_max":694.5,"ha":797,"o":"m 111 701 q 229 725 155 712 q 398 737 302 737 q 541 713 484 737 q 632 645 598 688 q 680 540 666 601 q 694 405 694 479 l 694 -256 l 565 -256 l 565 377 q 556 491 565 444 q 526 568 547 538 q 470 610 505 597 q 384 623 436 623 q 341 622 363 623 q 299 618 319 620 q 263 613 279 616 q 240 609 247 611 l 240 0 l 111 0 l 111 701 "},"Ǌ":{"x_min":119.453125,"x_max":1598.984375,"ha":1704,"o":"m 779 0 q 709 115 748 51 q 623 247 669 179 q 528 387 577 316 q 430 524 479 458 q 336 648 381 590 q 251 751 290 707 l 251 0 l 119 0 l 119 962 l 226 962 q 366 800 291 893 q 513 610 440 708 q 650 418 586 512 q 759 250 715 323 l 759 962 l 891 962 l 891 0 l 779 0 m 1598 309 q 1584 180 1598 240 q 1533 75 1569 120 q 1434 4 1496 30 q 1279 -20 1372 -20 q 1192 -13 1232 -20 q 1121 6 1153 -5 q 1065 31 1089 18 q 1028 56 1042 44 l 1080 163 q 1156 120 1110 143 q 1272 97 1203 97 q 1418 147 1372 97 q 1464 322 1464 198 l 1464 962 l 1598 962 l 1598 309 "},"ῼ":{"x_min":72.234375,"x_max":1440.859375,"ha":1474,"o":"m 544 984 q 715 954 633 984 q 859 866 797 925 q 957 719 920 807 q 994 516 994 632 q 979 391 994 451 q 938 280 963 331 q 882 186 913 229 q 818 113 850 144 l 1016 113 l 1016 0 l 645 0 l 645 94 q 727 172 688 129 q 793 266 765 215 q 836 379 820 318 q 852 516 852 441 q 830 663 852 598 q 768 774 808 729 q 670 843 727 819 q 544 866 613 866 q 418 843 475 866 q 320 774 361 819 q 258 663 280 729 q 236 516 236 598 q 252 379 236 441 q 295 266 268 318 q 361 172 323 215 q 443 94 398 129 l 443 0 l 72 0 l 72 113 l 270 113 q 206 186 238 144 q 150 280 175 229 q 109 391 125 331 q 94 516 94 451 q 131 719 94 632 q 229 866 168 807 q 372 954 291 925 q 544 984 454 984 m 1422 -13 q 1253 37 1303 -11 q 1203 188 1203 86 l 1203 722 l 1332 722 l 1332 209 q 1338 156 1332 177 q 1356 123 1343 136 q 1389 104 1368 111 q 1440 94 1410 98 l 1422 -13 "},"Ʈ":{"x_min":22.21875,"x_max":762.5625,"ha":785,"o":"m 459 -23 q 477 -120 459 -86 q 545 -154 494 -154 q 575 -152 556 -154 q 605 -147 594 -151 l 618 -248 q 577 -256 602 -252 q 531 -259 551 -259 q 429 -243 469 -259 q 366 -193 388 -226 q 334 -112 343 -161 q 325 0 325 -63 l 325 850 l 22 850 l 22 962 l 762 962 l 762 850 l 459 850 l 459 -23 "},"Ὢ":{"x_min":-56.78125,"x_max":1338.75,"ha":1411,"o":"m 866 984 q 1037 954 955 984 q 1181 866 1119 925 q 1279 719 1242 807 q 1316 516 1316 632 q 1301 391 1316 451 q 1260 280 1285 331 q 1204 186 1235 229 q 1140 113 1172 144 l 1338 113 l 1338 0 l 967 0 l 967 94 q 1049 172 1010 129 q 1115 266 1087 215 q 1158 379 1142 318 q 1174 516 1174 441 q 1152 663 1174 598 q 1090 774 1130 729 q 992 843 1049 819 q 866 866 935 866 q 740 843 797 866 q 642 774 683 819 q 580 663 602 729 q 558 516 558 598 q 574 379 558 441 q 617 266 590 318 q 683 172 645 215 q 765 94 720 129 l 765 0 l 394 0 l 394 113 l 592 113 q 528 186 560 144 q 472 280 497 229 q 431 391 447 331 q 416 516 416 451 q 453 719 416 632 q 551 866 490 807 q 694 954 613 925 q 866 984 776 984 m -56 746 q -8 792 -29 770 q 27 839 12 813 q -22 910 -22 859 q 0 964 -22 942 q 55 985 21 985 q 112 963 89 985 q 136 899 136 941 q 124 849 136 876 q 92 796 112 823 q 46 745 72 770 q -6 699 21 720 l -56 746 m 269 988 l 421 752 l 348 699 l 173 919 l 269 988 "},"ҋ":{"x_min":111.125,"x_max":840.5,"ha":845,"o":"m 718 722 l 718 106 l 840 106 q 831 10 841 58 q 800 -81 820 -37 q 753 -163 780 -125 q 694 -230 726 -201 l 605 -175 q 628 -147 613 -166 q 658 -105 643 -129 q 686 -54 673 -81 q 707 0 700 -27 l 593 0 l 593 550 q 501 426 551 497 q 401 279 451 355 q 305 130 351 204 q 226 0 259 56 l 111 0 l 111 722 l 236 722 l 236 202 q 318 334 272 262 q 413 475 363 405 q 511 610 462 545 q 604 722 561 675 l 718 722 m 415 838 q 273 883 329 838 q 206 1007 218 927 l 305 1033 q 343 961 316 988 q 415 933 369 933 q 487 961 461 933 q 525 1033 513 988 l 622 1007 q 556 883 611 927 q 415 838 501 838 "},"ф":{"x_min":69.453125,"x_max":994.53125,"ha":1064,"o":"m 201 361 q 221 252 201 300 q 277 172 241 205 q 363 122 313 140 q 469 104 412 105 l 469 618 q 363 598 412 616 q 277 547 313 580 q 221 468 241 515 q 201 361 201 420 m 594 104 q 700 122 651 105 q 786 172 750 140 q 842 252 822 205 q 862 361 862 300 q 842 468 862 420 q 786 547 822 515 q 700 598 750 580 q 594 618 651 616 l 594 104 m 594 -256 l 469 -256 l 469 -4 q 315 22 387 -2 q 188 93 243 47 q 101 207 133 140 q 69 361 69 275 q 101 514 69 447 q 188 628 133 581 q 315 700 243 675 q 469 726 387 725 l 469 1055 l 594 1077 l 594 726 q 747 700 675 725 q 875 628 820 675 q 962 514 930 581 q 994 361 994 447 q 962 207 994 275 q 875 93 930 140 q 747 22 820 47 q 594 -4 675 -2 l 594 -256 "},"ȭ":{"x_min":70.84375,"x_max":748.671875,"ha":820,"o":"m 748 361 q 723 205 748 275 q 653 86 698 136 q 545 9 608 36 q 409 -18 483 -18 q 273 9 336 -18 q 165 86 211 36 q 95 205 120 136 q 70 361 70 275 q 95 516 70 445 q 165 636 120 586 q 273 713 211 686 q 409 740 336 740 q 545 713 483 740 q 653 636 608 686 q 723 516 698 586 q 748 361 748 445 m 613 361 q 559 554 613 483 q 409 626 504 626 q 260 554 315 626 q 205 361 205 483 q 260 167 205 238 q 409 95 315 95 q 559 167 504 95 q 613 361 613 238 m 623 938 q 606 902 618 922 q 577 864 594 882 q 538 834 561 847 q 488 822 516 822 q 440 830 463 822 q 397 850 416 838 q 359 866 373 861 q 329 872 344 872 q 287 852 305 872 q 259 813 269 833 l 197 841 q 214 879 202 858 q 243 917 226 900 q 281 947 259 934 q 331 959 304 959 q 380 951 356 959 q 423 932 404 943 q 461 914 447 919 q 491 909 476 909 q 533 928 515 909 q 561 966 551 947 l 623 938 m 233 1113 l 586 1113 l 586 1025 l 233 1025 l 233 1113 "},"Ŋ":{"x_min":119.453125,"x_max":891.734375,"ha":1011,"o":"m 759 33 q 646 211 711 112 q 512 408 581 309 q 375 597 443 506 q 251 751 306 688 l 251 0 l 119 0 l 119 962 l 226 962 q 366 800 291 893 q 513 610 440 708 q 650 418 586 512 q 759 250 715 323 l 759 962 l 891 962 l 891 0 q 883 -112 891 -63 q 852 -193 875 -161 q 790 -243 830 -226 q 687 -259 750 -259 q 642 -256 668 -259 q 601 -248 616 -252 l 613 -147 q 643 -152 625 -151 q 673 -154 662 -154 q 742 -120 725 -154 q 759 -23 759 -86 l 759 33 "},"Ũ":{"x_min":112.515625,"x_max":843.125,"ha":956,"o":"m 477 -20 q 313 8 383 -20 q 200 88 244 37 q 134 208 155 138 q 112 358 112 277 l 112 962 l 247 962 l 247 373 q 311 163 247 229 q 477 98 375 98 q 571 114 529 98 q 644 163 613 130 q 691 249 675 197 q 708 373 708 301 l 708 962 l 843 962 l 843 358 q 821 208 843 277 q 754 88 800 138 q 641 8 709 37 q 477 -20 572 -20 m 706 1204 q 688 1165 699 1187 q 658 1124 676 1143 q 615 1092 640 1105 q 562 1079 591 1079 q 510 1089 534 1079 q 463 1110 486 1099 q 423 1126 440 1121 q 391 1132 406 1132 q 347 1112 368 1132 q 316 1071 327 1093 l 249 1104 q 268 1143 255 1121 q 298 1184 280 1165 q 340 1216 316 1203 q 394 1229 365 1229 q 446 1219 422 1229 q 493 1199 470 1210 q 533 1182 516 1187 q 565 1176 549 1176 q 609 1196 588 1176 q 640 1237 629 1215 l 706 1204 "},"L":{"x_min":119.453125,"x_max":698.671875,"ha":721,"o":"m 698 116 l 698 0 l 119 0 l 119 962 l 254 962 l 254 116 l 698 116 "},"ď":{"x_min":70.84375,"x_max":927.96875,"ha":864,"o":"m 577 569 q 509 606 554 588 q 412 625 465 625 q 317 604 356 625 q 252 549 277 584 q 216 465 227 513 q 205 361 205 416 q 268 165 205 234 q 434 97 330 97 q 522 102 487 97 q 577 112 558 106 l 577 569 m 577 1055 l 707 1077 l 707 20 q 593 -4 662 8 q 433 -16 523 -16 q 283 9 350 -16 q 169 84 216 36 q 96 203 122 133 q 70 361 70 273 q 92 513 70 444 q 155 633 113 583 q 257 711 197 683 q 395 738 318 738 q 506 722 458 738 q 577 690 554 705 l 577 1055 m 927 1077 l 890 768 l 804 768 l 804 1077 l 927 1077 "},"Ο":{"x_min":80.5625,"x_max":1000.078125,"ha":1081,"o":"m 80 481 q 117 700 80 605 q 217 857 154 794 q 364 952 280 920 q 543 984 448 984 q 718 952 636 984 q 863 857 801 920 q 963 700 926 794 q 1000 481 1000 605 q 963 263 1000 358 q 863 106 926 169 q 718 11 801 43 q 543 -20 636 -20 q 364 11 448 -20 q 217 106 280 43 q 117 263 154 169 q 80 481 80 358 m 222 481 q 244 322 222 394 q 307 201 266 251 q 407 124 348 151 q 540 97 466 97 q 672 124 613 97 q 771 201 730 151 q 834 322 812 251 q 857 481 857 394 q 834 641 857 569 q 771 762 812 712 q 672 839 730 812 q 540 866 613 866 q 407 839 466 866 q 307 762 348 812 q 244 641 266 712 q 222 481 222 569 "},"ŧ":{"x_min":102.78125,"x_max":533.375,"ha":558,"o":"m 231 722 l 505 722 l 505 613 l 231 613 l 231 425 l 505 425 l 505 327 l 231 327 l 231 280 q 240 190 231 226 q 265 135 248 155 q 306 106 281 115 q 365 98 331 98 q 459 111 423 98 q 508 130 494 125 l 533 23 q 465 0 513 13 q 354 -15 416 -15 q 232 3 280 -15 q 155 59 184 22 q 114 152 126 97 q 102 279 102 206 l 102 923 l 231 945 l 231 722 "},"À":{"x_min":11.109375,"x_max":909.796875,"ha":921,"o":"m 762 0 q 718 122 738 62 q 675 245 697 183 l 238 245 l 151 0 l 11 0 q 115 282 66 152 q 210 529 163 412 q 302 752 256 645 q 398 962 348 858 l 522 962 q 618 752 572 858 q 710 529 663 645 q 805 282 757 412 q 909 0 854 152 l 762 0 m 636 356 q 547 591 591 477 q 456 808 504 704 q 364 591 408 704 q 277 356 320 477 l 636 356 m 376 1294 l 553 1080 l 488 1022 l 292 1212 l 376 1294 "},"Ώ":{"x_min":-42.59375,"x_max":1090.75,"ha":1163,"o":"m 218 896 l 22 706 l -42 764 l 135 978 l 218 896 m 618 984 q 789 954 707 984 q 933 866 871 925 q 1031 719 994 807 q 1068 516 1068 632 q 1053 391 1068 451 q 1012 280 1037 331 q 956 186 987 229 q 892 113 924 144 l 1090 113 l 1090 0 l 719 0 l 719 94 q 801 172 762 129 q 867 266 839 215 q 910 379 894 318 q 926 516 926 441 q 904 663 926 598 q 842 774 882 729 q 744 843 801 819 q 618 866 687 866 q 492 843 549 866 q 394 774 435 819 q 332 663 354 729 q 310 516 310 598 q 326 379 310 441 q 369 266 342 318 q 435 172 397 215 q 517 94 472 129 l 517 0 l 146 0 l 146 113 l 344 113 q 280 186 312 144 q 224 280 249 229 q 183 391 199 331 q 168 516 168 451 q 205 719 168 632 q 303 866 242 807 q 446 954 365 925 q 618 984 528 984 "},"½":{"x_min":69.453125,"x_max":1148.375,"ha":1214,"o":"m 69 862 q 173 909 122 880 q 262 973 225 937 l 330 973 l 330 437 l 233 437 l 233 845 q 163 811 202 826 q 95 787 123 795 l 69 862 m 906 962 l 363 0 l 243 0 l 786 962 l 906 962 m 1126 397 q 1112 340 1126 368 q 1077 285 1099 312 q 1026 231 1055 258 q 963 175 996 204 q 917 133 940 155 q 890 92 894 110 l 1148 92 l 1148 4 l 778 4 q 785 85 774 50 q 815 150 795 121 q 862 203 835 179 q 917 253 888 228 q 994 327 965 293 q 1024 394 1024 361 q 1001 447 1024 430 q 938 464 978 464 q 894 458 915 464 q 856 442 873 451 q 826 424 840 433 q 806 410 813 415 l 756 478 q 828 527 780 503 q 938 551 876 551 q 1080 511 1034 551 q 1126 397 1126 471 "},"'":{"x_min":100.015625,"x_max":234.734375,"ha":335,"o":"m 234 1055 l 234 986 q 226 843 234 918 q 205 695 218 769 l 129 695 q 108 843 116 769 q 100 987 100 918 l 100 1055 l 234 1055 "},"Ҽ":{"x_min":20.828125,"x_max":1082.03125,"ha":1160,"o":"m 401 450 q 496 184 413 270 q 748 97 579 97 q 829 103 793 97 q 895 118 866 109 q 946 137 925 127 q 982 154 968 147 l 1015 43 q 979 24 1004 34 q 918 3 954 13 q 834 -13 882 -6 q 733 -20 787 -20 q 529 13 616 -20 q 383 111 441 48 q 295 259 325 173 q 261 448 265 345 q 164 464 208 452 q 88 501 120 476 q 38 566 56 526 q 20 662 20 605 q 23 701 20 682 q 29 730 26 720 l 136 718 q 134 697 134 709 q 133 675 133 686 q 163 597 133 622 q 265 566 194 573 q 313 749 276 670 q 407 879 351 827 q 536 958 463 932 q 693 984 609 984 q 855 954 783 984 q 977 863 927 923 q 1054 712 1027 802 q 1082 502 1082 622 q 1080 475 1082 491 q 1077 450 1079 458 l 401 450 m 940 559 q 923 684 940 627 q 875 782 907 741 q 797 846 844 823 q 690 869 751 869 q 567 841 619 869 q 480 770 515 813 q 427 670 445 726 q 405 559 409 615 l 940 559 "},"˛":{"x_min":98.625,"x_max":343.078125,"ha":522,"o":"m 251 -259 q 136 -231 173 -259 q 98 -154 98 -202 q 116 -92 98 -122 q 158 -37 134 -62 q 188 -7 175 -19 q 212 11 201 4 l 341 11 q 306 -15 326 0 q 265 -54 286 -31 q 233 -93 245 -76 q 220 -129 220 -109 q 276 -169 220 -169 q 302 -167 286 -169 q 333 -159 318 -165 l 343 -244 q 303 -255 327 -251 q 251 -259 279 -259 "},"":{"x_min":69.453125,"x_max":330.578125,"ha":499,"o":"m 69 259 q 173 306 122 277 q 262 370 225 334 l 330 370 l 330 -165 l 233 -165 l 233 242 q 163 208 202 223 q 95 184 123 192 l 69 259 "},"ᾲ":{"x_min":70.84375,"x_max":812.5625,"ha":842,"o":"m 437 737 q 516 733 476 737 q 590 722 555 729 q 653 709 625 716 q 700 694 682 701 l 700 229 q 706 164 700 188 q 725 125 712 140 q 760 104 738 111 q 812 94 782 98 l 794 -13 q 689 4 732 -13 q 620 56 647 23 q 531 7 586 30 q 402 -15 477 -15 q 259 12 320 -15 q 155 90 197 40 q 92 209 113 140 q 70 359 70 277 q 96 517 70 447 q 170 636 122 587 q 286 711 218 684 q 437 737 354 737 m 412 97 q 513 115 469 97 q 579 151 556 134 q 570 234 570 188 l 570 605 q 522 616 559 609 q 443 622 486 622 q 268 554 331 622 q 205 359 205 486 q 216 256 205 304 q 252 172 227 208 q 317 117 277 137 q 412 97 356 97 m 306 1077 l 537 877 l 481 805 l 233 982 l 306 1077 m 483 -87 q 489 -136 483 -118 q 506 -163 495 -154 q 535 -175 517 -172 q 573 -177 552 -177 l 573 -255 q 554 -259 569 -258 q 521 -261 539 -261 q 458 -252 488 -261 q 406 -223 428 -243 q 371 -173 384 -204 q 358 -98 358 -143 q 358 -85 358 -94 q 359 -69 358 -76 l 483 -69 l 483 -87 "},"Ɠ":{"x_min":80.5625,"x_max":1000.078125,"ha":933,"o":"m 707 469 l 841 469 l 841 23 q 793 11 825 18 q 721 -2 762 4 q 631 -14 680 -9 q 533 -19 583 -19 q 348 13 431 -19 q 205 111 265 47 q 113 268 145 175 q 80 481 80 361 q 116 696 80 602 q 214 854 152 790 q 359 951 276 918 q 538 984 443 984 q 641 975 601 984 q 715 955 682 966 q 781 1059 737 1027 q 912 1091 825 1091 q 958 1086 932 1091 q 1000 1075 984 1082 l 977 976 q 947 983 966 980 q 918 986 929 986 q 857 970 879 986 q 822 930 834 955 q 803 874 809 905 q 788 812 797 843 q 752 827 776 818 q 695 845 727 836 q 625 860 663 854 q 545 866 587 866 q 412 840 472 866 q 311 763 352 813 q 246 642 269 713 q 223 481 223 570 q 243 325 223 395 q 304 203 263 254 q 406 125 345 152 q 548 97 466 97 q 647 103 607 97 q 707 115 688 109 l 707 469 "},"Ć":{"x_min":80.5625,"x_max":826.453125,"ha":861,"o":"m 533 -20 q 348 12 431 -20 q 205 109 265 45 q 113 267 145 173 q 80 481 80 361 q 117 696 80 602 q 216 854 154 790 q 362 951 279 918 q 540 984 445 984 q 647 976 600 984 q 731 957 695 968 q 788 934 766 945 q 819 918 811 923 l 780 807 q 744 825 768 815 q 691 844 720 834 q 625 860 661 854 q 554 866 590 866 q 416 840 477 866 q 312 763 355 813 q 246 642 269 713 q 223 481 223 570 q 243 325 223 395 q 304 203 263 254 q 404 125 344 152 q 545 97 465 97 q 700 116 638 97 q 791 151 761 136 l 826 40 q 791 22 816 33 q 729 2 766 12 q 641 -13 691 -6 q 533 -20 591 -20 m 677 1212 l 481 1022 l 416 1080 l 594 1294 l 677 1212 "},"£":{"x_min":83.34375,"x_max":720.890625,"ha":783,"o":"m 341 518 l 604 518 l 604 413 l 341 413 l 341 402 q 336 256 341 333 q 319 111 330 180 l 720 111 l 720 0 l 173 0 q 200 196 188 98 q 212 393 212 294 l 212 413 l 83 413 l 83 518 l 212 518 l 212 633 q 234 803 212 736 q 295 910 255 870 q 390 965 334 950 q 512 980 445 980 q 615 969 573 980 q 695 943 657 958 l 663 832 q 506 866 590 866 q 438 855 469 866 q 386 818 408 844 q 353 747 365 791 q 341 636 341 702 l 341 518 "},"ů":{"x_min":102.78125,"x_max":686.171875,"ha":797,"o":"m 686 20 q 568 -2 641 9 q 400 -15 495 -15 q 259 9 316 -15 q 168 77 202 33 q 118 182 133 122 q 102 316 102 243 l 102 722 l 231 722 l 231 344 q 273 155 231 212 q 413 98 315 98 q 456 100 434 98 q 498 103 479 101 q 534 107 518 105 q 556 112 550 109 l 556 722 l 686 722 l 686 20 m 537 940 q 525 881 537 907 q 494 836 513 855 q 448 808 474 818 q 394 798 423 798 q 339 808 364 798 q 294 836 313 818 q 262 881 274 855 q 251 940 251 907 q 262 999 251 973 q 294 1043 274 1025 q 339 1072 313 1062 q 394 1082 364 1082 q 448 1072 423 1082 q 494 1043 474 1062 q 525 999 513 1025 q 537 940 537 973 m 467 940 q 446 996 467 976 q 394 1016 424 1016 q 342 996 363 1016 q 320 940 320 976 q 342 884 320 904 q 394 863 363 863 q 446 884 424 863 q 467 940 467 904 "},"⅕":{"x_min":69.453125,"x_max":1156.703125,"ha":1214,"o":"m 69 862 q 173 909 122 880 q 262 973 225 937 l 330 973 l 330 437 l 233 437 l 233 845 q 163 811 202 826 q 95 787 123 795 l 69 862 m 906 962 l 363 0 l 243 0 l 786 962 l 906 962 m 1156 160 q 1101 39 1156 87 q 928 -8 1045 -8 q 839 1 884 -8 q 770 23 794 10 l 791 106 q 847 87 812 98 q 926 77 883 77 q 1028 101 999 77 q 1056 158 1056 126 q 1044 201 1056 181 q 1004 233 1033 220 q 928 254 976 247 q 809 262 881 262 q 825 402 819 331 q 834 538 831 473 l 1134 538 l 1134 451 l 917 451 q 913 395 915 423 q 906 338 912 367 q 1096 286 1037 331 q 1156 160 1156 241 "},"Ǵ":{"x_min":80.5625,"x_max":841.734375,"ha":933,"o":"m 707 473 l 841 473 l 841 23 q 793 11 825 18 q 721 -2 762 4 q 631 -14 680 -9 q 533 -19 583 -19 q 348 13 431 -19 q 205 111 265 47 q 113 268 145 175 q 80 481 80 361 q 117 696 80 602 q 216 854 154 790 q 363 951 279 918 q 543 984 447 984 q 659 976 608 984 q 745 957 709 968 q 804 934 782 945 q 836 918 827 923 l 793 805 q 686 849 752 832 q 550 866 619 866 q 416 840 476 866 q 313 763 355 813 q 247 642 270 713 q 223 481 223 570 q 243 325 223 395 q 304 203 263 254 q 406 125 345 152 q 548 97 466 97 q 647 103 607 97 q 707 115 688 109 l 707 473 m 697 1212 l 501 1022 l 436 1080 l 614 1294 l 697 1212 "},"Ğ":{"x_min":80.5625,"x_max":841.734375,"ha":933,"o":"m 707 473 l 841 473 l 841 23 q 793 11 825 18 q 721 -2 762 4 q 631 -14 680 -9 q 533 -19 583 -19 q 348 13 431 -19 q 205 111 265 47 q 113 268 145 175 q 80 481 80 361 q 117 696 80 602 q 216 854 154 790 q 363 951 279 918 q 543 984 447 984 q 659 976 608 984 q 745 957 709 968 q 804 934 782 945 q 836 918 827 923 l 793 805 q 686 849 752 832 q 550 866 619 866 q 416 840 476 866 q 313 763 355 813 q 247 642 270 713 q 223 481 223 570 q 243 325 223 395 q 304 203 263 254 q 406 125 345 152 q 548 97 466 97 q 647 103 607 97 q 707 115 688 109 l 707 473 m 521 1064 q 448 1077 482 1064 q 388 1114 414 1090 q 349 1175 362 1139 q 336 1257 335 1211 l 419 1257 q 426 1224 421 1242 q 442 1191 431 1205 q 472 1167 453 1176 q 521 1157 492 1157 q 569 1167 550 1157 q 600 1191 589 1176 q 616 1224 611 1205 q 622 1257 621 1242 l 706 1257 q 693 1175 707 1211 q 653 1114 679 1139 q 594 1077 628 1090 q 521 1064 560 1064 "},"ә":{"x_min":75,"x_max":705.609375,"ha":776,"o":"m 705 363 q 677 196 705 268 q 604 77 650 125 q 498 6 558 30 q 376 -16 438 -16 q 153 75 231 -16 q 75 351 75 166 l 75 384 q 76 397 75 391 l 570 397 q 504 567 562 508 q 327 626 447 626 q 213 614 259 626 q 143 591 166 602 l 125 700 q 207 726 148 712 q 341 740 266 740 q 504 711 436 740 q 618 633 573 683 q 684 513 662 583 q 705 363 705 444 m 209 293 q 253 149 208 205 q 377 93 298 93 q 456 110 422 93 q 513 155 490 127 q 550 219 536 183 q 568 293 563 255 l 209 293 "},"":{"x_min":13.890625,"x_max":612.546875,"ha":626,"o":"m 612 777 q 588 661 612 715 q 525 566 565 607 q 429 502 484 526 q 312 479 375 479 q 195 502 250 479 q 101 566 141 526 q 37 661 61 607 q 13 777 13 715 q 37 895 13 840 q 101 990 61 950 q 195 1054 141 1030 q 312 1077 250 1077 q 429 1054 375 1077 q 525 990 484 1030 q 588 895 565 950 q 612 777 612 840 m 109 818 q 81 806 94 818 q 69 777 69 794 q 81 750 69 762 q 109 738 94 738 q 138 750 126 738 q 150 777 150 762 q 138 806 150 794 q 109 818 126 818 m 375 600 q 387 571 375 581 q 413 561 400 561 q 443 574 431 561 q 454 602 454 587 q 441 631 454 622 q 415 641 429 641 q 385 628 395 641 q 375 600 375 615 m 195 777 q 209 833 195 808 q 247 873 223 858 l 216 923 q 171 878 190 904 q 144 820 152 852 q 166 777 166 807 q 144 734 166 750 q 171 677 152 702 q 216 633 190 652 l 247 683 q 209 723 223 698 q 195 777 195 748 m 312 895 q 392 864 359 895 q 429 788 425 833 l 486 788 q 433 901 481 855 q 415 898 422 898 q 379 911 395 898 q 359 945 362 925 q 312 951 338 951 q 236 933 270 951 l 263 884 q 312 895 286 895 m 312 661 q 263 672 286 661 l 236 623 q 312 605 270 605 q 359 611 338 605 q 379 645 362 632 q 415 658 395 658 q 433 655 422 658 q 486 768 481 701 l 429 768 q 392 692 425 723 q 312 661 359 661 m 415 913 q 441 924 429 913 q 454 954 454 934 q 443 982 454 969 q 413 994 433 994 q 386 984 398 994 q 373 955 373 973 q 386 926 373 938 q 415 913 400 913 "},"Ї":{"x_min":-25.390625,"x_max":399.65625,"ha":374,"o":"m 119 962 l 254 962 l 254 0 l 119 0 l 119 962 m 55 1072 q -1 1095 23 1072 q -25 1154 -25 1118 q -1 1213 -25 1190 q 55 1236 23 1236 q 111 1213 87 1236 q 135 1154 135 1190 q 111 1095 135 1118 q 55 1072 87 1072 m 319 1072 q 262 1095 287 1072 q 238 1154 238 1118 q 262 1213 238 1190 q 319 1236 287 1236 q 375 1213 351 1236 q 399 1154 399 1190 q 375 1095 399 1118 q 319 1072 351 1072 "},"û":{"x_min":102.78125,"x_max":686.171875,"ha":797,"o":"m 686 20 q 568 -2 641 9 q 400 -15 495 -15 q 259 9 316 -15 q 168 77 202 33 q 118 182 133 122 q 102 316 102 243 l 102 722 l 231 722 l 231 344 q 273 155 231 212 q 413 98 315 98 q 456 100 434 98 q 498 103 479 101 q 534 107 518 105 q 556 112 550 109 l 556 722 l 686 722 l 686 20 m 394 1068 l 583 869 l 528 808 l 394 930 l 259 808 l 205 869 l 394 1068 "},"Ź":{"x_min":45.84375,"x_max":744.5,"ha":796,"o":"m 730 855 q 656 768 698 819 q 566 656 613 718 q 469 525 519 594 q 371 386 419 456 q 280 247 323 316 q 202 115 237 177 l 744 115 l 744 0 l 45 0 l 45 90 q 114 212 75 145 q 199 348 154 279 q 293 488 244 418 q 389 625 341 559 q 482 747 437 690 q 565 847 527 804 l 70 847 l 70 962 l 730 962 l 730 855 m 573 1212 l 377 1022 l 312 1080 l 490 1294 l 573 1212 "},"":{"x_min":64.84375,"x_max":689.890625,"ha":758,"o":"m 689 577 q 547 145 689 291 q 124 -2 405 -1 l 120 105 q 278 122 207 105 q 400 175 348 138 q 489 270 453 212 q 541 413 524 329 q 459 386 505 397 q 364 376 413 376 q 225 400 282 376 q 132 466 169 425 q 80 560 96 506 q 64 672 64 613 q 82 779 64 723 q 137 880 100 834 q 231 955 174 926 q 366 984 288 984 q 505 957 445 984 q 607 876 566 929 q 669 747 648 823 q 689 577 689 672 m 378 481 q 470 491 427 481 q 553 518 513 500 q 555 547 555 533 q 555 577 555 562 q 546 692 555 637 q 516 788 538 747 q 459 853 495 829 q 367 877 423 877 q 289 858 321 877 q 237 809 257 838 q 207 743 216 779 q 198 675 198 708 q 243 531 198 580 q 378 481 288 481 "},"Ῑ":{"x_min":-5.109375,"x_max":389.375,"ha":374,"o":"m 119 962 l 254 962 l 254 0 l 119 0 l 119 962 m -5 1204 l 389 1204 l 389 1104 l -5 1104 l -5 1204 "},"":{"x_min":44.453125,"x_max":1163.640625,"ha":1214,"o":"m 452 583 q 400 470 452 513 q 247 426 347 426 q 150 441 188 426 q 87 477 111 455 q 54 527 63 500 q 44 579 44 554 q 69 652 44 618 q 127 707 94 686 q 77 763 95 730 q 58 832 58 795 q 71 890 58 862 q 109 938 84 918 q 169 972 134 959 q 247 984 204 984 q 333 970 297 984 q 392 936 369 957 q 425 889 415 915 q 436 838 436 863 q 416 768 436 800 q 363 715 395 737 q 431 659 413 691 q 452 583 450 627 m 141 579 q 147 555 141 568 q 165 532 152 543 q 197 515 177 522 q 247 508 218 508 q 328 529 304 508 q 352 579 352 551 q 313 639 352 618 q 202 677 273 661 q 158 633 175 657 q 141 579 141 609 m 340 840 q 319 880 340 858 q 247 902 298 902 q 175 880 195 902 q 154 837 154 858 q 183 783 154 809 q 277 744 212 757 q 322 786 305 763 q 340 840 340 808 m 935 962 l 392 0 l 272 0 l 815 962 l 935 962 m 1163 322 q 1067 83 1163 166 q 791 0 971 0 l 788 84 q 962 120 890 87 q 1053 219 1034 153 q 1000 203 1026 208 q 952 199 974 199 q 862 213 899 199 q 801 251 824 227 q 768 306 778 276 q 758 370 758 337 q 769 432 758 401 q 804 490 780 463 q 865 533 828 516 q 952 549 902 549 q 1110 489 1056 549 q 1163 322 1163 428 m 960 281 q 1015 285 988 281 q 1067 297 1042 288 q 1045 420 1070 373 q 953 467 1020 467 q 909 458 927 467 q 879 435 891 449 q 862 403 867 420 q 858 372 858 387 q 960 281 858 281 "},"Ń":{"x_min":119.453125,"x_max":891.734375,"ha":1011,"o":"m 779 0 q 709 115 748 51 q 623 247 669 179 q 528 387 577 316 q 430 524 479 458 q 336 648 381 590 q 251 751 290 707 l 251 0 l 119 0 l 119 962 l 226 962 q 366 800 291 893 q 513 610 440 708 q 650 418 586 512 q 759 250 715 323 l 759 962 l 891 962 l 891 0 l 779 0 m 673 1212 l 477 1022 l 412 1080 l 590 1294 l 673 1212 "},"ῖ":{"x_min":-8.734375,"x_max":361,"ha":379,"o":"m 327 -13 q 158 37 208 -11 q 108 188 108 86 l 108 722 l 237 722 l 237 209 q 243 156 237 177 q 261 123 248 136 q 294 104 273 111 q 345 94 315 98 l 327 -13 m 176 1040 q 249 1027 215 1040 q 309 989 284 1013 q 348 929 334 965 q 360 847 362 893 l 277 847 q 271 880 276 862 q 255 913 266 898 q 224 937 244 927 q 176 947 205 947 q 127 937 146 947 q 96 913 108 927 q 80 880 85 898 q 74 847 76 862 l -8 847 q 3 929 -10 893 q 42 989 17 965 q 102 1027 67 1013 q 176 1040 137 1040 "},"ɀ":{"x_min":52.78125,"x_max":654.21875,"ha":651,"o":"m 590 625 q 513 536 561 593 q 410 407 465 479 q 299 256 355 336 q 197 100 243 176 q 256 79 229 93 q 306 51 284 66 q 347 20 329 36 q 377 -8 365 4 q 424 -55 401 -31 q 471 -97 447 -79 q 522 -129 495 -116 q 583 -141 550 -141 q 606 -140 588 -141 q 640 -137 623 -140 l 654 -247 q 609 -254 636 -251 q 566 -256 583 -256 q 486 -245 520 -256 q 425 -214 452 -233 q 372 -170 397 -195 q 319 -118 347 -145 q 281 -82 304 -102 q 229 -43 258 -62 q 162 -12 200 -25 q 80 0 125 0 l 52 0 l 52 86 q 134 220 86 147 q 235 367 183 294 q 338 504 287 440 q 426 613 388 569 l 69 613 l 69 722 l 590 722 l 590 625 "},"ᾛ":{"x_min":-49.890625,"x_max":1660.859375,"ha":1695,"o":"m 1056 962 l 1190 962 l 1190 0 l 1056 0 l 1056 444 l 585 444 l 585 0 l 450 0 l 450 962 l 585 962 l 585 561 l 1056 561 l 1056 962 m 93 699 q 39 745 65 720 q -6 796 12 770 q -38 849 -26 823 q -49 899 -49 876 q -26 963 -49 941 q 30 985 -2 985 q 86 964 65 985 q 108 910 108 942 q 58 839 108 859 q 94 792 73 813 q 143 746 115 770 l 93 699 m 248 988 l 400 752 l 327 699 l 152 919 l 248 988 m 1642 -13 q 1473 37 1523 -11 q 1423 188 1423 86 l 1423 722 l 1552 722 l 1552 209 q 1558 156 1552 177 q 1576 123 1563 136 q 1609 104 1588 111 q 1660 94 1630 98 l 1642 -13 "},".":{"x_min":77.78125,"x_max":263.90625,"ha":342,"o":"m 263 75 q 238 9 263 37 q 170 -18 213 -18 q 102 9 127 -18 q 77 75 77 37 q 102 140 77 112 q 170 168 127 168 q 238 140 213 168 q 263 75 263 112 "},"ǀ":{"x_min":133.34375,"x_max":254.1875,"ha":388,"o":"m 133 1087 l 254 1087 l 254 -256 l 133 -256 l 133 1087 "},"π":{"x_min":111.125,"x_max":691.71875,"ha":803,"o":"m 691 0 l 562 0 l 562 613 l 240 613 l 240 0 l 111 0 l 111 722 l 691 722 l 691 0 "},"":{"x_min":111.125,"x_max":800.0625,"ha":893,"o":"m 393 1077 q 476 1071 441 1077 q 526 1059 511 1065 l 508 948 q 466 960 493 954 q 402 966 440 966 q 276 917 312 966 q 240 784 240 868 l 240 722 l 518 722 l 518 613 l 240 613 l 240 0 l 111 0 l 111 787 q 179 1002 111 926 q 393 1077 247 1077 m 782 0 l 652 0 l 652 722 l 782 722 l 782 0 m 716 852 q 657 875 682 852 q 633 937 633 898 q 657 999 633 976 q 716 1022 682 1022 q 775 999 751 1022 q 800 937 800 976 q 775 875 800 898 q 716 852 751 852 "},"Ъ":{"x_min":22.21875,"x_max":957.015625,"ha":1008,"o":"m 957 301 q 844 68 957 145 q 527 -9 732 -9 q 400 -4 469 -9 q 272 13 330 0 l 272 847 l 22 847 l 22 962 l 406 962 l 406 612 q 463 616 434 615 q 519 616 491 616 q 957 301 957 616 m 815 301 q 793 398 815 359 q 731 459 770 437 q 636 491 691 481 q 515 500 581 500 q 461 500 488 500 q 406 497 434 500 l 406 112 q 463 109 431 109 q 538 108 494 108 q 643 116 593 108 q 731 147 693 125 q 792 206 769 169 q 815 301 815 243 "},"ή":{"x_min":111.125,"x_max":694.5,"ha":797,"o":"m 111 701 q 229 725 155 712 q 398 737 302 737 q 541 713 484 737 q 632 645 598 688 q 680 540 666 601 q 694 405 694 479 l 694 -256 l 565 -256 l 565 377 q 556 491 565 444 q 526 568 547 538 q 470 610 505 597 q 384 623 436 623 q 341 622 363 623 q 299 618 319 620 q 263 613 279 616 q 240 609 247 611 l 240 0 l 111 0 l 111 701 m 589 982 l 341 805 l 285 877 l 516 1077 l 589 982 "},"ȵ":{"x_min":111.125,"x_max":1004.25,"ha":997,"o":"m 111 701 q 229 725 155 712 q 398 737 302 737 q 541 713 484 737 q 632 645 598 688 q 680 540 666 601 q 694 405 694 479 l 694 100 q 752 129 722 119 q 819 140 783 140 q 895 124 861 140 q 953 81 929 108 q 991 18 977 54 q 1004 -56 1004 -18 q 992 -127 1004 -91 q 955 -191 980 -162 q 891 -238 930 -220 q 798 -256 852 -256 q 669 -224 719 -256 q 593 -134 619 -191 l 488 -261 l 422 -202 l 566 -27 q 565 -5 565 -16 q 565 16 565 5 l 565 377 q 556 491 565 444 q 526 568 547 538 q 470 610 505 597 q 384 623 436 623 q 341 622 363 623 q 299 618 319 620 q 263 613 279 616 q 240 609 247 611 l 240 0 l 111 0 l 111 701 m 800 43 q 741 27 765 43 q 694 -12 718 12 l 694 -47 q 722 -127 694 -97 q 798 -158 750 -158 q 872 -128 847 -158 q 898 -56 898 -98 q 873 13 898 -15 q 800 43 848 43 "},"Ś":{"x_min":45.84375,"x_max":695.890625,"ha":739,"o":"m 343 95 q 554 240 554 95 q 535 316 554 284 q 484 370 516 347 q 411 409 452 393 q 325 443 370 426 q 225 484 272 461 q 143 538 177 506 q 88 612 108 569 q 68 716 68 655 q 154 913 68 843 q 391 984 240 984 q 550 966 479 984 q 655 925 622 947 l 612 815 q 525 850 583 833 q 391 868 468 868 q 319 859 352 868 q 261 834 286 851 q 221 792 236 818 q 206 732 206 766 q 222 666 206 693 q 265 620 237 640 q 329 583 293 600 q 411 550 366 566 q 525 500 473 525 q 616 440 577 475 q 675 357 654 405 q 695 241 695 309 q 603 47 695 115 q 343 -20 511 -20 q 238 -13 286 -20 q 152 4 190 -5 q 88 27 115 15 q 45 47 61 38 l 86 158 q 183 118 118 140 q 343 95 248 95 m 551 1212 l 355 1022 l 290 1080 l 468 1294 l 551 1212 "},"à":{"x_min":59.734375,"x_max":622.265625,"ha":725,"o":"m 355 93 q 436 95 401 93 q 495 102 472 97 l 495 318 q 450 329 481 325 q 375 334 419 334 q 313 330 345 334 q 253 313 280 326 q 208 277 226 300 q 190 216 190 254 q 234 120 190 147 q 355 93 279 93 m 344 740 q 475 720 422 740 q 561 663 529 700 q 608 575 594 626 q 622 463 622 525 l 622 12 q 575 4 605 9 q 508 -4 545 0 q 427 -11 470 -8 q 340 -15 383 -15 q 227 -2 279 -15 q 138 36 176 9 q 80 108 101 63 q 59 215 59 152 q 84 318 59 275 q 150 387 108 361 q 247 426 191 413 q 363 438 302 438 q 404 436 383 438 q 443 431 425 434 q 476 425 462 427 q 495 420 490 422 l 495 456 q 488 520 495 488 q 463 575 481 551 q 414 614 445 600 q 333 629 383 629 q 221 620 269 629 q 150 601 173 611 l 134 708 q 218 729 159 719 q 344 740 276 740 m 282 1077 l 459 863 l 394 805 l 198 995 l 282 1077 "},"₀":{"x_min":40.28125,"x_max":456.984375,"ha":499,"o":"m 40 269 q 95 476 40 404 q 248 548 151 548 q 401 476 345 548 q 456 269 456 404 q 401 62 456 134 q 248 -9 345 -9 q 95 62 151 -9 q 40 269 40 134 m 354 269 q 349 343 354 308 q 331 405 344 379 q 299 447 319 432 q 248 462 279 462 q 197 447 218 462 q 165 405 177 432 q 147 343 152 379 q 141 269 141 308 q 147 194 141 229 q 165 133 152 159 q 197 91 177 107 q 248 76 218 76 q 299 91 279 76 q 331 133 319 107 q 349 194 344 159 q 354 269 354 229 "},"₴":{"x_min":51.390625,"x_max":730.609375,"ha":783,"o":"m 51 556 l 51 650 l 525 650 q 544 727 544 684 q 529 791 544 763 q 491 836 515 818 q 438 863 468 854 q 377 872 408 872 q 259 859 306 872 q 177 833 211 845 l 152 945 q 265 973 211 963 q 377 983 320 983 q 516 960 459 983 q 606 901 572 937 q 655 818 640 865 q 670 726 670 772 q 658 650 670 683 l 730 650 l 730 556 l 604 556 q 527 499 572 527 q 429 438 481 470 l 368 404 l 730 404 l 730 311 l 261 311 q 238 230 238 276 q 282 127 238 165 q 426 90 326 90 q 499 94 466 90 q 559 105 531 98 q 610 121 586 112 q 658 141 634 130 l 694 38 q 560 -7 630 4 q 423 -19 490 -19 q 272 0 331 -19 q 176 54 212 20 q 125 130 140 87 q 111 220 111 173 q 125 311 111 273 l 51 311 l 51 404 l 180 404 q 262 463 212 434 q 375 527 312 491 l 426 556 l 51 556 "},"¦":{"x_min":133.34375,"x_max":254.1875,"ha":388,"o":"m 133 275 l 254 275 l 254 -256 l 133 -256 l 133 275 m 133 1087 l 254 1087 l 254 555 l 133 555 l 133 1087 "},"Ѣ":{"x_min":22.21875,"x_max":957.015625,"ha":1008,"o":"m 691 802 l 406 802 l 406 602 l 526 602 q 707 586 627 602 q 843 532 787 569 q 927 438 898 495 q 957 297 957 380 q 845 67 957 144 q 531 -9 734 -9 q 468 -8 502 -9 q 400 -4 434 -6 q 333 2 366 -1 q 272 13 300 6 l 272 802 l 22 802 l 22 913 l 272 913 l 272 1025 l 406 1025 l 406 913 l 691 913 l 691 802 m 543 108 q 646 116 597 108 q 733 146 695 125 q 793 204 770 168 q 815 295 815 240 q 795 391 815 354 q 737 451 775 429 q 645 482 700 473 q 520 491 590 491 l 406 491 l 406 112 q 443 109 422 111 q 486 108 461 108 q 543 108 511 108 "},"ᾼ":{"x_min":11.109375,"x_max":1271.859375,"ha":1306,"o":"m 762 0 q 718 122 738 62 q 675 245 697 183 l 238 245 l 151 0 l 11 0 q 115 282 66 152 q 210 529 163 412 q 302 752 256 645 q 398 962 348 858 l 522 962 q 618 752 572 858 q 710 529 663 645 q 805 282 757 412 q 909 0 854 152 l 762 0 m 636 356 q 547 591 591 477 q 456 808 504 704 q 364 591 408 704 q 277 356 320 477 l 636 356 m 1253 -13 q 1084 37 1134 -11 q 1034 188 1034 86 l 1034 722 l 1163 722 l 1163 209 q 1169 156 1163 177 q 1187 123 1174 136 q 1220 104 1199 111 q 1271 94 1241 98 l 1253 -13 "},"Ҧ":{"x_min":119.453125,"x_max":1383.4375,"ha":1433,"o":"m 823 0 l 688 0 l 688 847 l 254 847 l 254 0 l 119 0 l 119 962 l 823 962 l 823 579 q 856 587 836 583 q 901 595 876 591 q 952 602 926 600 q 1002 605 979 605 q 1168 575 1097 605 q 1288 488 1240 544 q 1359 353 1336 433 q 1383 176 1383 273 q 1358 7 1383 86 q 1285 -129 1333 -70 q 1168 -222 1237 -188 q 1011 -256 1100 -256 q 970 -256 991 -256 q 932 -252 948 -255 l 936 -143 q 956 -145 944 -144 q 987 -145 968 -145 q 1090 -124 1043 -145 q 1171 -61 1137 -102 q 1225 38 1205 -20 q 1244 176 1244 98 q 1173 412 1244 334 q 988 490 1101 490 q 891 481 940 490 q 823 468 843 473 l 823 0 "},"e":{"x_min":70.84375,"x_max":701.4375,"ha":776,"o":"m 70 359 q 98 527 70 455 q 172 645 126 598 q 277 716 218 693 q 400 740 337 740 q 623 649 545 740 q 701 372 701 558 q 701 350 701 363 q 700 326 701 337 l 205 326 q 270 155 213 213 q 448 97 327 97 q 563 109 516 97 q 633 131 609 120 l 651 23 q 568 -2 627 11 q 434 -16 509 -16 q 271 11 340 -16 q 158 90 202 40 q 92 209 113 140 q 70 359 70 277 m 566 430 q 522 574 568 518 q 398 630 477 630 q 320 613 354 630 q 262 568 286 595 q 225 504 238 540 q 208 430 212 468 l 566 430 "},"Ἱ":{"x_min":-49.828125,"x_max":342.1875,"ha":461,"o":"m 207 962 l 342 962 l 342 0 l 207 0 l 207 962 m 101 699 q 43 745 71 720 q -3 796 16 770 q -37 849 -24 823 q -49 899 -49 876 q -24 963 -49 941 q 36 985 0 985 q 93 964 71 985 q 116 910 116 942 q 102 868 116 887 q 64 839 87 849 q 101 792 79 813 q 151 746 123 770 l 101 699 "},"ὗ":{"x_min":102.78125,"x_max":697.28125,"ha":800,"o":"m 400 -15 q 252 11 309 -15 q 161 84 194 38 q 115 187 127 129 q 102 306 102 245 l 102 722 l 231 722 l 231 325 q 274 152 231 202 q 400 101 316 101 q 525 152 483 101 q 568 325 568 202 l 568 722 l 697 722 l 697 306 q 684 187 697 245 q 638 84 672 129 q 547 11 605 38 q 400 -15 490 -15 m 472 798 q 420 830 447 812 q 371 869 393 848 q 336 913 350 890 q 322 963 322 937 q 343 1025 322 1005 q 397 1044 365 1044 q 453 1023 436 1044 q 470 977 470 1002 q 459 943 470 959 q 433 916 448 927 q 511 845 454 886 l 472 798 m 400 1223 q 469 1212 436 1223 q 528 1179 502 1201 q 569 1126 554 1158 q 584 1052 584 1094 l 584 1050 l 511 1050 q 482 1110 508 1082 q 400 1138 455 1138 q 318 1110 344 1138 q 289 1050 291 1082 l 215 1050 l 215 1052 q 230 1126 215 1094 q 271 1179 245 1158 q 330 1212 297 1201 q 400 1223 364 1223 "},"ļ":{"x_min":53.78125,"x_max":345.859375,"ha":379,"o":"m 327 -13 q 158 37 208 -11 q 108 188 108 86 l 108 1055 l 237 1077 l 237 209 q 243 156 237 177 q 261 123 248 136 q 294 104 273 111 q 345 94 315 98 l 327 -13 m 144 -69 l 267 -69 q 269 -85 269 -76 q 269 -98 269 -94 q 255 -173 269 -143 q 220 -223 242 -204 q 168 -252 198 -243 q 105 -261 138 -261 q 72 -259 87 -261 q 53 -255 57 -258 l 53 -177 q 91 -175 74 -177 q 120 -163 109 -172 q 137 -136 131 -154 q 144 -87 144 -118 l 144 -69 "},"Ѓ":{"x_min":119.453125,"x_max":684.78125,"ha":707,"o":"m 684 962 l 684 845 l 254 845 l 254 0 l 119 0 l 119 962 l 684 962 m 569 1212 l 373 1022 l 308 1080 l 486 1294 l 569 1212 "},"ò":{"x_min":70.84375,"x_max":748.671875,"ha":820,"o":"m 748 361 q 723 205 748 275 q 653 86 698 136 q 545 9 608 36 q 409 -18 483 -18 q 273 9 336 -18 q 165 86 211 36 q 95 205 120 136 q 70 361 70 275 q 95 516 70 445 q 165 636 120 586 q 273 713 211 686 q 409 740 336 740 q 545 713 483 740 q 653 636 608 686 q 723 516 698 586 q 748 361 748 445 m 613 361 q 559 554 613 483 q 409 626 504 626 q 260 554 315 626 q 205 361 205 483 q 260 167 205 238 q 409 95 315 95 q 559 167 504 95 q 613 361 613 238 m 326 1077 l 503 863 l 438 805 l 242 995 l 326 1077 "},"ﬄ":{"x_min":111.125,"x_max":1429.578125,"ha":1463,"o":"m 393 1077 q 491 1069 450 1077 q 548 1054 531 1061 l 525 943 q 477 959 508 951 q 402 966 447 966 q 276 917 312 966 q 240 784 240 868 l 240 722 l 518 722 l 518 613 l 240 613 l 240 0 l 111 0 l 111 787 q 179 1002 111 926 q 393 1077 247 1077 m 935 1077 q 1018 1071 983 1077 q 1068 1059 1053 1065 l 1050 948 q 1008 960 1035 954 q 944 966 982 966 q 818 917 854 966 q 782 784 782 868 l 782 722 l 1060 722 l 1060 613 l 782 613 l 782 0 l 653 0 l 653 787 q 721 1002 653 926 q 935 1077 789 1077 m 1411 -13 q 1242 37 1292 -11 q 1192 188 1192 86 l 1192 1055 l 1321 1077 l 1321 209 q 1326 156 1321 177 q 1344 123 1332 136 q 1378 104 1357 111 q 1429 94 1399 98 l 1411 -13 "},"^":{"x_min":65.28125,"x_max":718.109375,"ha":783,"o":"m 448 962 l 718 490 l 615 437 l 391 829 l 168 437 l 65 490 l 334 962 l 448 962 "},"":{"x_min":33.34375,"x_max":465.3125,"ha":499,"o":"m 395 1140 l 395 815 l 465 815 l 465 733 l 395 733 l 395 604 l 301 604 l 301 733 l 33 733 l 33 797 q 83 876 52 832 q 150 968 113 921 q 226 1060 186 1015 q 306 1140 266 1105 l 395 1140 m 301 1025 q 213 924 258 980 q 137 815 169 868 l 301 815 l 301 1025 "},"Ӑ":{"x_min":11.109375,"x_max":909.796875,"ha":921,"o":"m 762 0 q 718 122 738 62 q 675 245 697 183 l 238 245 l 151 0 l 11 0 q 115 282 66 152 q 210 529 163 412 q 302 752 256 645 q 398 962 348 858 l 522 962 q 618 752 572 858 q 710 529 663 645 q 805 282 757 412 q 909 0 854 152 l 762 0 m 636 356 q 547 591 591 477 q 456 808 504 704 q 364 591 408 704 q 277 356 320 477 l 636 356 m 462 1055 q 320 1100 375 1055 q 254 1224 265 1144 l 352 1250 q 390 1178 364 1205 q 462 1150 416 1150 q 534 1178 508 1150 q 572 1250 561 1205 l 669 1224 q 604 1100 658 1144 q 462 1055 550 1055 "},"к":{"x_min":111.125,"x_max":726.453125,"ha":746,"o":"m 375 393 q 468 316 418 362 q 566 215 518 269 q 655 104 613 161 q 726 0 697 48 l 573 0 q 502 96 543 47 q 416 191 461 145 q 326 276 372 237 q 240 341 280 315 l 240 0 l 111 0 l 111 722 l 240 722 l 240 412 q 316 486 273 444 q 403 572 359 529 q 484 656 447 616 q 545 722 522 695 l 695 722 q 624 646 665 688 q 539 559 583 604 q 452 471 495 515 q 375 393 409 427 "},"Ȣ":{"x_min":68.0625,"x_max":862.5625,"ha":931,"o":"m 465 465 q 361 455 408 465 q 280 423 315 445 q 227 367 245 401 q 208 286 208 333 q 229 202 208 237 q 285 146 250 168 q 367 115 320 125 q 465 105 413 105 q 563 115 516 105 q 645 146 609 125 q 701 202 680 168 q 722 286 722 237 q 703 367 722 333 q 650 423 684 401 q 568 455 615 445 q 465 465 520 465 m 798 748 q 767 611 798 669 q 669 529 736 552 q 745 495 709 516 q 806 443 780 473 q 847 374 832 413 q 862 286 862 334 q 769 71 862 150 q 466 -6 676 -6 q 284 13 359 -6 q 161 71 209 33 q 90 163 112 109 q 68 286 68 218 q 82 375 68 336 q 123 443 97 413 q 184 495 150 473 q 261 529 219 516 q 163 611 194 552 q 131 748 131 669 q 138 862 131 815 q 155 962 144 909 l 286 962 q 270 865 277 913 q 263 768 263 816 q 311 625 263 675 q 465 576 359 576 q 618 625 570 576 q 666 768 666 675 q 659 865 666 816 q 644 962 652 913 l 775 962 q 792 862 786 909 q 798 748 798 815 "},"᾿":{"x_min":166.6875,"x_max":368.078125,"ha":522,"o":"m 166 845 q 216 891 194 869 q 254 938 238 912 q 215 967 230 948 q 201 1009 201 986 q 224 1063 201 1041 q 281 1084 247 1084 q 343 1062 318 1084 q 368 998 368 1040 q 355 948 368 975 q 322 895 343 922 q 274 844 301 869 q 216 798 247 819 l 166 845 "},"ǘ":{"x_min":102.78125,"x_max":686.171875,"ha":797,"o":"m 686 20 q 568 -2 641 9 q 400 -15 495 -15 q 259 9 316 -15 q 168 77 202 33 q 118 182 133 122 q 102 316 102 243 l 102 722 l 231 722 l 231 344 q 273 155 231 212 q 413 98 315 98 q 456 100 434 98 q 498 103 479 101 q 534 107 518 105 q 556 112 550 109 l 556 722 l 686 722 l 686 20 m 246 815 q 194 836 216 815 q 171 891 171 857 q 194 947 171 926 q 246 968 216 968 q 300 947 278 968 q 321 891 321 926 q 300 836 321 857 q 246 815 278 815 m 541 815 q 487 836 509 815 q 466 891 466 857 q 487 947 466 926 q 541 968 509 968 q 594 947 573 968 q 616 891 616 926 q 594 836 616 857 q 541 815 573 815 m 467 1186 l 551 1113 l 396 937 l 334 990 l 467 1186 "},"ˆ":{"x_min":72.234375,"x_max":450.03125,"ha":522,"o":"m 261 1068 l 450 869 l 395 808 l 261 930 l 126 808 l 72 869 l 261 1068 "},"ū":{"x_min":102.78125,"x_max":686.171875,"ha":797,"o":"m 686 20 q 568 -2 641 9 q 400 -15 495 -15 q 259 9 316 -15 q 168 77 202 33 q 118 182 133 122 q 102 316 102 243 l 102 722 l 231 722 l 231 344 q 273 155 231 212 q 413 98 315 98 q 456 100 434 98 q 498 103 479 101 q 534 107 518 105 q 556 112 550 109 l 556 722 l 686 722 l 686 20 m 196 987 l 591 987 l 591 887 l 196 887 l 196 987 "},"č":{"x_min":70.84375,"x_max":618.109375,"ha":646,"o":"m 425 -16 q 271 11 337 -16 q 160 88 205 38 q 93 207 115 138 q 70 359 70 276 q 95 512 70 443 q 163 632 119 581 q 272 711 208 683 q 416 740 337 740 q 513 732 465 740 q 607 705 562 723 l 577 595 q 510 618 548 609 q 429 626 472 626 q 263 558 320 626 q 205 359 205 490 q 218 252 205 301 q 260 169 231 204 q 333 115 288 134 q 441 97 377 97 q 534 106 493 97 q 600 127 576 116 l 618 19 q 586 6 607 12 q 538 -4 565 0 q 482 -13 512 -9 q 425 -16 452 -16 m 210 1012 l 264 1073 l 399 951 l 533 1073 l 588 1012 l 399 813 l 210 1012 "},"’":{"x_min":45.84375,"x_max":243.078125,"ha":326,"o":"m 243 1041 q 243 1011 243 1026 q 241 983 243 997 q 209 841 236 911 q 145 708 183 770 l 45 740 q 89 864 75 802 q 104 980 104 926 q 103 1010 104 994 q 101 1041 102 1026 l 243 1041 "},"Ν":{"x_min":119.453125,"x_max":891.734375,"ha":1011,"o":"m 779 0 q 709 115 748 51 q 623 247 669 179 q 528 387 577 316 q 430 524 479 458 q 336 648 381 590 q 251 751 290 707 l 251 0 l 119 0 l 119 962 l 226 962 q 366 800 291 893 q 513 610 440 708 q 650 418 586 512 q 759 250 715 323 l 759 962 l 891 962 l 891 0 l 779 0 "},"Q":{"x_min":80.5625,"x_max":1000.078125,"ha":1081,"o":"m 80 481 q 117 700 80 605 q 217 857 154 794 q 364 952 280 920 q 543 984 448 984 q 718 952 636 984 q 863 857 801 920 q 963 700 926 794 q 1000 481 1000 605 q 972 288 1000 373 q 895 142 944 204 q 779 42 845 80 q 638 -9 713 4 q 667 -65 640 -41 q 736 -106 694 -90 q 829 -134 777 -123 q 932 -151 880 -145 l 900 -256 q 761 -231 827 -247 q 642 -188 695 -215 q 552 -121 588 -162 q 504 -19 516 -80 q 338 21 416 -13 q 204 120 261 56 q 113 273 147 183 q 80 481 80 363 m 222 481 q 244 322 222 394 q 307 201 266 251 q 407 124 348 151 q 540 97 466 97 q 672 124 613 97 q 771 201 730 151 q 834 322 812 251 q 857 481 857 394 q 834 641 857 569 q 771 762 812 712 q 672 839 730 812 q 540 866 613 866 q 407 839 466 866 q 307 762 348 812 q 244 641 266 712 q 222 481 222 569 "},"ȝ":{"x_min":16.671875,"x_max":545.875,"ha":606,"o":"m 226 740 q 340 727 287 740 q 431 683 393 713 q 491 606 469 652 q 513 493 513 559 q 502 431 513 461 q 471 374 491 401 q 422 325 451 347 q 361 290 394 304 q 440 259 405 280 q 498 209 475 238 q 534 146 522 180 q 545 75 545 112 q 498 -86 545 -22 q 376 -187 451 -150 q 208 -240 301 -225 q 25 -256 115 -256 l 16 -147 q 94 -141 51 -145 q 181 -129 137 -137 q 267 -106 225 -120 q 342 -69 309 -93 q 395 -11 375 -45 q 415 69 415 22 q 388 152 415 122 q 322 199 361 183 q 241 220 284 215 q 166 225 198 225 l 150 225 l 150 331 q 236 340 194 331 q 311 367 279 348 q 363 416 344 386 q 383 491 383 447 q 342 595 383 558 q 226 632 301 632 q 112 617 163 632 q 40 591 61 602 l 16 702 q 50 713 27 707 q 101 726 72 720 q 162 736 130 732 q 226 740 194 740 "},"ᾅ":{"x_min":70.84375,"x_max":812.5625,"ha":842,"o":"m 437 737 q 516 733 476 737 q 590 722 555 729 q 653 709 625 716 q 700 694 682 701 l 700 229 q 706 164 700 188 q 725 125 712 140 q 760 104 738 111 q 812 94 782 98 l 794 -13 q 689 4 732 -13 q 620 56 647 23 q 531 7 586 30 q 402 -15 477 -15 q 259 12 320 -15 q 155 90 197 40 q 92 209 113 140 q 70 359 70 277 q 96 517 70 447 q 170 636 122 587 q 286 711 218 684 q 437 737 354 737 m 412 97 q 513 115 469 97 q 579 151 556 134 q 570 234 570 188 l 570 605 q 522 616 559 609 q 443 622 486 622 q 268 554 331 622 q 205 359 205 486 q 216 256 205 304 q 252 172 227 208 q 317 117 277 137 q 412 97 356 97 m 332 798 q 278 844 304 819 q 232 895 251 869 q 201 948 212 922 q 189 998 189 975 q 212 1062 189 1040 q 269 1084 236 1084 q 326 1063 304 1084 q 347 1009 347 1041 q 297 938 347 958 q 333 891 312 912 q 382 845 354 869 l 332 798 m 667 1018 l 492 798 l 419 851 l 571 1087 l 667 1018 m 483 -87 q 489 -136 483 -118 q 506 -163 495 -154 q 535 -175 517 -172 q 573 -177 552 -177 l 573 -255 q 554 -259 569 -258 q 521 -261 539 -261 q 458 -252 488 -261 q 406 -223 428 -243 q 371 -173 384 -204 q 358 -98 358 -143 q 358 -85 358 -94 q 359 -69 358 -76 l 483 -69 l 483 -87 "},"Ҋ":{"x_min":119.453125,"x_max":1019.671875,"ha":1035,"o":"m 119 0 l 119 962 l 251 962 l 251 250 q 360 418 295 323 q 497 610 425 512 q 645 800 570 708 q 784 962 719 893 l 891 962 l 891 115 l 1019 115 q 1008 15 1020 66 q 972 -86 995 -36 q 918 -181 950 -136 q 851 -262 887 -226 l 758 -204 q 789 -168 772 -190 q 823 -118 807 -145 q 854 -61 840 -91 q 876 0 868 -30 l 759 0 l 759 751 q 675 648 720 707 q 580 524 629 590 q 482 387 531 458 q 387 247 433 316 q 302 115 341 179 q 231 0 262 51 l 119 0 m 506 1055 q 365 1100 420 1055 q 298 1223 309 1144 l 397 1250 q 434 1177 408 1205 q 506 1150 461 1150 q 579 1177 552 1150 q 616 1250 605 1205 l 713 1223 q 647 1100 702 1144 q 506 1055 593 1055 "},"œ":{"x_min":70.84375,"x_max":1240.375,"ha":1315,"o":"m 973 -16 q 791 23 863 -16 q 677 134 718 63 q 565 20 633 59 q 409 -18 497 -18 q 273 9 336 -18 q 165 86 211 36 q 95 205 120 136 q 70 361 70 275 q 95 516 70 445 q 165 636 120 586 q 273 713 211 686 q 409 740 336 740 q 566 699 497 740 q 677 587 634 658 q 793 702 723 665 q 938 740 863 740 q 1161 648 1083 740 q 1240 372 1240 556 q 1239 353 1240 361 q 1238 338 1238 345 l 1238 326 l 744 326 q 810 156 752 215 q 987 97 868 97 q 1102 109 1055 97 q 1172 131 1148 120 l 1190 23 q 1107 -2 1166 11 q 973 -16 1048 -16 m 613 361 q 559 554 613 483 q 409 626 504 626 q 260 554 315 626 q 205 361 205 483 q 260 167 205 238 q 409 95 315 95 q 559 167 504 95 q 613 361 613 238 m 1105 430 q 1061 574 1107 518 q 937 630 1016 630 q 859 613 893 630 q 802 568 825 595 q 765 504 779 540 q 747 430 751 468 l 1105 430 "},"ӗ":{"x_min":70.84375,"x_max":701.4375,"ha":776,"o":"m 70 359 q 98 527 70 455 q 172 645 126 598 q 277 716 218 693 q 400 740 337 740 q 623 649 545 740 q 701 372 701 558 q 701 350 701 363 q 700 326 701 337 l 205 326 q 270 155 213 213 q 448 97 327 97 q 563 109 516 97 q 633 131 609 120 l 651 23 q 568 -2 627 11 q 434 -16 509 -16 q 271 11 340 -16 q 158 90 202 40 q 92 209 113 140 q 70 359 70 277 m 566 430 q 522 574 568 518 q 398 630 477 630 q 320 613 354 630 q 262 568 286 595 q 225 504 238 540 q 208 430 212 468 l 566 430 m 392 838 q 250 883 305 838 q 184 1007 195 927 l 282 1033 q 320 961 294 988 q 392 933 346 933 q 464 961 438 933 q 502 1033 491 988 l 599 1007 q 534 883 588 927 q 392 838 480 838 "},"Ὲ":{"x_min":-47.265625,"x_max":909.71875,"ha":961,"o":"m 287 0 l 287 962 l 875 962 l 875 847 l 422 847 l 422 561 l 825 561 l 825 448 l 422 448 l 422 115 l 909 115 l 909 0 l 287 0 m 36 978 l 213 764 l 148 706 l -47 896 l 36 978 "},"Ɵ":{"x_min":80.5625,"x_max":1000.078125,"ha":1081,"o":"m 80 481 q 117 700 80 605 q 217 857 154 794 q 364 952 280 920 q 543 984 448 984 q 718 952 636 984 q 863 857 801 920 q 963 700 926 794 q 1000 481 1000 605 q 963 263 1000 358 q 863 106 926 169 q 718 11 801 43 q 543 -20 636 -20 q 364 11 448 -20 q 217 106 280 43 q 117 263 154 169 q 80 481 80 358 m 540 97 q 663 120 608 97 q 759 188 719 144 q 824 293 800 231 q 854 433 848 355 l 223 433 q 318 187 236 277 q 540 97 401 97 m 540 866 q 319 779 401 866 q 223 537 237 691 l 854 537 q 822 674 847 613 q 757 777 798 734 q 661 843 716 820 q 540 866 607 866 "},"ș":{"x_min":55.5625,"x_max":565.328125,"ha":620,"o":"m 279 93 q 396 113 358 93 q 434 180 434 134 q 397 255 434 227 q 273 318 359 283 q 193 352 231 334 q 127 393 155 369 q 83 450 100 416 q 66 531 66 483 q 137 684 66 627 q 330 740 208 740 q 391 736 361 740 q 448 728 422 733 q 495 718 475 723 q 526 708 515 712 l 502 597 q 437 620 481 608 q 330 632 393 632 q 236 610 276 632 q 195 543 195 588 q 204 501 195 519 q 232 468 213 483 q 279 441 251 454 q 345 415 306 429 q 437 377 397 395 q 506 333 477 358 q 550 272 534 308 q 565 186 565 237 q 491 34 565 86 q 279 -16 416 -16 q 129 0 183 -16 q 55 23 75 15 l 79 134 q 150 109 101 126 q 279 93 198 93 m 237 -69 l 360 -69 q 362 -85 362 -76 q 362 -98 362 -94 q 348 -173 362 -143 q 313 -223 335 -204 q 261 -252 291 -243 q 198 -261 231 -261 q 165 -259 180 -261 q 146 -255 150 -258 l 146 -177 q 184 -175 167 -177 q 213 -163 202 -172 q 230 -136 224 -154 q 237 -87 237 -118 l 237 -69 "},"ἱ":{"x_min":65.171875,"x_max":345.859375,"ha":379,"o":"m 327 -13 q 158 37 208 -11 q 108 188 108 86 l 108 722 l 237 722 l 237 209 q 243 156 237 177 q 261 123 248 136 q 294 104 273 111 q 345 94 315 98 l 327 -13 m 216 798 q 158 844 186 819 q 111 895 131 869 q 77 948 90 922 q 65 998 65 975 q 90 1062 65 1040 q 151 1084 115 1084 q 208 1063 186 1084 q 231 1009 231 1041 q 217 967 231 986 q 179 938 202 948 q 216 891 194 912 q 266 845 238 869 l 216 798 "},"Ѵ":{"x_min":13.890625,"x_max":1065.359375,"ha":1046,"o":"m 912 976 q 997 959 958 976 q 1065 916 1037 941 l 1005 819 q 961 847 983 838 q 920 857 938 857 q 859 830 882 857 q 811 737 837 804 l 519 0 l 393 0 q 300 210 345 104 q 209 433 255 316 q 113 679 162 550 q 13 962 65 809 l 162 962 q 309 540 237 743 q 458 159 381 337 l 690 779 q 724 859 707 823 q 766 922 741 895 q 826 962 791 948 q 912 976 861 976 "},"Ȫ":{"x_min":80.5625,"x_max":1000.078125,"ha":1081,"o":"m 80 481 q 117 700 80 605 q 217 857 154 794 q 364 952 280 920 q 543 984 448 984 q 718 952 636 984 q 863 857 801 920 q 963 700 926 794 q 1000 481 1000 605 q 963 263 1000 358 q 863 106 926 169 q 718 11 801 43 q 543 -20 636 -20 q 364 11 448 -20 q 217 106 280 43 q 117 263 154 169 q 80 481 80 358 m 222 481 q 244 322 222 394 q 307 201 266 251 q 407 124 348 151 q 540 97 466 97 q 672 124 613 97 q 771 201 730 151 q 834 322 812 251 q 857 481 857 394 q 834 641 857 569 q 771 762 812 712 q 672 839 730 812 q 540 866 613 866 q 407 839 466 866 q 307 762 348 812 q 244 641 266 712 q 222 481 222 569 m 399 1037 q 346 1058 367 1037 q 324 1113 324 1079 q 346 1169 324 1148 q 399 1190 367 1190 q 453 1169 431 1190 q 474 1113 474 1148 q 453 1058 474 1079 q 399 1037 431 1037 m 680 1037 q 626 1058 648 1037 q 605 1113 605 1079 q 626 1169 605 1148 q 680 1190 648 1190 q 733 1169 710 1190 q 755 1113 755 1148 q 733 1058 755 1079 q 680 1037 710 1037 m 363 1335 l 716 1335 l 716 1247 l 363 1247 l 363 1335 "},"ǎ":{"x_min":59.734375,"x_max":622.265625,"ha":725,"o":"m 355 93 q 436 95 401 93 q 495 102 472 97 l 495 318 q 450 329 481 325 q 375 334 419 334 q 313 330 345 334 q 253 313 280 326 q 208 277 226 300 q 190 216 190 254 q 234 120 190 147 q 355 93 279 93 m 344 740 q 475 720 422 740 q 561 663 529 700 q 608 575 594 626 q 622 463 622 525 l 622 12 q 575 4 605 9 q 508 -4 545 0 q 427 -11 470 -8 q 340 -15 383 -15 q 227 -2 279 -15 q 138 36 176 9 q 80 108 101 63 q 59 215 59 152 q 84 318 59 275 q 150 387 108 361 q 247 426 191 413 q 363 438 302 438 q 404 436 383 438 q 443 431 425 434 q 476 425 462 427 q 495 420 490 422 l 495 456 q 488 520 495 488 q 463 575 481 551 q 414 614 445 600 q 333 629 383 629 q 221 620 269 629 q 150 601 173 611 l 134 708 q 218 729 159 719 q 344 740 276 740 m 173 1012 l 227 1073 l 362 951 l 496 1073 l 551 1012 l 362 813 l 173 1012 "},"₈":{"x_min":44.453125,"x_max":452.8125,"ha":499,"o":"m 452 147 q 400 34 452 77 q 247 -9 347 -9 q 150 5 188 -9 q 87 41 111 19 q 54 91 63 64 q 44 143 44 118 q 69 216 44 182 q 127 271 94 250 q 77 327 95 294 q 58 396 58 359 q 71 454 58 426 q 109 502 84 482 q 169 536 134 523 q 247 548 204 548 q 333 534 297 548 q 392 500 369 521 q 425 453 415 479 q 436 402 436 427 q 416 332 436 364 q 363 279 395 301 q 431 223 413 255 q 452 147 450 191 m 141 143 q 147 119 141 132 q 165 96 152 107 q 197 79 177 86 q 247 72 218 72 q 328 93 304 72 q 352 143 352 115 q 313 203 352 182 q 202 241 273 225 q 158 197 175 221 q 141 143 141 173 m 340 404 q 319 444 340 422 q 247 466 298 466 q 175 444 195 466 q 154 401 154 422 q 183 347 154 373 q 277 308 212 321 q 322 350 305 327 q 340 404 340 372 "},"Ǖ":{"x_min":112.515625,"x_max":843.125,"ha":956,"o":"m 477 -20 q 313 8 383 -20 q 200 88 244 37 q 134 208 155 138 q 112 358 112 277 l 112 962 l 247 962 l 247 373 q 311 163 247 229 q 477 98 375 98 q 571 114 529 98 q 644 163 613 130 q 691 249 675 197 q 708 373 708 301 l 708 962 l 843 962 l 843 358 q 821 208 843 277 q 754 88 800 138 q 641 8 709 37 q 477 -20 572 -20 m 337 1037 q 284 1058 305 1037 q 262 1113 262 1079 q 284 1169 262 1148 q 337 1190 305 1190 q 391 1169 369 1190 q 412 1113 412 1148 q 391 1058 412 1079 q 337 1037 369 1037 m 618 1037 q 564 1058 586 1037 q 543 1113 543 1079 q 564 1169 543 1148 q 618 1190 586 1190 q 671 1169 648 1190 q 693 1113 693 1148 q 671 1058 693 1079 q 618 1037 648 1037 m 301 1335 l 654 1335 l 654 1247 l 301 1247 l 301 1335 "},"д":{"x_min":22.21875,"x_max":808.390625,"ha":838,"o":"m 22 105 l 100 105 q 172 243 145 172 q 213 389 200 313 q 231 547 227 465 q 237 722 236 630 l 711 722 l 711 105 l 808 105 l 808 -201 l 686 -201 l 686 0 l 144 0 l 144 -201 l 22 -201 l 22 105 m 581 105 l 581 613 l 355 613 q 348 482 354 548 q 330 352 343 416 q 295 225 318 287 q 237 105 272 163 l 581 105 "},"Ⱥ":{"x_min":13.890625,"x_max":908.40625,"ha":921,"o":"m 644 686 q 770 372 707 538 q 908 0 833 206 l 768 0 q 723 123 744 62 q 680 247 702 184 l 477 247 l 333 -140 l 238 -105 l 370 247 l 238 247 l 151 0 l 13 0 q 118 282 69 152 q 213 529 166 412 q 305 752 259 645 q 401 962 351 858 l 520 962 l 586 820 l 683 1079 l 779 1045 l 644 686 m 459 816 q 364 590 411 708 q 275 350 318 472 l 409 350 l 525 659 l 459 816 m 644 350 q 613 434 629 391 q 580 519 597 476 l 516 350 l 644 350 "}}}
